SplineFontDB: 3.0
FontName: WendyOne-Regular
FullName: Wendy One
FamilyName: Wendy One
Weight: Book
Copyright: Copyright (c) 2012, Alejandro Inler (alejandroinler@gmail.com), with Reserved Font Name 'Wendy'
Version: 1.001
ItalicAngle: 0
UnderlinePosition: -50
UnderlineWidth: 50
Ascent: 800
Descent: 200
sfntRevision: 0x00010042
LayerCount: 2
Layer: 0 1 "Back"  1
Layer: 1 1 "Fore"  0
XUID: [1021 599 1326293103 4597598]
FSType: 0
OS2Version: 3
OS2_WeightWidthSlopeOnly: 0
OS2_UseTypoMetrics: 1
CreationTime: 1267061160
ModificationTime: 1354721487
PfmFamily: 17
TTFWeight: 400
TTFWidth: 5
LineGap: 0
VLineGap: 0
Panose: 2 0 0 0 0 0 0 0 0 0
OS2TypoAscent: 819
OS2TypoAOffset: 0
OS2TypoDescent: -236
OS2TypoDOffset: 0
OS2TypoLinegap: 0
OS2WinAscent: 819
OS2WinAOffset: 0
OS2WinDescent: 236
OS2WinDOffset: 0
HheadAscent: 819
HheadAOffset: 0
HheadDescent: -236
HheadDOffset: 0
OS2SubXSize: 650
OS2SubYSize: 600
OS2SubXOff: 0
OS2SubYOff: 75
OS2SupXSize: 650
OS2SupYSize: 600
OS2SupXOff: 0
OS2SupYOff: 350
OS2StrikeYSize: 50
OS2StrikeYPos: 284
OS2Vendor: 'pyrs'
OS2CodePages: 20000001.00000000
OS2UnicodeRanges: 80000027.00000040.00000000.00000000
Lookup: 258 0 0 "'kern' Horizontal Kerning in Latin lookup 0"  {"'kern' Horizontal Kerning in Latin lookup 0 subtable"  } ['kern' ('latn' <'dflt' > ) ]
DEI: 91125
TtTable: prep
PUSHW_1
 511
SCANCTRL
PUSHB_1
 4
SCANTYPE
EndTTInstrs
ShortTable: maxp 16
  1
  0
  230
  68
  5
  0
  0
  2
  0
  1
  1
  0
  64
  0
  0
  0
EndShort
LangName: 1033 "" "" "" "AlejandroInler: Wendy One: 2012" "" "1.001" "" "Wendy is a trademark of Alejandro Inler." "Alejandro Inler" "Alejandro Inler" "" "" "" "This Font Software is licensed under the SIL Open Font License, Version 1.1. This license is available with a FAQ at: http://scripts.sil.org/OFL" "http://scripts.sil.org/OFL" 
GaspTable: 1 65535 15 1
Encoding: UnicodeBmp
UnicodeInterp: none
NameList: AGL For New Fonts
DisplaySize: -24
AntiAlias: 1
FitToEm: 1
BeginChars: 65539 230

StartChar: exclam
Encoding: 33 33 4
Width: 290
GlyphClass: 2
Flags: W
LayerCount: 2
Fore
SplineSet
145 185 m 128,-1,1
 92 185 92 185 58 163 c 1,2,-1
 31 606 l 1,3,-1
 259 606 l 1,4,-1
 232 163 l 1,5,0
 198 185 198 185 145 185 c 128,-1,1
145 134 m 128,-1,7
 183 134 183 134 202 113.5 c 128,-1,8
 221 93 221 93 221 62 c 128,-1,9
 221 31 221 31 202 10.5 c 128,-1,10
 183 -10 183 -10 145 -10 c 128,-1,11
 107 -10 107 -10 88 10.5 c 128,-1,12
 69 31 69 31 69 62 c 128,-1,13
 69 93 69 93 88 113.5 c 128,-1,6
 107 134 107 134 145 134 c 128,-1,7
EndSplineSet
EndChar

StartChar: quotedbl
Encoding: 34 34 5
Width: 371
GlyphClass: 2
Flags: W
LayerCount: 2
Fore
SplineSet
10 585 m 0,0,1
 10 616 10 616 29 636.5 c 128,-1,2
 48 657 48 657 86 657 c 128,-1,3
 124 657 124 657 143 636.5 c 128,-1,4
 162 616 162 616 162 585 c 1,5,-1
 159 562 l 1,6,-1
 124 417 l 1,7,-1
 48 417 l 1,8,-1
 13 562 l 2,9,10
 10 574 10 574 10 585 c 0,0,1
209 585 m 0,11,12
 209 616 209 616 228 636.5 c 128,-1,13
 247 657 247 657 285 657 c 128,-1,14
 323 657 323 657 342 636.5 c 128,-1,15
 361 616 361 616 361 585 c 1,16,-1
 358 562 l 1,17,-1
 323 417 l 1,18,-1
 247 417 l 1,19,-1
 212 562 l 2,20,21
 209 574 209 574 209 585 c 0,11,12
EndSplineSet
EndChar

StartChar: numbersign
Encoding: 35 35 6
Width: 657
GlyphClass: 2
Flags: W
LayerCount: 2
Fore
SplineSet
213 0 m 1,0,-1
 107 0 l 1,1,-1
 135 101 l 1,2,-1
 30 101 l 1,3,-1
 58 199 l 1,4,-1
 162 199 l 1,5,-1
 187 290 l 1,6,-1
 76 290 l 1,7,-1
 104 388 l 1,8,-1
 214 388 l 1,9,-1
 242 491 l 1,10,-1
 349 491 l 1,11,-1
 320 388 l 1,12,-1
 415 388 l 1,13,-1
 443 491 l 1,14,-1
 550 491 l 1,15,-1
 521 388 l 1,16,-1
 627 388 l 1,17,-1
 600 290 l 1,18,-1
 494 290 l 1,19,-1
 469 199 l 1,20,-1
 581 199 l 1,21,-1
 554 101 l 1,22,-1
 442 101 l 1,23,-1
 414 0 l 1,24,-1
 308 0 l 1,25,-1
 336 101 l 1,26,-1
 241 101 l 1,27,-1
 213 0 l 1,0,-1
293 290 m 1,28,-1
 268 199 l 1,29,-1
 363 199 l 1,30,-1
 388 290 l 1,31,-1
 293 290 l 1,28,-1
EndSplineSet
EndChar

StartChar: dollar
Encoding: 36 36 7
Width: 500
GlyphClass: 2
Flags: W
LayerCount: 2
Fore
SplineSet
269 131 m 0,0,1
 269 150 269 150 243 165.5 c 128,-1,2
 217 181 217 181 180 196.5 c 128,-1,3
 143 212 143 212 106 232.5 c 128,-1,4
 69 253 69 253 43 292 c 128,-1,5
 17 331 17 331 17 384 c 0,6,7
 17 463 17 463 71 508 c 128,-1,8
 125 553 125 553 207 563 c 1,9,-1
 207 619 l 1,10,-1
 302 619 l 1,11,-1
 302 563 l 1,12,13
 346 559 346 559 385 547 c 128,-1,14
 424 535 424 535 440 525 c 2,15,-1
 457 515 l 1,16,-1
 420 434 l 1,17,18
 344 466 344 466 290 466 c 128,-1,19
 236 466 236 466 236 429 c 0,20,21
 236 407 236 407 259 394 c 0,22,23
 274 385 274 385 311.5 369.5 c 128,-1,24
 349 354 349 354 371 344 c 0,25,26
 427 317 427 317 460.5 281 c 128,-1,27
 494 245 494 245 494 190 c 0,28,29
 494 104 494 104 435 54 c 128,-1,30
 376 4 376 4 290 -7 c 1,31,-1
 290 -70 l 1,32,-1
 197 -70 l 1,33,-1
 197 -7 l 1,34,35
 148 -1 148 -1 102.5 16 c 128,-1,36
 57 33 57 33 36 48 c 2,37,-1
 15 62 l 1,38,-1
 56 144 l 1,39,40
 140 94 140 94 219 94 c 0,41,42
 269 94 269 94 269 131 c 0,0,1
EndSplineSet
EndChar

StartChar: percent
Encoding: 37 37 8
Width: 883
GlyphClass: 2
Flags: W
LayerCount: 2
Fore
SplineSet
654 169 m 128,-1,1
 654 79 654 79 693 79 c 128,-1,2
 732 79 732 79 732 169 c 128,-1,3
 732 259 732 259 693 259 c 128,-1,0
 654 259 654 259 654 169 c 128,-1,1
524 169 m 128,-1,5
 524 244 524 244 570.5 291 c 128,-1,6
 617 338 617 338 693 338 c 128,-1,7
 769 338 769 338 815.5 291 c 128,-1,8
 862 244 862 244 862 169 c 128,-1,9
 862 94 862 94 815.5 47 c 128,-1,10
 769 0 769 0 693 0 c 128,-1,11
 617 0 617 0 570.5 47 c 128,-1,4
 524 94 524 94 524 169 c 128,-1,5
155 437 m 128,-1,13
 155 347 155 347 194 347 c 128,-1,14
 233 347 233 347 233 437 c 128,-1,15
 233 527 233 527 194 527 c 128,-1,12
 155 527 155 527 155 437 c 128,-1,13
25 437 m 128,-1,17
 25 512 25 512 71.5 559 c 128,-1,18
 118 606 118 606 194 606 c 128,-1,19
 270 606 270 606 316.5 559 c 128,-1,20
 363 512 363 512 363 437 c 128,-1,21
 363 362 363 362 316.5 315 c 128,-1,22
 270 268 270 268 194 268 c 128,-1,23
 118 268 118 268 71.5 315 c 128,-1,16
 25 362 25 362 25 437 c 128,-1,17
268 -10 m 1,24,-1
 478 620 l 1,25,-1
 621 620 l 1,26,-1
 408 -10 l 1,27,-1
 268 -10 l 1,24,-1
EndSplineSet
EndChar

StartChar: ampersand
Encoding: 38 38 9
Width: 580
GlyphClass: 2
Flags: W
LayerCount: 2
Fore
SplineSet
379 40 m 1,0,1
 315 -10 315 -10 217.5 -10 c 128,-1,2
 120 -10 120 -10 60 43 c 128,-1,3
 0 96 0 96 0 168 c 0,4,5
 0 256 0 256 86 313 c 1,6,7
 54 369 54 369 54 411 c 0,8,9
 54 493 54 493 123.5 534.5 c 128,-1,10
 193 576 193 576 288 576 c 128,-1,11
 383 576 383 576 452 546 c 1,12,-1
 442 441 l 1,13,14
 414 454 414 454 379 454 c 128,-1,15
 344 454 344 454 320 435.5 c 128,-1,16
 296 417 296 417 296 382 c 0,17,18
 296 313 296 313 367 229 c 1,19,20
 375 267 375 267 375 301 c 128,-1,21
 375 335 375 335 372 362 c 1,22,-1
 511 362 l 1,23,-1
 530 256 l 1,24,-1
 481 256 l 1,25,26
 475 194 475 194 456 144 c 1,27,28
 513 99 513 99 580 65 c 1,29,-1
 540 -27 l 1,30,31
 471 -14 471 -14 379 40 c 1,0,1
170 126.5 m 128,-1,33
 190 108 190 108 220.5 108 c 128,-1,34
 251 108 251 108 272 114 c 1,35,36
 217 156 217 156 165 210 c 1,37,38
 150 194 150 194 150 169.5 c 128,-1,32
 150 145 150 145 170 126.5 c 128,-1,33
EndSplineSet
EndChar

StartChar: quotesingle
Encoding: 39 39 10
Width: 172
GlyphClass: 2
Flags: W
LayerCount: 2
Fore
SplineSet
10 585 m 0,0,1
 10 616 10 616 29 636.5 c 128,-1,2
 48 657 48 657 86 657 c 128,-1,3
 124 657 124 657 143 636.5 c 128,-1,4
 162 616 162 616 162 585 c 1,5,-1
 159 562 l 1,6,-1
 124 417 l 1,7,-1
 48 417 l 1,8,-1
 13 562 l 2,9,10
 10 574 10 574 10 585 c 0,0,1
EndSplineSet
EndChar

StartChar: parenleft
Encoding: 40 40 11
Width: 345
GlyphClass: 2
Flags: W
LayerCount: 2
Fore
SplineSet
170 248 m 128,-1,1
 170 140 170 140 202.5 58.5 c 128,-1,2
 235 -23 235 -23 305 -136 c 1,3,-1
 210 -192 l 1,4,5
 125 -98 125 -98 67.5 19 c 128,-1,6
 10 136 10 136 10 248 c 128,-1,7
 10 360 10 360 67.5 477 c 128,-1,8
 125 594 125 594 210 688 c 1,9,-1
 305 632 l 1,10,11
 235 519 235 519 202.5 437.5 c 128,-1,0
 170 356 170 356 170 248 c 128,-1,1
EndSplineSet
EndChar

StartChar: parenright
Encoding: 41 41 12
Width: 345
GlyphClass: 2
Flags: W
LayerCount: 2
Fore
SplineSet
145 248 m 128,-1,1
 145 356 145 356 112.5 437.5 c 128,-1,2
 80 519 80 519 10 632 c 1,3,-1
 105 688 l 1,4,5
 190 594 190 594 247.5 477 c 128,-1,6
 305 360 305 360 305 248 c 128,-1,7
 305 136 305 136 247.5 19 c 128,-1,8
 190 -98 190 -98 105 -192 c 1,9,-1
 10 -136 l 1,10,11
 80 -23 80 -23 112.5 58.5 c 128,-1,0
 145 140 145 140 145 248 c 128,-1,1
EndSplineSet
EndChar

StartChar: asterisk
Encoding: 42 42 13
Width: 452
GlyphClass: 2
Flags: W
LayerCount: 2
Fore
SplineSet
363 494 m 2,0,1
 389 494 389 494 410.5 474.5 c 128,-1,2
 432 455 432 455 432 418.5 c 128,-1,3
 432 382 432 382 411 362.5 c 128,-1,4
 390 343 390 343 363.5 343 c 128,-1,5
 337 343 337 343 292 374 c 2,6,-1
 263 394 l 1,7,-1
 263 320 l 2,8,9
 263 294 263 294 243.5 272.5 c 128,-1,10
 224 251 224 251 187.5 251 c 128,-1,11
 151 251 151 251 131.5 272 c 128,-1,12
 112 293 112 293 112 319.5 c 128,-1,13
 112 346 112 346 143 391 c 2,14,-1
 162 419 l 1,15,-1
 89 419 l 2,16,17
 63 419 63 419 41.5 438.5 c 128,-1,18
 20 458 20 458 20 494.5 c 128,-1,19
 20 531 20 531 41 550.5 c 128,-1,20
 62 570 62 570 88.5 570 c 128,-1,21
 115 570 115 570 160 539 c 2,22,-1
 188 520 l 1,23,-1
 188 594 l 2,24,25
 188 620 188 620 207.5 641.5 c 128,-1,26
 227 663 227 663 263.5 663 c 128,-1,27
 300 663 300 663 319.5 642 c 128,-1,28
 339 621 339 621 339 594.5 c 128,-1,29
 339 568 339 568 308 523 c 2,30,-1
 288 494 l 1,31,-1
 363 494 l 2,0,1
EndSplineSet
EndChar

StartChar: plus
Encoding: 43 43 14
Width: 415
GlyphClass: 2
Flags: W
LayerCount: 2
Fore
SplineSet
30 247 m 1,0,-1
 30 345 l 1,1,-1
 153 345 l 1,2,-1
 153 474 l 1,3,-1
 261 474 l 1,4,-1
 261 345 l 1,5,-1
 385 345 l 1,6,-1
 385 247 l 1,7,-1
 261 247 l 1,8,-1
 261 119 l 1,9,-1
 153 119 l 1,10,-1
 153 247 l 1,11,-1
 30 247 l 1,0,-1
EndSplineSet
EndChar

StartChar: comma
Encoding: 44 44 15
Width: 191
GlyphClass: 2
Flags: W
LayerCount: 2
Fore
SplineSet
20 -75 m 1,0,-1
 20 62 l 2,1,2
 20 88 20 88 39.5 109.5 c 128,-1,3
 59 131 59 131 95.5 131 c 128,-1,4
 132 131 132 131 151.5 110 c 128,-1,5
 171 89 171 89 171 62.5 c 128,-1,6
 171 36 171 36 140 -9 c 2,7,-1
 95 -75 l 1,8,-1
 20 -75 l 1,0,-1
EndSplineSet
EndChar

StartChar: hyphen
Encoding: 45 45 16
Width: 315
GlyphClass: 2
Flags: W
LayerCount: 2
Fore
SplineSet
30 247 m 1,0,-1
 30 345 l 1,1,-1
 285 345 l 1,2,-1
 285 247 l 1,3,-1
 30 247 l 1,0,-1
EndSplineSet
EndChar

StartChar: period
Encoding: 46 46 17
Width: 192
GlyphClass: 2
Flags: W
LayerCount: 2
Fore
SplineSet
96 134 m 128,-1,1
 134 134 134 134 153 113.5 c 128,-1,2
 172 93 172 93 172 62 c 128,-1,3
 172 31 172 31 153 10.5 c 128,-1,4
 134 -10 134 -10 96 -10 c 128,-1,5
 58 -10 58 -10 39 10.5 c 128,-1,6
 20 31 20 31 20 62 c 128,-1,7
 20 93 20 93 39 113.5 c 128,-1,0
 58 134 58 134 96 134 c 128,-1,1
EndSplineSet
EndChar

StartChar: slash
Encoding: 47 47 18
Width: 398
GlyphClass: 2
Flags: W
LayerCount: 2
Fore
SplineSet
0 -87 m 1,0,-1
 251 663 l 1,1,-1
 398 663 l 1,2,-1
 144 -87 l 1,3,-1
 0 -87 l 1,0,-1
EndSplineSet
EndChar

StartChar: zero
Encoding: 48 48 19
Width: 656
GlyphClass: 2
Flags: W
LayerCount: 2
Fore
SplineSet
328 492 m 128,-1,1
 286 492 286 492 271.5 446 c 128,-1,2
 257 400 257 400 257 304 c 0,3,4
 257 119 257 119 328 119 c 128,-1,5
 399 119 399 119 399 304 c 0,6,7
 399 400 399 400 384.5 446 c 128,-1,0
 370 492 370 492 328 492 c 128,-1,1
328 -10 m 128,-1,9
 200 -10 200 -10 110 73.5 c 128,-1,10
 20 157 20 157 20 302 c 128,-1,11
 20 447 20 447 103 533.5 c 128,-1,12
 186 620 186 620 328 620 c 128,-1,13
 470 620 470 620 553 533.5 c 128,-1,14
 636 447 636 447 636 302 c 128,-1,15
 636 157 636 157 546 73.5 c 128,-1,8
 456 -10 456 -10 328 -10 c 128,-1,9
EndSplineSet
EndChar

StartChar: one
Encoding: 49 49 20
Width: 462
GlyphClass: 2
Flags: W
LayerCount: 2
Fore
SplineSet
174 0 m 1,0,-1
 113 478 l 1,1,-1
 28 495 l 1,2,-1
 20 606 l 1,3,-1
 422 606 l 1,4,-1
 359 0 l 1,5,-1
 174 0 l 1,0,-1
EndSplineSet
EndChar

StartChar: two
Encoding: 50 50 21
Width: 559
GlyphClass: 2
Flags: W
LayerCount: 2
Fore
SplineSet
529 0 m 1,0,-1
 30 0 l 1,1,-1
 30 97 l 1,2,3
 39 107 39 107 79 148 c 128,-1,4
 119 189 119 189 139.5 212.5 c 128,-1,5
 160 236 160 236 190 272 c 1,6,7
 247 344 247 344 247 394 c 0,8,9
 247 469 247 469 173 469 c 0,10,11
 130 469 130 469 80 448 c 1,12,-1
 52 558 l 1,13,14
 94 583 94 583 158.5 601.5 c 128,-1,15
 223 620 223 620 271.5 620 c 128,-1,16
 320 620 320 620 360.5 611 c 128,-1,17
 401 602 401 602 438.5 582 c 128,-1,18
 476 562 476 562 498 524.5 c 128,-1,19
 520 487 520 487 520 437 c 0,20,21
 519 290 519 290 286 150 c 1,22,-1
 292 136 l 1,23,-1
 529 185 l 1,24,-1
 529 0 l 1,0,-1
EndSplineSet
EndChar

StartChar: three
Encoding: 51 51 22
Width: 530
GlyphClass: 2
Flags: W
LayerCount: 2
Fore
SplineSet
253 220 m 0,0,1
 253 315 253 315 106 315 c 2,2,-1
 88 315 l 1,3,-1
 173 468 l 1,4,-1
 28 495 l 1,5,-1
 60 606 l 1,6,-1
 485 606 l 1,7,-1
 371 410 l 1,8,9
 376 408 376 408 385 404.5 c 128,-1,10
 394 401 394 401 416 386.5 c 128,-1,11
 438 372 438 372 455 352.5 c 128,-1,12
 472 333 472 333 486 298.5 c 128,-1,13
 500 264 500 264 500 223 c 0,14,15
 500 123 500 123 422 56.5 c 128,-1,16
 344 -10 344 -10 234 -10 c 0,17,18
 178 -10 178 -10 124.5 8.5 c 128,-1,19
 71 27 71 27 46 46 c 1,20,-1
 20 64 l 1,21,-1
 68 160 l 1,22,23
 116 133 116 133 160 133 c 128,-1,24
 204 133 204 133 228.5 155 c 128,-1,25
 253 177 253 177 253 220 c 0,0,1
EndSplineSet
EndChar

StartChar: four
Encoding: 52 52 23
Width: 592
GlyphClass: 2
Flags: W
LayerCount: 2
Fore
SplineSet
170 606 m 1,0,-1
 539 606 l 1,1,-1
 508 295 l 1,2,-1
 572 295 l 1,3,-1
 554 152 l 1,4,-1
 493 152 l 1,5,-1
 478 0 l 1,6,-1
 304 0 l 1,7,-1
 289 152 l 1,8,-1
 20 152 l 1,9,-1
 28 295 l 1,10,-1
 170 606 l 1,0,-1
258 462 m 1,11,-1
 180 295 l 1,12,-1
 274 295 l 1,13,-1
 258 462 l 1,11,-1
EndSplineSet
EndChar

StartChar: five
Encoding: 53 53 24
Width: 526
GlyphClass: 2
Flags: W
LayerCount: 2
Fore
SplineSet
506 213 m 0,0,1
 506 112 506 112 427.5 51 c 128,-1,2
 349 -10 349 -10 241 -10 c 0,3,4
 187 -10 187 -10 134 8 c 128,-1,5
 81 26 81 26 56 44 c 2,6,-1
 30 62 l 1,7,-1
 78 160 l 1,8,9
 129 137 129 137 167 137 c 128,-1,10
 205 137 205 137 226.5 158.5 c 128,-1,11
 248 180 248 180 248 216.5 c 128,-1,12
 248 253 248 253 227.5 278 c 128,-1,13
 207 303 207 303 178 316 c 1,14,15
 119 345 119 345 72 350 c 1,16,-1
 51 353 l 1,17,-1
 124 606 l 1,18,-1
 503 606 l 1,19,-1
 471 495 l 1,20,-1
 318 441 l 1,21,-1
 318 430 l 1,22,23
 403 403 403 403 454 348 c 0,24,25
 475 326 475 326 490.5 290 c 128,-1,26
 506 254 506 254 506 213 c 0,0,1
EndSplineSet
EndChar

StartChar: six
Encoding: 54 54 25
Width: 637
GlyphClass: 2
Flags: W
LayerCount: 2
Fore
SplineSet
402 247.5 m 128,-1,1
 384 264 384 264 357 264 c 128,-1,2
 330 264 330 264 306.5 252 c 128,-1,3
 283 240 283 240 273 218 c 1,4,5
 273 192 273 192 296 170.5 c 128,-1,6
 319 149 319 149 350.5 149 c 128,-1,7
 382 149 382 149 401 163 c 128,-1,8
 420 177 420 177 420 204 c 128,-1,0
 420 231 420 231 402 247.5 c 128,-1,1
525 451 m 1,9,10
 460 477 460 477 399.5 477 c 128,-1,11
 339 477 339 477 300 442 c 128,-1,12
 261 407 261 407 261 355 c 1,13,14
 265 361 265 361 273 370 c 128,-1,15
 281 379 281 379 314.5 394 c 128,-1,16
 348 409 348 409 390 409 c 0,17,18
 492 409 492 409 554.5 355 c 128,-1,19
 617 301 617 301 617 207.5 c 128,-1,20
 617 114 617 114 543.5 52 c 128,-1,21
 470 -10 470 -10 337.5 -10 c 128,-1,22
 205 -10 205 -10 117.5 67.5 c 128,-1,23
 30 145 30 145 30 297.5 c 128,-1,24
 30 450 30 450 119 535 c 128,-1,25
 208 620 208 620 332 620 c 128,-1,26
 456 620 456 620 564 557 c 1,27,-1
 525 451 l 1,9,10
EndSplineSet
EndChar

StartChar: seven
Encoding: 55 55 26
Width: 472
GlyphClass: 2
Flags: W
LayerCount: 2
Fore
SplineSet
473 606 m 1,0,-1
 473 439 l 1,1,-1
 251 0 l 1,2,-1
 56 0 l 1,3,-1
 200 441 l 1,4,-1
 14 411 l 1,5,-1
 4 606 l 1,6,-1
 473 606 l 1,0,-1
EndSplineSet
EndChar

StartChar: eight
Encoding: 56 56 27
Width: 591
GlyphClass: 2
Flags: W
LayerCount: 2
Fore
SplineSet
153 305 m 1,0,1
 55 388 55 388 55 463 c 128,-1,2
 55 538 55 538 120.5 579 c 128,-1,3
 186 620 186 620 306.5 620 c 128,-1,4
 427 620 427 620 490 583.5 c 128,-1,5
 553 547 553 547 553 481 c 0,6,7
 553 439 553 439 529 405.5 c 128,-1,8
 505 372 505 372 451 339 c 1,9,10
 575 261 575 261 575 175 c 128,-1,11
 575 89 575 89 498.5 39.5 c 128,-1,12
 422 -10 422 -10 295.5 -10 c 128,-1,13
 169 -10 169 -10 98.5 31.5 c 128,-1,14
 28 73 28 73 28 157.5 c 128,-1,15
 28 242 28 242 153 305 c 1,0,1
174 167 m 0,16,17
 174 141 174 141 194 124.5 c 128,-1,18
 214 108 214 108 242 108 c 128,-1,19
 270 108 270 108 286.5 125 c 128,-1,20
 303 142 303 142 303 161.5 c 128,-1,21
 303 181 303 181 288 196.5 c 128,-1,22
 273 212 273 212 239 236 c 1,23,24
 174 201 174 201 174 167 c 0,16,17
410 457 m 0,25,26
 410 503 410 503 357 503 c 0,27,28
 331 503 331 503 317 490 c 128,-1,29
 303 477 303 477 303 454.5 c 128,-1,30
 303 432 303 432 354 396 c 1,31,32
 410 424 410 424 410 457 c 0,25,26
EndSplineSet
EndChar

StartChar: nine
Encoding: 57 57 28
Width: 637
GlyphClass: 2
Flags: W
LayerCount: 2
Fore
SplineSet
235 362.5 m 128,-1,1
 253 346 253 346 280 346 c 128,-1,2
 307 346 307 346 330.5 358 c 128,-1,3
 354 370 354 370 364 392 c 1,4,5
 364 418 364 418 341 439.5 c 128,-1,6
 318 461 318 461 286.5 461 c 128,-1,7
 255 461 255 461 236 447 c 128,-1,8
 217 433 217 433 217 406 c 128,-1,0
 217 379 217 379 235 362.5 c 128,-1,1
112 159 m 1,9,10
 177 133 177 133 237.5 133 c 128,-1,11
 298 133 298 133 337 168 c 128,-1,12
 376 203 376 203 376 255 c 1,13,14
 372 249 372 249 364 240 c 128,-1,15
 356 231 356 231 322.5 216 c 128,-1,16
 289 201 289 201 247 201 c 0,17,18
 145 201 145 201 82.5 255 c 128,-1,19
 20 309 20 309 20 402.5 c 128,-1,20
 20 496 20 496 93.5 558 c 128,-1,21
 167 620 167 620 299.5 620 c 128,-1,22
 432 620 432 620 519.5 542.5 c 128,-1,23
 607 465 607 465 607 312.5 c 128,-1,24
 607 160 607 160 518 75 c 128,-1,25
 429 -10 429 -10 305 -10 c 128,-1,26
 181 -10 181 -10 73 53 c 1,27,-1
 112 159 l 1,9,10
EndSplineSet
EndChar

StartChar: colon
Encoding: 58 58 29
Width: 191
GlyphClass: 2
Flags: W
LayerCount: 2
Fore
SplineSet
95 134 m 128,-1,1
 133 134 133 134 152 113.5 c 128,-1,2
 171 93 171 93 171 62 c 128,-1,3
 171 31 171 31 152 10.5 c 128,-1,4
 133 -10 133 -10 95 -10 c 128,-1,5
 57 -10 57 -10 38 10.5 c 128,-1,6
 19 31 19 31 19 62 c 128,-1,7
 19 93 19 93 38 113.5 c 128,-1,0
 57 134 57 134 95 134 c 128,-1,1
95 488 m 128,-1,9
 133 488 133 488 152 467.5 c 128,-1,10
 171 447 171 447 171 416 c 128,-1,11
 171 385 171 385 152 364.5 c 128,-1,12
 133 344 133 344 95 344 c 128,-1,13
 57 344 57 344 38 364.5 c 128,-1,14
 19 385 19 385 19 416 c 128,-1,15
 19 447 19 447 38 467.5 c 128,-1,8
 57 488 57 488 95 488 c 128,-1,9
EndSplineSet
EndChar

StartChar: semicolon
Encoding: 59 59 30
Width: 191
GlyphClass: 2
Flags: W
LayerCount: 2
Fore
SplineSet
95 439 m 128,-1,1
 133 439 133 439 152 418.5 c 128,-1,2
 171 398 171 398 171 367 c 128,-1,3
 171 336 171 336 152 315.5 c 128,-1,4
 133 295 133 295 95 295 c 128,-1,5
 57 295 57 295 38 315.5 c 128,-1,6
 19 336 19 336 19 367 c 128,-1,7
 19 398 19 398 38 418.5 c 128,-1,0
 57 439 57 439 95 439 c 128,-1,1
20 -75 m 1,8,-1
 20 62 l 2,9,10
 20 88 20 88 39.5 109.5 c 128,-1,11
 59 131 59 131 95.5 131 c 128,-1,12
 132 131 132 131 151.5 110 c 128,-1,13
 171 89 171 89 171 62.5 c 128,-1,14
 171 36 171 36 140 -9 c 2,15,-1
 95 -75 l 1,16,-1
 20 -75 l 1,8,-1
EndSplineSet
EndChar

StartChar: less
Encoding: 60 60 31
Width: 478
GlyphClass: 2
Flags: W
LayerCount: 2
Fore
SplineSet
30 247 m 1,0,-1
 30 345 l 1,1,-1
 438 488 l 1,2,-1
 438 390 l 1,3,-1
 170 296 l 1,4,-1
 438 202 l 1,5,-1
 438 104 l 1,6,-1
 30 247 l 1,0,-1
EndSplineSet
EndChar

StartChar: equal
Encoding: 61 61 32
Width: 455
GlyphClass: 2
Flags: W
LayerCount: 2
Fore
SplineSet
50 165 m 1,0,-1
 50 263 l 1,1,-1
 405 263 l 1,2,-1
 405 165 l 1,3,-1
 50 165 l 1,0,-1
50 329 m 1,4,-1
 50 427 l 1,5,-1
 405 427 l 1,6,-1
 405 329 l 1,7,-1
 50 329 l 1,4,-1
EndSplineSet
EndChar

StartChar: greater
Encoding: 62 62 33
Width: 478
GlyphClass: 2
Flags: W
LayerCount: 2
Fore
SplineSet
448 345 m 1,0,-1
 448 247 l 1,1,-1
 40 104 l 1,2,-1
 40 202 l 1,3,-1
 308 296 l 1,4,-1
 40 390 l 1,5,-1
 40 488 l 1,6,-1
 448 345 l 1,0,-1
EndSplineSet
EndChar

StartChar: question
Encoding: 63 63 34
Width: 476
GlyphClass: 2
Flags: W
LayerCount: 2
Fore
SplineSet
129 484 m 0,0,1
 84 484 84 484 35 451 c 1,2,-1
 7 561 l 1,3,4
 92 624 92 624 210 624 c 0,5,6
 288 624 288 624 342 588 c 0,7,8
 419 537 419 537 419 461 c 0,9,10
 419 426 419 426 402 386 c 0,11,12
 375 324 375 324 304 277 c 1,13,-1
 265 159 l 1,14,15
 243 173 243 173 211 173 c 128,-1,16
 179 173 179 173 147 159 c 1,17,-1
 106 278 l 1,18,19
 148 314 148 314 172 348.5 c 128,-1,20
 196 383 196 383 198 400 c 1,21,-1
 201 416 l 1,22,23
 200 454 200 454 177.5 469 c 128,-1,24
 155 484 155 484 129 484 c 0,0,1
208 134 m 128,-1,26
 246 134 246 134 265 113.5 c 128,-1,27
 284 93 284 93 284 62 c 128,-1,28
 284 31 284 31 265 10.5 c 128,-1,29
 246 -10 246 -10 208 -10 c 128,-1,30
 170 -10 170 -10 151 10.5 c 128,-1,31
 132 31 132 31 132 62 c 128,-1,32
 132 93 132 93 151 113.5 c 128,-1,25
 170 134 170 134 208 134 c 128,-1,26
EndSplineSet
EndChar

StartChar: at
Encoding: 64 64 35
Width: 863
GlyphClass: 2
Flags: W
LayerCount: 2
Fore
SplineSet
432 -155 m 1,0,1
 244 -155 244 -155 147 -53 c 128,-1,2
 50 49 50 49 50 204 c 0,3,4
 50 327 50 327 142 432 c 0,5,6
 186 483 186 483 261.5 514.5 c 128,-1,7
 337 546 337 546 432 546 c 128,-1,8
 527 546 527 546 603 514.5 c 128,-1,9
 679 483 679 483 723 432 c 0,10,11
 813 326 813 326 813 204 c 0,12,13
 813 109 813 109 760.5 54 c 128,-1,14
 708 -1 708 -1 636 -1 c 0,15,16
 548 -1 548 -1 487 76 c 1,17,18
 481 69 481 69 470.5 59.5 c 128,-1,19
 460 50 460 50 423 33.5 c 128,-1,20
 386 17 386 17 335.5 17 c 128,-1,21
 285 17 285 17 246 51.5 c 128,-1,22
 207 86 207 86 207 145.5 c 128,-1,23
 207 205 207 205 249 236.5 c 128,-1,24
 291 268 291 268 356 268 c 0,25,26
 392 268 392 268 421.5 260 c 128,-1,27
 451 252 451 252 462 244 c 1,28,-1
 474 237 l 1,29,30
 471 285 471 285 445 302.5 c 128,-1,31
 419 320 419 320 370 320 c 0,32,33
 344 320 344 320 314 314 c 2,34,-1
 304 312 l 1,35,-1
 294 372 l 1,36,-1
 310 378 l 2,37,38
 363 398 363 398 430 398 c 0,39,40
 639 398 639 398 639 223 c 0,41,42
 639 143 639 143 646 120 c 128,-1,43
 653 97 653 97 673 97 c 0,44,45
 703 97 703 97 719 127 c 128,-1,46
 735 157 735 157 735 202.5 c 128,-1,47
 735 248 735 248 716.5 294.5 c 128,-1,48
 698 341 698 341 662.5 381.5 c 128,-1,49
 627 422 627 422 567 447 c 128,-1,50
 507 472 507 472 432.5 472 c 128,-1,51
 358 472 358 472 298 447 c 128,-1,52
 238 422 238 422 202 382 c 0,53,54
 130 299 130 299 130 201 c 0,55,56
 130 78 130 78 207 -2 c 128,-1,57
 284 -82 284 -82 432 -82 c 1,58,-1
 432 -155 l 1,0,1
413 111 m 0,59,60
 454 111 454 111 478 139 c 1,61,-1
 477 174 l 1,62,63
 456 195 456 195 429.5 195 c 128,-1,64
 403 195 403 195 387.5 183 c 128,-1,65
 372 171 372 171 372 154.5 c 128,-1,66
 372 138 372 138 384 124.5 c 128,-1,67
 396 111 396 111 413 111 c 0,59,60
EndSplineSet
EndChar

StartChar: A
Encoding: 65 65 36
Width: 694
GlyphClass: 2
Flags: W
LayerCount: 2
Fore
SplineSet
485 0 m 1,0,-1
 445 101 l 1,1,-1
 190 101 l 1,2,-1
 152 0 l 1,3,-1
 10 0 l 1,4,-1
 179 606 l 1,5,-1
 535 606 l 1,6,-1
 704 0 l 1,7,-1
 485 0 l 1,0,-1
394 231 m 1,8,-1
 315 431 l 1,9,-1
 239 231 l 1,10,-1
 394 231 l 1,8,-1
EndSplineSet
EndChar

StartChar: B
Encoding: 66 66 37
Width: 680
GlyphClass: 2
Flags: W
LayerCount: 2
Fore
SplineSet
456 606 m 2,0,1
 649 606 649 606 649 463 c 0,2,3
 649 432 649 432 636.5 406.5 c 128,-1,4
 624 381 624 381 608 366.5 c 128,-1,5
 592 352 592 352 572 342 c 0,6,7
 541 327 541 327 523 324 c 1,8,9
 544 319 544 319 571.5 304.5 c 128,-1,10
 599 290 599 290 616 274.5 c 128,-1,11
 633 259 633 259 646.5 231.5 c 128,-1,12
 660 204 660 204 660 171 c 0,13,14
 660 80 660 80 593 40 c 128,-1,15
 526 0 526 0 380 0 c 2,16,-1
 76 0 l 1,17,-1
 25 606 l 1,18,-1
 456 606 l 2,0,1
353 249 m 2,19,-1
 305 249 l 1,20,-1
 290 101 l 1,21,-1
 327 101 l 2,22,23
 368 101 368 101 393 123 c 128,-1,24
 418 145 418 145 418 181 c 128,-1,25
 418 217 418 217 399 233 c 128,-1,26
 380 249 380 249 353 249 c 2,19,-1
344 365 m 2,27,28
 379 365 379 365 403 385 c 128,-1,29
 427 405 427 405 427 438 c 0,30,31
 427 503 427 503 352 503 c 2,32,-1
 330 503 l 1,33,-1
 316 365 l 1,34,-1
 344 365 l 2,27,28
EndSplineSet
EndChar

StartChar: C
Encoding: 67 67 38
Width: 588
GlyphClass: 2
Flags: W
LayerCount: 2
Fore
SplineSet
338 620 m 0,0,1
 396 620 396 620 463.5 599 c 128,-1,2
 531 578 531 578 574 546 c 1,3,-1
 532 457 l 1,4,5
 488 474 488 474 435 474 c 0,6,7
 287 474 287 474 287 302 c 0,8,9
 287 219 287 219 327.5 172.5 c 128,-1,10
 368 126 368 126 425.5 126 c 128,-1,11
 483 126 483 126 533 150 c 1,12,-1
 578 64 l 1,13,14
 477 -10 477 -10 337 -10 c 128,-1,15
 197 -10 197 -10 108.5 72 c 128,-1,16
 20 154 20 154 20 307.5 c 128,-1,17
 20 461 20 461 107 540.5 c 128,-1,18
 194 620 194 620 338 620 c 0,0,1
EndSplineSet
EndChar

StartChar: D
Encoding: 68 68 39
Width: 691
GlyphClass: 2
Flags: W
LayerCount: 2
Fore
SplineSet
285 101 m 2,0,1
 354 101 354 101 392 174 c 128,-1,2
 430 247 430 247 430 327.5 c 128,-1,3
 430 408 430 408 401 456 c 128,-1,4
 372 504 372 504 326 504 c 2,5,-1
 320 504 l 1,6,-1
 279 101 l 1,7,-1
 285 101 l 2,0,1
281 0 m 2,8,-1
 85 0 l 1,9,-1
 25 606 l 1,10,-1
 320 606 l 2,11,12
 543 606 543 606 627 484 c 0,13,14
 671 419 671 419 671 330 c 0,15,16
 671 0 671 0 281 0 c 2,8,-1
EndSplineSet
EndChar

StartChar: E
Encoding: 69 69 40
Width: 562
GlyphClass: 2
Flags: W
LayerCount: 2
Fore
SplineSet
324 233 m 2,0,1
 324 172 324 172 344 150.5 c 128,-1,2
 364 129 364 129 394 129 c 0,3,4
 441 129 441 129 489 145 c 2,5,-1
 504 150 l 1,6,-1
 547 64 l 1,7,8
 538 56 538 56 520 43.5 c 128,-1,9
 502 31 502 31 439.5 10.5 c 128,-1,10
 377 -10 377 -10 310.5 -10 c 128,-1,11
 244 -10 244 -10 199 9 c 128,-1,12
 154 28 154 28 130 53.5 c 128,-1,13
 106 79 106 79 91 121.5 c 128,-1,14
 76 164 76 164 71.5 194 c 128,-1,15
 67 224 67 224 64 269 c 2,16,-1
 40 606 l 1,17,-1
 490 606 l 1,18,-1
 518 486 l 1,19,-1
 348 471 l 1,20,-1
 338 374 l 1,21,-1
 472 374 l 1,22,-1
 492 280 l 1,23,-1
 324 238 l 1,24,-1
 324 233 l 2,0,1
EndSplineSet
EndChar

StartChar: F
Encoding: 70 70 41
Width: 531
GlyphClass: 2
Flags: W
LayerCount: 2
Fore
SplineSet
472 378 m 1,0,-1
 472 285 l 1,1,-1
 304 243 l 1,2,-1
 280 0 l 1,3,-1
 85 0 l 1,4,-1
 25 606 l 1,5,-1
 485 606 l 1,6,-1
 516 482 l 1,7,-1
 327 470 l 1,8,-1
 317 378 l 1,9,-1
 472 378 l 1,0,-1
EndSplineSet
EndChar

StartChar: G
Encoding: 71 71 42
Width: 660
GlyphClass: 2
Flags: W
LayerCount: 2
Fore
SplineSet
640 320 m 1,0,-1
 640 85 l 1,1,2
 627 72 627 72 596 54 c 128,-1,3
 565 36 565 36 534 24 c 0,4,5
 453 -10 453 -10 354 -10 c 0,6,7
 189 -10 189 -10 104.5 70.5 c 128,-1,8
 20 151 20 151 20 304 c 128,-1,9
 20 457 20 457 106.5 538.5 c 128,-1,10
 193 620 193 620 347 620 c 0,11,12
 467 620 467 620 566 570 c 0,13,14
 589 559 589 559 600 551 c 2,15,-1
 610 543 l 1,16,-1
 566 454 l 1,17,18
 519 474 519 474 454 474 c 0,19,20
 288 474 288 474 288 302 c 0,21,22
 288 213 288 213 326 163 c 128,-1,23
 364 113 364 113 426 113 c 0,24,25
 451 113 451 113 475 123 c 1,26,-1
 452 219 l 1,27,-1
 378 219 l 1,28,-1
 398 320 l 1,29,-1
 640 320 l 1,0,-1
EndSplineSet
EndChar

StartChar: H
Encoding: 72 72 43
Width: 792
GlyphClass: 2
Flags: W
LayerCount: 2
Fore
SplineSet
507 0 m 1,0,-1
 484 230 l 1,1,-1
 306 214 l 1,2,-1
 285 0 l 1,3,-1
 90 0 l 1,4,-1
 30 606 l 1,5,-1
 345 606 l 1,6,-1
 322 375 l 1,7,-1
 470 375 l 1,8,-1
 447 606 l 1,9,-1
 762 606 l 1,10,-1
 702 0 l 1,11,-1
 507 0 l 1,0,-1
EndSplineSet
EndChar

StartChar: I
Encoding: 73 73 44
Width: 365
GlyphClass: 2
Flags: W
LayerCount: 2
Fore
SplineSet
85 0 m 1,0,-1
 25 606 l 1,1,-1
 340 606 l 1,2,-1
 280 0 l 1,3,-1
 85 0 l 1,0,-1
EndSplineSet
EndChar

StartChar: J
Encoding: 74 74 45
Width: 508
GlyphClass: 2
Flags: W
LayerCount: 2
Fore
SplineSet
222 -10 m 0,0,1
 162 -10 162 -10 106.5 10 c 128,-1,2
 51 30 51 30 26 50 c 2,3,-1
 0 70 l 1,4,-1
 43 156 l 1,5,6
 96 129 96 129 137 129 c 0,7,8
 210 129 210 129 210 200 c 0,9,10
 210 211 210 211 181 471 c 1,11,-1
 43 488 l 1,12,-1
 72 606 l 1,13,-1
 483 606 l 1,14,-1
 444 205 l 2,15,16
 423 -10 423 -10 222 -10 c 0,0,1
EndSplineSet
EndChar

StartChar: K
Encoding: 75 75 46
Width: 684
GlyphClass: 2
Flags: W
LayerCount: 2
Fore
SplineSet
299 193 m 1,0,-1
 280 0 l 1,1,-1
 85 0 l 1,2,-1
 25 606 l 1,3,-1
 340 606 l 1,4,-1
 322 426 l 1,5,-1
 485 606 l 1,6,-1
 660 606 l 1,7,-1
 491 347 l 1,8,-1
 694 0 l 1,9,-1
 498 0 l 1,10,11
 358 135 358 135 299 193 c 1,0,-1
EndSplineSet
EndChar

StartChar: L
Encoding: 76 76 47
Width: 491
GlyphClass: 2
Flags: W
LayerCount: 2
Fore
SplineSet
80 0 m 1,0,-1
 20 606 l 1,1,-1
 335 606 l 1,2,-1
 290 155 l 1,3,-1
 471 165 l 1,4,-1
 414 0 l 1,5,-1
 80 0 l 1,0,-1
EndSplineSet
EndChar

StartChar: M
Encoding: 77 77 48
Width: 990
GlyphClass: 2
Flags: W
LayerCount: 2
Fore
SplineSet
75 0 m 1,0,-1
 25 606 l 1,1,-1
 399 606 l 1,2,-1
 512 309 l 1,3,-1
 625 606 l 1,4,-1
 965 606 l 1,5,-1
 915 0 l 1,6,-1
 710 0 l 1,7,-1
 674 361 l 1,8,-1
 536 0 l 1,9,-1
 374 0 l 1,10,-1
 236 361 l 1,11,-1
 206 0 l 1,12,-1
 75 0 l 1,0,-1
EndSplineSet
EndChar

StartChar: N
Encoding: 78 78 49
Width: 775
GlyphClass: 2
Flags: W
LayerCount: 2
Fore
SplineSet
370 606 m 1,0,-1
 547 253 l 1,1,-1
 519 606 l 1,2,-1
 750 606 l 1,3,-1
 700 0 l 1,4,-1
 407 0 l 1,5,-1
 239 330 l 1,6,-1
 206 0 l 1,7,-1
 75 0 l 1,8,-1
 25 606 l 1,9,-1
 370 606 l 1,0,-1
EndSplineSet
EndChar

StartChar: O
Encoding: 79 79 50
Width: 747
GlyphClass: 2
Flags: W
LayerCount: 2
Fore
SplineSet
111.5 538 m 128,-1,1
 203 620 203 620 373.5 620 c 128,-1,2
 544 620 544 620 635.5 538 c 128,-1,3
 727 456 727 456 727 299 c 128,-1,4
 727 142 727 142 630.5 66 c 128,-1,5
 534 -10 534 -10 373.5 -10 c 128,-1,6
 213 -10 213 -10 116.5 66 c 128,-1,7
 20 142 20 142 20 299 c 128,-1,0
 20 456 20 456 111.5 538 c 128,-1,1
373.5 505 m 128,-1,9
 286 505 286 505 286 303 c 128,-1,10
 286 101 286 101 373.5 101 c 128,-1,11
 461 101 461 101 461 303 c 128,-1,8
 461 505 461 505 373.5 505 c 128,-1,9
EndSplineSet
EndChar

StartChar: P
Encoding: 80 80 51
Width: 712
GlyphClass: 2
Flags: W
LayerCount: 2
Fore
SplineSet
358 303 m 2,0,1
 404 303 404 303 431 331 c 128,-1,2
 458 359 458 359 458 399.5 c 128,-1,3
 458 440 458 440 432.5 460.5 c 128,-1,4
 407 481 407 481 367 481 c 2,5,-1
 327 481 l 1,6,-1
 310 303 l 1,7,-1
 358 303 l 2,0,1
421 175 m 2,8,-1
 297 175 l 1,9,-1
 280 0 l 1,10,-1
 85 0 l 1,11,-1
 25 606 l 1,12,-1
 471 606 l 2,13,14
 576 606 576 606 641.5 552.5 c 128,-1,15
 707 499 707 499 707 399 c 0,16,17
 707 338 707 338 682.5 293 c 128,-1,18
 658 248 658 248 616 223 c 0,19,20
 535 175 535 175 421 175 c 2,8,-1
EndSplineSet
EndChar

StartChar: Q
Encoding: 81 81 52
Width: 747
GlyphClass: 2
Flags: W
LayerCount: 2
Fore
SplineSet
111.5 538 m 128,-1,1
 203 620 203 620 373.5 620 c 128,-1,2
 544 620 544 620 635.5 538 c 128,-1,3
 727 456 727 456 727 312 c 128,-1,4
 727 168 727 168 658 92.5 c 128,-1,5
 589 17 589 17 470 -2 c 1,6,7
 486 -35 486 -35 535.5 -35 c 128,-1,8
 585 -35 585 -35 644 7 c 1,9,-1
 687 -79 l 1,10,11
 602 -153 602 -153 492 -153 c 0,12,13
 416 -153 416 -153 354 -113.5 c 128,-1,14
 292 -74 292 -74 269 -1 c 1,15,16
 153 20 153 20 86.5 95 c 128,-1,17
 20 170 20 170 20 313 c 128,-1,0
 20 456 20 456 111.5 538 c 128,-1,1
373.5 505 m 128,-1,19
 286 505 286 505 286 303 c 128,-1,20
 286 101 286 101 373.5 101 c 128,-1,21
 461 101 461 101 461 303 c 128,-1,18
 461 505 461 505 373.5 505 c 128,-1,19
EndSplineSet
EndChar

StartChar: R
Encoding: 82 82 53
Width: 717
GlyphClass: 2
Flags: W
LayerCount: 2
Fore
SplineSet
358 303 m 2,0,1
 404 303 404 303 431 331 c 128,-1,2
 458 359 458 359 458 399.5 c 128,-1,3
 458 440 458 440 432.5 460.5 c 128,-1,4
 407 481 407 481 367 481 c 2,5,-1
 327 481 l 1,6,-1
 310 303 l 1,7,-1
 358 303 l 2,0,1
471 606 m 2,8,9
 578 606 578 606 642.5 555.5 c 128,-1,10
 707 505 707 505 707 406 c 0,11,12
 707 370 707 370 692 337.5 c 128,-1,13
 677 305 677 305 656 285 c 0,14,15
 612 245 612 245 575 228 c 1,16,-1
 560 222 l 1,17,-1
 668 0 l 1,18,-1
 493 0 l 1,19,-1
 299 195 l 1,20,-1
 280 0 l 1,21,-1
 85 0 l 1,22,-1
 25 606 l 1,23,-1
 471 606 l 2,8,9
EndSplineSet
EndChar

StartChar: S
Encoding: 83 83 54
Width: 552
GlyphClass: 2
Flags: W
LayerCount: 2
Fore
SplineSet
504.5 294 m 128,-1,1
 527 257 527 257 527 195.5 c 128,-1,2
 527 134 527 134 488 84 c 0,3,4
 416 -10 416 -10 269 -10 c 0,5,6
 205 -10 205 -10 142.5 8.5 c 128,-1,7
 80 27 80 27 50 46 c 2,8,-1
 20 64 l 1,9,-1
 63 150 l 1,10,11
 135 115 135 115 193 115 c 128,-1,12
 251 115 251 115 251 152 c 0,13,14
 251 173 251 173 228.5 191.5 c 128,-1,15
 206 210 206 210 173.5 227 c 128,-1,16
 141 244 141 244 108.5 266.5 c 128,-1,17
 76 289 76 289 53.5 329.5 c 128,-1,18
 31 370 31 370 31 424 c 0,19,20
 31 520 31 520 104.5 570 c 128,-1,21
 178 620 178 620 282 620 c 0,22,23
 344 620 344 620 398.5 605 c 128,-1,24
 453 590 453 590 476 575 c 2,25,-1
 500 560 l 1,26,-1
 461 475 l 1,27,28
 410 497 410 497 358.5 497 c 128,-1,29
 307 497 307 497 307 458 c 0,30,31
 307 437 307 437 329.5 420 c 128,-1,32
 352 403 352 403 384.5 387.5 c 128,-1,33
 417 372 417 372 449.5 351.5 c 128,-1,0
 482 331 482 331 504.5 294 c 128,-1,1
EndSplineSet
EndChar

StartChar: T
Encoding: 84 84 55
Width: 608
GlyphClass: 2
Flags: W
LayerCount: 2
Fore
SplineSet
588 606 m 1,0,-1
 608 416 l 1,1,-1
 447 448 l 1,2,-1
 402 0 l 1,3,-1
 207 0 l 1,4,-1
 162 448 l 1,5,-1
 0 416 l 1,6,-1
 20 606 l 1,7,-1
 588 606 l 1,0,-1
EndSplineSet
EndChar

StartChar: U
Encoding: 85 85 56
Width: 748
GlyphClass: 2
Flags: W
LayerCount: 2
Fore
SplineSet
374 -10 m 128,-1,1
 221 -10 221 -10 130.5 66 c 128,-1,2
 40 142 40 142 40 305 c 2,3,-1
 40 606 l 1,4,-1
 306 606 l 1,5,-1
 306 256 l 2,6,7
 306 139 306 139 336 114 c 1,8,9
 350 101 350 101 374 101 c 128,-1,10
 398 101 398 101 412.5 113.5 c 128,-1,11
 427 126 427 126 433 152 c 0,12,13
 442 192 442 192 442 256 c 2,14,-1
 442 606 l 1,15,-1
 708 606 l 1,16,-1
 708 305 l 2,17,18
 708 142 708 142 617.5 66 c 128,-1,0
 527 -10 527 -10 374 -10 c 128,-1,1
EndSplineSet
EndChar

StartChar: V
Encoding: 86 86 57
Width: 693
GlyphClass: 2
Flags: W
LayerCount: 2
Fore
SplineSet
483 606 m 1,0,-1
 663 606 l 1,1,2
 663 488 663 488 640.5 382 c 128,-1,3
 618 276 618 276 586 209 c 128,-1,4
 554 142 554 142 521.5 92.5 c 128,-1,5
 489 43 489 43 466 22 c 1,6,-1
 444 0 l 1,7,-1
 187 0 l 1,8,-1
 0 606 l 1,9,-1
 317 606 l 1,10,-1
 374 212 l 1,11,12
 444 299 444 299 471 459 c 0,13,14
 483 529 483 529 483 606 c 1,0,-1
EndSplineSet
EndChar

StartChar: W
Encoding: 87 87 58
Width: 1084
GlyphClass: 2
Flags: W
LayerCount: 2
Fore
SplineSet
873 606 m 1,0,-1
 1054 606 l 1,1,2
 1054 488 1054 488 1030.5 382 c 128,-1,3
 1007 276 1007 276 973.5 209 c 128,-1,4
 940 142 940 142 906 92.5 c 128,-1,5
 872 43 872 43 848 22 c 1,6,-1
 825 0 l 1,7,-1
 598 0 l 1,8,-1
 523 243 l 1,9,10
 509 196 509 196 479.5 135.5 c 128,-1,11
 450 75 450 75 427 38 c 2,12,-1
 404 0 l 1,13,-1
 187 0 l 1,14,-1
 0 606 l 1,15,-1
 317 606 l 1,16,-1
 374 212 l 1,17,18
 389 227 389 227 411.5 266.5 c 128,-1,19
 434 306 434 306 449.5 347.5 c 128,-1,20
 465 389 465 389 478.5 458.5 c 128,-1,21
 492 528 492 528 493 606 c 1,22,-1
 708 606 l 1,23,-1
 765 212 l 1,24,25
 835 300 835 300 862 458 c 0,26,27
 873 528 873 528 873 606 c 1,0,-1
EndSplineSet
EndChar

StartChar: X
Encoding: 88 88 59
Width: 671
GlyphClass: 2
Flags: W
LayerCount: 2
Fore
SplineSet
190 0 m 1,0,-1
 10 0 l 1,1,2
 10 206 10 206 178 331 c 1,3,-1
 34 606 l 1,4,-1
 342 606 l 1,5,-1
 420 456 l 1,6,7
 449 489 449 489 462.5 521.5 c 128,-1,8
 476 554 476 554 476 606 c 1,9,-1
 656 606 l 1,10,11
 656 500 656 500 613 420.5 c 128,-1,12
 570 341 570 341 508 290 c 1,13,-1
 661 0 l 1,14,-1
 353 0 l 1,15,-1
 261 174 l 1,16,17
 190 98 190 98 190 0 c 1,0,-1
EndSplineSet
EndChar

StartChar: Y
Encoding: 89 89 60
Width: 611
GlyphClass: 2
Flags: W
LayerCount: 2
Fore
SplineSet
208 0 m 1,0,-1
 182 259 l 1,1,-1
 -30 606 l 1,2,-1
 216 606 l 1,3,-1
 306 399 l 1,4,-1
 395 606 l 1,5,-1
 641 606 l 1,6,-1
 429 259 l 1,7,-1
 403 0 l 1,8,-1
 208 0 l 1,0,-1
EndSplineSet
EndChar

StartChar: Z
Encoding: 90 90 61
Width: 629
GlyphClass: 2
Flags: W
LayerCount: 2
Fore
SplineSet
40 0 m 1,0,-1
 40 107 l 1,1,-1
 264 445 l 1,2,-1
 58 398 l 1,3,-1
 78 606 l 1,4,-1
 599 606 l 1,5,-1
 599 497 l 1,6,-1
 306 143 l 1,7,-1
 619 203 l 1,8,-1
 599 0 l 1,9,-1
 40 0 l 1,0,-1
EndSplineSet
EndChar

StartChar: bracketleft
Encoding: 91 91 62
Width: 287
GlyphClass: 2
Flags: W
LayerCount: 2
Fore
SplineSet
30 -171 m 1,0,-1
 30 663 l 1,1,-1
 257 663 l 1,2,-1
 257 549 l 1,3,-1
 173 549 l 1,4,-1
 173 -57 l 1,5,-1
 257 -57 l 1,6,-1
 256 -171 l 1,7,-1
 30 -171 l 1,0,-1
EndSplineSet
EndChar

StartChar: backslash
Encoding: 92 92 63
Width: 398
GlyphClass: 2
Flags: W
LayerCount: 2
Fore
SplineSet
251 -87 m 1,0,-1
 0 663 l 1,1,-1
 144 663 l 1,2,-1
 398 -87 l 1,3,-1
 251 -87 l 1,0,-1
EndSplineSet
EndChar

StartChar: bracketright
Encoding: 93 93 64
Width: 287
GlyphClass: 2
Flags: W
LayerCount: 2
Fore
SplineSet
257 663 m 1,0,-1
 257 -171 l 1,1,-1
 31 -171 l 1,2,-1
 31 -57 l 1,3,-1
 114 -57 l 1,4,-1
 114 549 l 1,5,-1
 30 549 l 1,6,-1
 31 663 l 1,7,-1
 257 663 l 1,0,-1
EndSplineSet
EndChar

StartChar: asciicircum
Encoding: 94 94 65
Width: 492
GlyphClass: 2
Flags: W
LayerCount: 2
Fore
SplineSet
187 534 m 1,0,-1
 305 534 l 1,1,-1
 462 269 l 1,2,-1
 344 269 l 1,3,-1
 246 434 l 1,4,-1
 148 269 l 1,5,-1
 30 269 l 1,6,-1
 187 534 l 1,0,-1
EndSplineSet
EndChar

StartChar: underscore
Encoding: 95 95 66
Width: 415
GlyphClass: 2
Flags: W
LayerCount: 2
Fore
SplineSet
0 -139 m 1,0,-1
 0 -41 l 1,1,-1
 415 -41 l 1,2,-1
 415 -139 l 1,3,-1
 0 -139 l 1,0,-1
EndSplineSet
EndChar

StartChar: grave
Encoding: 96 96 67
Width: 329
GlyphClass: 2
Flags: W
LayerCount: 2
Fore
SplineSet
139 687 m 2,0,1
 103 708 103 708 103 739.5 c 128,-1,2
 103 771 103 771 122 789.5 c 128,-1,3
 141 808 141 808 173.5 808 c 128,-1,4
 206 808 206 808 229 771 c 2,5,-1
 301 653 l 1,6,-1
 197 653 l 1,7,-1
 139 687 l 2,0,1
EndSplineSet
EndChar

StartChar: a
Encoding: 97 97 68
Width: 600
GlyphClass: 2
Flags: W
LayerCount: 2
Fore
SplineSet
201 -10 m 0,0,1
 124 -10 124 -10 74.5 35 c 128,-1,2
 25 80 25 80 25 162.5 c 128,-1,3
 25 245 25 245 81 282.5 c 128,-1,4
 137 320 137 320 216 320 c 128,-1,5
 295 320 295 320 353 295 c 1,6,7
 340 378 340 378 248 378 c 0,8,9
 206 378 206 378 144 361 c 1,10,-1
 119 451 l 1,11,12
 209 488 209 488 302 488 c 0,13,14
 570 488 570 488 570 260 c 0,15,16
 570 182 570 182 552 44 c 1,17,-1
 547 0 l 1,18,-1
 382 0 l 1,19,-1
 376 55 l 1,20,21
 308 -10 308 -10 201 -10 c 0,0,1
291 114 m 0,22,23
 336 114 336 114 368 139 c 1,24,-1
 362 205 l 1,25,26
 337 222 337 222 306.5 222 c 128,-1,27
 276 222 276 222 256.5 207 c 128,-1,28
 237 192 237 192 237 170 c 128,-1,29
 237 148 237 148 252 131 c 128,-1,30
 267 114 267 114 291 114 c 0,22,23
EndSplineSet
EndChar

StartChar: b
Encoding: 98 98 69
Width: 598
GlyphClass: 2
Flags: W
LayerCount: 2
Fore
SplineSet
303.5 472 m 128,-1,1
 335 488 335 488 370.5 488 c 128,-1,2
 406 488 406 488 438.5 477 c 128,-1,3
 471 466 471 466 502.5 441.5 c 128,-1,4
 534 417 534 417 553.5 367 c 128,-1,5
 573 317 573 317 573 248 c 0,6,7
 573 122 573 122 516 56 c 128,-1,8
 459 -10 459 -10 370 -10 c 128,-1,9
 281 -10 281 -10 226 62 c 0,10,11
 225 64 225 64 224 65 c 1,12,-1
 207 0 l 1,13,-1
 57 0 l 1,14,-1
 30 649 l 1,15,-1
 258 649 l 1,16,-1
 250 430 l 1,17,18
 254 436 254 436 263 446 c 128,-1,0
 272 456 272 456 303.5 472 c 128,-1,1
307 354 m 0,19,20
 241 354 241 354 241 234 c 0,21,22
 241 193 241 193 256.5 160.5 c 128,-1,23
 272 128 272 128 301 128 c 128,-1,24
 330 128 330 128 345 150 c 128,-1,25
 360 172 360 172 363 192 c 128,-1,26
 366 212 366 212 366 234 c 0,27,28
 366 354 366 354 307 354 c 0,19,20
EndSplineSet
EndChar

StartChar: c
Encoding: 99 99 70
Width: 489
GlyphClass: 2
Flags: W
LayerCount: 2
Fore
SplineSet
489 70 m 1,0,1
 414 -10 414 -10 288.5 -10 c 128,-1,2
 163 -10 163 -10 94 57.5 c 128,-1,3
 25 125 25 125 25 248 c 128,-1,4
 25 371 25 371 99 429.5 c 128,-1,5
 173 488 173 488 284 488 c 0,6,7
 331 488 331 488 374.5 479 c 128,-1,8
 418 470 418 470 438 460 c 2,9,-1
 458 451 l 1,10,-1
 436 348 l 1,11,12
 395 360 395 360 351.5 360 c 128,-1,13
 308 360 308 360 272.5 332.5 c 128,-1,14
 237 305 237 305 237 248 c 0,15,16
 237 120 237 120 336 120 c 0,17,18
 362 120 362 120 386 126.5 c 128,-1,19
 410 133 410 133 421 140 c 2,20,-1
 432 146 l 1,21,-1
 489 70 l 1,0,1
EndSplineSet
EndChar

StartChar: d
Encoding: 100 100 71
Width: 598
GlyphClass: 2
Flags: W
LayerCount: 2
Fore
SplineSet
25 248 m 0,0,1
 25 317 25 317 44.5 367 c 128,-1,2
 64 417 64 417 96 442 c 0,3,4
 155 488 155 488 227 488 c 0,5,6
 263 488 263 488 293.5 473.5 c 128,-1,7
 324 459 324 459 336 444 c 2,8,-1
 348 430 l 1,9,-1
 340 649 l 1,10,-1
 568 649 l 1,11,-1
 541 0 l 1,12,-1
 391 0 l 1,13,-1
 374 65 l 1,14,15
 314 -9 314 -9 226.5 -9.5 c 128,-1,16
 139 -10 139 -10 82 56 c 128,-1,17
 25 122 25 122 25 248 c 0,0,1
291 354 m 0,18,19
 232 354 232 354 232 234 c 0,20,21
 232 212 232 212 235 192 c 128,-1,22
 238 172 238 172 253 150 c 128,-1,23
 268 128 268 128 297 128 c 128,-1,24
 326 128 326 128 341.5 160.5 c 128,-1,25
 357 193 357 193 357 234 c 0,26,27
 357 354 357 354 291 354 c 0,18,19
EndSplineSet
EndChar

StartChar: e
Encoding: 101 101 72
Width: 543
GlyphClass: 2
Flags: W
LayerCount: 2
Fore
SplineSet
291 -10 m 0,0,1
 178 -10 178 -10 101.5 55.5 c 128,-1,2
 25 121 25 121 25 248 c 0,3,4
 25 328 25 328 64 384 c 0,5,6
 135 488 135 488 284 488 c 0,7,8
 398 488 398 488 458 442.5 c 128,-1,9
 518 397 518 397 518 317 c 0,10,11
 518 255 518 255 468.5 216.5 c 128,-1,12
 419 178 419 178 324 178 c 0,13,14
 285 178 285 178 254 184 c 2,15,-1
 243 186 l 1,16,17
 248 150 248 150 274.5 132.5 c 128,-1,18
 301 115 301 115 338 115 c 0,19,20
 399 115 399 115 442 152 c 1,21,-1
 504 77 l 1,22,23
 488 58 488 58 466 41.5 c 128,-1,24
 444 25 444 25 396 7.5 c 128,-1,25
 348 -10 348 -10 291 -10 c 0,0,1
356.5 359 m 128,-1,27
 341 372 341 372 314 372 c 128,-1,28
 287 372 287 372 263.5 348 c 128,-1,29
 240 324 240 324 240 291 c 1,30,31
 262 281 262 281 297.5 281 c 128,-1,32
 333 281 333 281 352.5 293.5 c 128,-1,33
 372 306 372 306 372 326 c 128,-1,26
 372 346 372 346 356.5 359 c 128,-1,27
EndSplineSet
EndChar

StartChar: f
Encoding: 102 102 73
Width: 390
GlyphClass: 2
Flags: W
LayerCount: 2
Fore
SplineSet
80 474 m 1,0,1
 80 566 80 566 123.5 614.5 c 128,-1,2
 167 663 167 663 271 663 c 0,3,4
 317 663 317 663 359 650 c 1,5,-1
 370 553 l 1,6,7
 355 557 355 557 340 557 c 0,8,9
 291 557 291 557 291 487 c 2,10,-1
 291 474 l 1,11,-1
 352 474 l 1,12,-1
 364 344 l 1,13,-1
 297 344 l 1,14,-1
 282 0 l 1,15,-1
 98 0 l 1,16,-1
 83 344 l 1,17,-1
 20 344 l 1,18,-1
 32 474 l 1,19,-1
 80 474 l 1,0,1
EndSplineSet
EndChar

StartChar: g
Encoding: 103 103 74
Width: 612
GlyphClass: 2
Flags: W
LayerCount: 2
Fore
SplineSet
316 -185 m 0,0,1
 267 -185 267 -185 220 -170.5 c 128,-1,2
 173 -156 173 -156 151 -142 c 2,3,-1
 129 -127 l 1,4,-1
 173 -37 l 1,5,6
 216 -58 216 -58 253 -58 c 0,7,8
 321 -58 321 -58 353 -15 c 128,-1,9
 385 28 385 28 385 84 c 0,10,11
 385 94 385 94 384 104 c 1,12,13
 337 10 337 10 230 10 c 0,14,15
 136 10 136 10 80.5 67 c 128,-1,16
 25 124 25 124 25 248 c 0,17,18
 25 317 25 317 44.5 367 c 128,-1,19
 64 417 64 417 96 442 c 0,20,21
 155 488 155 488 227 488 c 0,22,23
 277 488 277 488 312 464 c 0,24,25
 341 443 341 443 361 418 c 1,26,-1
 355 474 l 1,27,-1
 587 474 l 1,28,-1
 570 85 l 1,29,30
 557 -185 557 -185 316 -185 c 0,0,1
291 353 m 0,31,32
 232 353 232 353 232 243 c 0,33,34
 232 223 232 223 235.5 204 c 128,-1,35
 239 185 239 185 254.5 166 c 128,-1,36
 270 147 270 147 299 147 c 128,-1,37
 328 147 328 147 342.5 175 c 128,-1,38
 357 203 357 203 357 243 c 0,39,40
 357 353 357 353 291 353 c 0,31,32
EndSplineSet
EndChar

StartChar: h
Encoding: 104 104 75
Width: 615
GlyphClass: 2
Flags: W
LayerCount: 2
Fore
SplineSet
431 488 m 0,0,1
 488 488 488 488 524 454.5 c 128,-1,2
 560 421 560 421 572.5 374 c 128,-1,3
 585 327 585 327 585 254 c 128,-1,4
 585 181 585 181 562 0 c 1,5,-1
 387 0 l 1,6,-1
 365 232 l 2,7,8
 359 292 359 292 349 312 c 128,-1,9
 339 332 339 332 315 332 c 0,10,11
 256 332 256 332 251 231 c 2,12,-1
 241 0 l 1,13,-1
 57 0 l 1,14,-1
 30 649 l 1,15,-1
 268 649 l 1,16,-1
 258 389 l 1,17,18
 290 453 290 453 364 478 c 0,19,20
 395 488 395 488 431 488 c 0,0,1
EndSplineSet
EndChar

StartChar: i
Encoding: 105 105 76
Width: 315
GlyphClass: 2
Flags: W
LayerCount: 2
Fore
SplineSet
268 460 m 1,0,-1
 285 466 l 1,1,-1
 251 0 l 1,2,-1
 62 0 l 1,3,-1
 30 466 l 1,4,5
 87 443 87 443 151.5 443 c 128,-1,6
 216 443 216 443 268 460 c 1,0,-1
73 517 m 128,-1,8
 39 547 39 547 39 595.5 c 128,-1,9
 39 644 39 644 72.5 673.5 c 128,-1,10
 106 703 106 703 156.5 703 c 128,-1,11
 207 703 207 703 241 673 c 128,-1,12
 275 643 275 643 275 595 c 128,-1,13
 275 547 275 547 241 517 c 128,-1,14
 207 487 207 487 157 487 c 128,-1,7
 107 487 107 487 73 517 c 128,-1,8
EndSplineSet
EndChar

StartChar: j
Encoding: 106 106 77
Width: 330
GlyphClass: 2
Flags: W
LayerCount: 2
Fore
SplineSet
68.5 -62 m 128,-1,1
 74 -45 74 -45 74 -30.5 c 128,-1,2
 74 -16 74 -16 45 466 c 1,3,4
 102 443 102 443 172 443 c 0,5,6
 231 443 231 443 284 460 c 1,7,-1
 300 466 l 1,8,-1
 266 -4 l 2,9,10
 260 -87 260 -87 212.5 -136 c 128,-1,11
 165 -185 165 -185 74 -185 c 1,12,-1
 0 -128 l 1,13,-1
 13 -122 l 2,14,15
 31 -113 31 -113 47 -96 c 128,-1,0
 63 -79 63 -79 68.5 -62 c 128,-1,1
88 517 m 128,-1,17
 54 547 54 547 54 595.5 c 128,-1,18
 54 644 54 644 87.5 673.5 c 128,-1,19
 121 703 121 703 171.5 703 c 128,-1,20
 222 703 222 703 256 673 c 128,-1,21
 290 643 290 643 290 595 c 128,-1,22
 290 547 290 547 256 517 c 128,-1,23
 222 487 222 487 172 487 c 128,-1,16
 122 487 122 487 88 517 c 128,-1,17
EndSplineSet
EndChar

StartChar: k
Encoding: 107 107 78
Width: 569
GlyphClass: 2
Flags: W
LayerCount: 2
Fore
SplineSet
416 0 m 1,0,1
 297 115 297 115 248 163 c 1,2,-1
 241 0 l 1,3,-1
 57 0 l 1,4,-1
 30 649 l 1,5,-1
 268 649 l 1,6,-1
 256 341 l 1,7,-1
 357 474 l 1,8,-1
 559 474 l 1,9,-1
 418 276 l 1,10,-1
 579 0 l 1,11,-1
 416 0 l 1,0,1
EndSplineSet
EndChar

StartChar: l
Encoding: 108 108 79
Width: 298
GlyphClass: 2
Flags: W
LayerCount: 2
Fore
SplineSet
268 649 m 1,0,-1
 241 0 l 1,1,-1
 57 0 l 1,2,-1
 30 649 l 1,3,-1
 268 649 l 1,0,-1
EndSplineSet
EndChar

StartChar: m
Encoding: 109 109 80
Width: 940
GlyphClass: 2
Flags: W
LayerCount: 2
Fore
SplineSet
871 424 m 128,-1,1
 910 360 910 360 910 270.5 c 128,-1,2
 910 181 910 181 887 0 c 1,3,-1
 712 0 l 1,4,-1
 690 232 l 2,5,6
 684 292 684 292 674 312 c 128,-1,7
 664 332 664 332 640 332 c 0,8,9
 583 332 583 332 576 231 c 2,10,-1
 559 0 l 1,11,-1
 381 0 l 1,12,-1
 359 232 l 2,13,14
 353 292 353 292 343 312 c 128,-1,15
 333 332 333 332 309 332 c 0,16,17
 250 332 250 332 245 231 c 2,18,-1
 235 0 l 1,19,-1
 51 0 l 1,20,-1
 30 474 l 1,21,-1
 256 474 l 1,22,-1
 252 379 l 1,23,24
 254 383 254 383 257.5 390.5 c 128,-1,25
 261 398 261 398 275.5 417 c 128,-1,26
 290 436 290 436 308 450 c 128,-1,27
 326 464 326 464 357.5 476 c 128,-1,28
 389 488 389 488 425 488 c 0,29,30
 483 488 483 488 519.5 451 c 128,-1,31
 556 414 556 414 567 369 c 1,32,33
 582 394 582 394 593 409 c 128,-1,34
 604 424 604 424 626 445 c 0,35,36
 671 488 671 488 751.5 488 c 128,-1,0
 832 488 832 488 871 424 c 128,-1,1
EndSplineSet
EndChar

StartChar: n
Encoding: 110 110 81
Width: 609
GlyphClass: 2
Flags: W
LayerCount: 2
Fore
SplineSet
408 488 m 0,0,1
 478 488 478 488 528.5 429 c 128,-1,2
 579 370 579 370 579 275.5 c 128,-1,3
 579 181 579 181 556 0 c 1,4,-1
 381 0 l 1,5,-1
 361 224 l 2,6,7
 351 331 351 331 303 331 c 0,8,9
 246 331 246 331 242 223 c 2,10,-1
 235 0 l 1,11,-1
 51 0 l 1,12,-1
 30 474 l 1,13,-1
 256 474 l 1,14,-1
 252 389 l 1,15,16
 257 399 257 399 275 420 c 128,-1,17
 293 441 293 441 310 454 c 0,18,19
 354 488 354 488 408 488 c 0,0,1
EndSplineSet
EndChar

StartChar: o
Encoding: 111 111 82
Width: 582
GlyphClass: 2
Flags: W
LayerCount: 2
Fore
SplineSet
25 239 m 128,-1,1
 25 369 25 369 97.5 428.5 c 128,-1,2
 170 488 170 488 291 488 c 128,-1,3
 412 488 412 488 484.5 428.5 c 128,-1,4
 557 369 557 369 557 239 c 128,-1,5
 557 109 557 109 484.5 49.5 c 128,-1,6
 412 -10 412 -10 291 -10 c 128,-1,7
 170 -10 170 -10 97.5 49.5 c 128,-1,0
 25 109 25 109 25 239 c 128,-1,1
237 239 m 128,-1,9
 237 160 237 160 249 125.5 c 128,-1,10
 261 91 261 91 291 91 c 128,-1,11
 321 91 321 91 333 125.5 c 128,-1,12
 345 160 345 160 345 239 c 128,-1,13
 345 318 345 318 333 352.5 c 128,-1,14
 321 387 321 387 291 387 c 128,-1,15
 261 387 261 387 249 352.5 c 128,-1,8
 237 318 237 318 237 239 c 128,-1,9
EndSplineSet
EndChar

StartChar: p
Encoding: 112 112 83
Width: 617
GlyphClass: 2
Flags: W
LayerCount: 2
Fore
SplineSet
387 -10 m 0,0,1
 331 -10 331 -10 294 16 c 0,2,3
 261 40 261 40 243 65 c 1,4,-1
 230 -171 l 1,5,-1
 59 -171 l 1,6,-1
 30 474 l 1,7,-1
 245 474 l 1,8,-1
 256 418 l 1,9,10
 261 426 261 426 271.5 437.5 c 128,-1,11
 282 449 282 449 316.5 468.5 c 128,-1,12
 351 488 351 488 388 488 c 128,-1,13
 425 488 425 488 457.5 477 c 128,-1,14
 490 466 490 466 521.5 441.5 c 128,-1,15
 553 417 553 417 572.5 367 c 128,-1,16
 592 317 592 317 592 248 c 0,17,18
 592 122 592 122 535 56 c 128,-1,19
 478 -10 478 -10 387 -10 c 0,0,1
326 353 m 0,20,21
 260 353 260 353 260 233 c 0,22,23
 260 191 260 191 274.5 159 c 128,-1,24
 289 127 289 127 318 127 c 128,-1,25
 347 127 347 127 362 148 c 0,26,27
 385 180 385 180 385 233 c 0,28,29
 385 353 385 353 326 353 c 0,20,21
EndSplineSet
EndChar

StartChar: q
Encoding: 113 113 84
Width: 617
GlyphClass: 2
Flags: W
LayerCount: 2
Fore
SplineSet
361 418 m 1,0,-1
 372 474 l 1,1,-1
 587 474 l 1,2,-1
 558 -171 l 1,3,-1
 387 -171 l 1,4,-1
 374 65 l 1,5,6
 342 17 342 17 282 -2 c 0,7,8
 257 -10 257 -10 230 -10 c 0,9,10
 139 -10 139 -10 82 56 c 128,-1,11
 25 122 25 122 25 248 c 0,12,13
 25 317 25 317 44.5 367 c 128,-1,14
 64 417 64 417 96 442 c 0,15,16
 155 488 155 488 230.5 488 c 128,-1,17
 306 488 306 488 361 418 c 1,0,-1
291 353 m 0,18,19
 232 353 232 353 232 233 c 0,20,21
 232 180 232 180 251 153.5 c 128,-1,22
 270 127 270 127 299 127 c 128,-1,23
 328 127 328 127 342.5 159 c 128,-1,24
 357 191 357 191 357 233 c 0,25,26
 357 353 357 353 291 353 c 0,18,19
EndSplineSet
EndChar

StartChar: r
Encoding: 114 114 85
Width: 451
GlyphClass: 2
Flags: W
LayerCount: 2
Fore
SplineSet
252 409 m 1,0,1
 305 488 305 488 383 488 c 0,2,3
 420 488 420 488 451 470 c 1,4,-1
 427 306 l 1,5,6
 387 334 387 334 337 334 c 0,7,8
 289 334 289 334 272 294 c 0,9,10
 262 269 262 269 259 246 c 1,11,-1
 240 0 l 1,12,-1
 60 0 l 1,13,-1
 30 474 l 1,14,-1
 227 474 l 1,15,-1
 252 409 l 1,0,1
EndSplineSet
EndChar

StartChar: s
Encoding: 115 115 86
Width: 489
GlyphClass: 2
Flags: W
LayerCount: 2
Fore
SplineSet
464 150 m 0,0,1
 464 93 464 93 426 55 c 128,-1,2
 388 17 388 17 338.5 3.5 c 128,-1,3
 289 -10 289 -10 243 -10 c 128,-1,4
 197 -10 197 -10 162.5 -4 c 128,-1,5
 128 2 128 2 104 10 c 1,6,7
 60 27 60 27 34 42 c 1,8,-1
 25 48 l 1,9,-1
 69 139 l 1,10,11
 129 105 129 105 170 105 c 128,-1,12
 211 105 211 105 211 139 c 0,13,14
 211 156 211 156 185 174 c 128,-1,15
 159 192 159 192 128.5 208 c 128,-1,16
 98 224 98 224 72 257 c 128,-1,17
 46 290 46 290 46 333 c 0,18,19
 46 410 46 410 104 449 c 128,-1,20
 162 488 162 488 257 488 c 0,21,22
 305 488 305 488 351 480 c 128,-1,23
 397 472 397 472 420 464 c 1,24,-1
 442 455 l 1,25,-1
 417 354 l 1,26,27
 360 375 360 375 320 375 c 128,-1,28
 280 375 280 375 280 344 c 0,29,30
 280 329 280 329 299 315.5 c 128,-1,31
 318 302 318 302 345 289 c 128,-1,32
 372 276 372 276 399 259.5 c 128,-1,33
 426 243 426 243 445 214.5 c 128,-1,34
 464 186 464 186 464 150 c 0,0,1
EndSplineSet
EndChar

StartChar: t
Encoding: 116 116 87
Width: 416
GlyphClass: 2
Flags: W
LayerCount: 2
Fore
SplineSet
295 178 m 1,0,1
 294 120 294 120 336 120 c 0,2,3
 348 120 348 120 365 131 c 1,4,-1
 386 34 l 1,5,6
 380 29 380 29 369.5 21.5 c 128,-1,7
 359 14 359 14 324.5 2 c 128,-1,8
 290 -10 290 -10 253 -10 c 0,9,10
 185 -10 185 -10 142 36.5 c 128,-1,11
 99 83 99 83 96 155 c 2,12,-1
 87 344 l 1,13,-1
 10 344 l 1,14,-1
 22 474 l 1,15,-1
 82 474 l 1,16,-1
 78 572 l 1,17,-1
 315 620 l 1,18,-1
 308 474 l 1,19,-1
 366 474 l 1,20,-1
 378 344 l 1,21,-1
 302 344 l 1,22,-1
 295 178 l 1,0,1
EndSplineSet
EndChar

StartChar: u
Encoding: 117 117 88
Width: 615
GlyphClass: 2
Flags: W
LayerCount: 2
Fore
SplineSet
219 -10 m 0,0,1
 30 -10 30 -10 30 247 c 0,2,3
 30 316 30 316 53 474 c 1,4,-1
 247 474 l 1,5,-1
 247 258 l 2,6,7
 247 142 247 142 312 142 c 0,8,9
 369 142 369 142 369 246 c 0,10,11
 369 254 369 254 369 263 c 2,12,-1
 360 474 l 1,13,-1
 585 474 l 1,14,-1
 564 0 l 1,15,-1
 395 0 l 1,16,-1
 384 92 l 1,17,18
 382 88 382 88 379 81 c 128,-1,19
 376 74 376 74 362.5 56.5 c 128,-1,20
 349 39 349 39 332 25.5 c 128,-1,21
 315 12 315 12 285 1 c 128,-1,22
 255 -10 255 -10 219 -10 c 0,0,1
EndSplineSet
EndChar

StartChar: v
Encoding: 118 118 89
Width: 549
GlyphClass: 2
Flags: W
LayerCount: 2
Fore
SplineSet
282 166 m 1,0,1
 368 281 368 281 368 474 c 1,2,-1
 529 474 l 1,3,4
 529 338 529 338 491 235 c 0,5,6
 455 138 455 138 412 82 c 0,7,8
 371 28 371 28 348 8 c 1,9,-1
 337 0 l 1,10,-1
 137 0 l 1,11,-1
 -10 474 l 1,12,-1
 239 474 l 1,13,-1
 282 166 l 1,0,1
EndSplineSet
EndChar

StartChar: w
Encoding: 119 119 90
Width: 858
GlyphClass: 2
Flags: W
LayerCount: 2
Fore
SplineSet
691 474 m 1,0,-1
 838 474 l 1,1,2
 838 381 838 381 820.5 298 c 128,-1,3
 803 215 803 215 778 163 c 0,4,5
 725 55 725 55 684 16 c 1,6,-1
 666 0 l 1,7,-1
 465 0 l 1,8,-1
 415 161 l 1,9,10
 394 112 394 112 366.5 72 c 128,-1,11
 339 32 339 32 322 16 c 2,12,-1
 306 0 l 1,13,-1
 136 0 l 1,14,-1
 -10 474 l 1,15,-1
 238 474 l 1,16,-1
 281 175 l 1,17,18
 287 181 287 181 297 193.5 c 128,-1,19
 307 206 307 206 328 253.5 c 128,-1,20
 349 301 349 301 359 357 c 1,21,-1
 320 474 l 1,22,-1
 567 474 l 1,23,-1
 606 176 l 1,24,25
 635 205 635 205 662 276 c 1,26,27
 691 356 691 356 691 474 c 1,0,-1
EndSplineSet
EndChar

StartChar: x
Encoding: 120 120 91
Width: 540
GlyphClass: 2
Flags: W
LayerCount: 2
Fore
SplineSet
216 124 m 1,0,1
 167 65 167 65 167 0 c 1,2,-1
 20 0 l 1,3,4
 20 135 20 135 149 251 c 1,5,-1
 32 474 l 1,6,-1
 281 474 l 1,7,-1
 337 367 l 1,8,9
 349 376 349 376 360 407.5 c 128,-1,10
 371 439 371 439 371 474 c 1,11,-1
 518 474 l 1,12,13
 518 329 518 329 408 232 c 1,14,-1
 530 0 l 1,15,-1
 282 0 l 1,16,-1
 216 124 l 1,0,1
EndSplineSet
EndChar

StartChar: y
Encoding: 121 121 92
Width: 610
GlyphClass: 2
Flags: W
LayerCount: 2
Fore
SplineSet
377 111 m 2,0,-1
 377 119 l 1,1,2
 374 102 374 102 361.5 81.5 c 128,-1,3
 349 61 349 61 334 47 c 128,-1,4
 319 33 319 33 291.5 22 c 128,-1,5
 264 11 264 11 219 11 c 128,-1,6
 174 11 174 11 134 31.5 c 128,-1,7
 94 52 94 52 72 88 c 0,8,9
 30 155 30 155 30 235.5 c 128,-1,10
 30 316 30 316 53 474 c 1,11,-1
 247 474 l 1,12,-1
 247 258 l 2,13,14
 247 148 247 148 312 148 c 0,15,16
 341 148 341 148 355 174 c 128,-1,17
 369 200 369 200 369 240 c 0,18,19
 369 245 369 245 369 251 c 2,20,-1
 360 474 l 1,21,-1
 585 474 l 1,22,-1
 571 167 l 2,23,24
 568 102 568 102 561.5 56 c 128,-1,25
 555 10 555 10 537.5 -38.5 c 128,-1,26
 520 -87 520 -87 492 -117 c 0,27,28
 427 -185 427 -185 299 -185 c 0,29,30
 209 -185 209 -185 130 -129 c 1,31,-1
 121 -123 l 1,32,-1
 163 -37 l 1,33,34
 211 -59 211 -59 253 -59 c 0,35,36
 311 -59 311 -59 344 -14.5 c 128,-1,37
 377 30 377 30 377 111 c 2,0,-1
EndSplineSet
EndChar

StartChar: z
Encoding: 122 122 93
Width: 516
GlyphClass: 2
Flags: W
LayerCount: 2
Fore
SplineSet
34 0 m 1,0,-1
 34 84 l 1,1,-1
 219 342 l 1,2,-1
 30 303 l 1,3,-1
 55 474 l 1,4,-1
 486 474 l 1,5,-1
 486 385 l 1,6,-1
 312 116 l 1,7,-1
 483 168 l 1,8,-1
 483 0 l 1,9,-1
 34 0 l 1,0,-1
EndSplineSet
EndChar

StartChar: braceleft
Encoding: 123 123 94
Width: 362
GlyphClass: 2
Flags: W
LayerCount: 2
Fore
SplineSet
308 -185 m 0,0,1
 198 -185 198 -185 147 -132 c 0,2,3
 125 -110 125 -110 113.5 -68.5 c 128,-1,4
 102 -27 102 -27 99.5 8.5 c 128,-1,5
 97 44 97 44 97 99.5 c 128,-1,6
 97 155 97 155 77.5 170 c 128,-1,7
 58 185 58 185 10 187 c 1,8,-1
 29 300 l 1,9,10
 69 301 69 301 83 322.5 c 128,-1,11
 97 344 97 344 97 398.5 c 128,-1,12
 97 453 97 453 99.5 488.5 c 128,-1,13
 102 524 102 524 113.5 565.5 c 128,-1,14
 125 607 125 607 147 630 c 0,15,16
 198 682 198 682 308 682 c 0,17,18
 320 682 320 682 336 680 c 1,19,-1
 352 585 l 1,20,21
 295 580 295 580 268 554.5 c 128,-1,22
 241 529 241 529 241 469 c 0,23,24
 241 449 241 449 246 418 c 128,-1,25
 251 387 251 387 251 372 c 0,26,27
 251 271 251 271 137 249 c 1,28,29
 251 227 251 227 251 125 c 0,30,31
 251 110 251 110 246 79 c 128,-1,32
 241 48 241 48 241 28 c 0,33,34
 241 -32 241 -32 268 -57.5 c 128,-1,35
 295 -83 295 -83 352 -88 c 1,36,-1
 336 -183 l 1,37,38
 320 -185 320 -185 308 -185 c 0,0,1
EndSplineSet
EndChar

StartChar: bar
Encoding: 124 124 95
Width: 171
GlyphClass: 2
Flags: W
LayerCount: 2
Fore
SplineSet
20 -171 m 1,0,-1
 20 682 l 1,1,-1
 151 682 l 1,2,-1
 151 -171 l 1,3,-1
 20 -171 l 1,0,-1
EndSplineSet
EndChar

StartChar: braceright
Encoding: 125 125 96
Width: 362
GlyphClass: 2
Flags: W
LayerCount: 2
Fore
SplineSet
54 682 m 0,0,1
 164 682 164 682 215 630 c 0,2,3
 237 607 237 607 248.5 565.5 c 128,-1,4
 260 524 260 524 262.5 488.5 c 128,-1,5
 265 453 265 453 265 397.5 c 128,-1,6
 265 342 265 342 284.5 327 c 128,-1,7
 304 312 304 312 352 310 c 1,8,-1
 333 197 l 1,9,10
 293 196 293 196 279 174.5 c 128,-1,11
 265 153 265 153 265 98.5 c 128,-1,12
 265 44 265 44 262.5 8.5 c 128,-1,13
 260 -27 260 -27 248.5 -68.5 c 128,-1,14
 237 -110 237 -110 215 -132 c 0,15,16
 164 -185 164 -185 54 -185 c 0,17,18
 42 -185 42 -185 26 -183 c 1,19,-1
 10 -88 l 1,20,21
 67 -83 67 -83 94 -57.5 c 128,-1,22
 121 -32 121 -32 121 28 c 0,23,24
 121 48 121 48 116 79 c 128,-1,25
 111 110 111 110 111 125 c 0,26,27
 111 226 111 226 225 248 c 1,28,29
 111 270 111 270 111 372 c 0,30,31
 111 387 111 387 116 418 c 128,-1,32
 121 449 121 449 121 469 c 0,33,34
 121 529 121 529 94 554.5 c 128,-1,35
 67 580 67 580 10 585 c 1,36,-1
 26 680 l 1,37,38
 42 682 42 682 54 682 c 0,0,1
EndSplineSet
EndChar

StartChar: asciitilde
Encoding: 126 126 97
Width: 551
GlyphClass: 2
Flags: W
LayerCount: 2
Fore
SplineSet
371 294 m 0,0,1
 424 294 424 294 447 333 c 1,2,-1
 521 290 l 1,3,4
 477 171 477 171 372 171 c 0,5,6
 331 171 331 171 276 190 c 1,7,-1
 275 314 l 1,8,9
 333 294 333 294 371 294 c 0,0,1
181 210 m 0,10,11
 127 210 127 210 104 171 c 1,12,-1
 30 213 l 1,13,14
 74 333 74 333 180 333 c 0,15,16
 214 333 214 333 275 314 c 1,17,-1
 276 190 l 1,18,19
 211 210 211 210 181 210 c 0,10,11
EndSplineSet
EndChar

StartChar: exclamdown
Encoding: 161 161 99
Width: 270
GlyphClass: 2
Flags: W
LayerCount: 2
Fore
SplineSet
135 293 m 128,-1,1
 188 293 188 293 222 315 c 1,2,-1
 249 -128 l 1,3,-1
 21 -128 l 1,4,-1
 48 315 l 1,5,0
 82 293 82 293 135 293 c 128,-1,1
135 344 m 128,-1,7
 97 344 97 344 78 364.5 c 128,-1,8
 59 385 59 385 59 416 c 128,-1,9
 59 447 59 447 78 467.5 c 128,-1,10
 97 488 97 488 135 488 c 128,-1,11
 173 488 173 488 192 467.5 c 128,-1,12
 211 447 211 447 211 416 c 128,-1,13
 211 385 211 385 192 364.5 c 128,-1,6
 173 344 173 344 135 344 c 128,-1,7
EndSplineSet
EndChar

StartChar: cent
Encoding: 162 162 100
Width: 489
GlyphClass: 2
Flags: W
LayerCount: 2
Fore
SplineSet
454 356 m 1,0,1
 403 371 403 371 353 371 c 128,-1,2
 303 371 303 371 270.5 342 c 128,-1,3
 238 313 238 313 238 249.5 c 128,-1,4
 238 186 238 186 266 151 c 128,-1,5
 294 116 294 116 343.5 116 c 128,-1,6
 393 116 393 116 453 149 c 1,7,-1
 489 90 l 1,8,9
 427 25 427 25 330 13 c 1,10,-1
 321 -78 l 1,11,-1
 246 -78 l 1,12,-1
 232 13 l 1,13,14
 135 25 135 25 80 84.5 c 128,-1,15
 25 144 25 144 25 242.5 c 128,-1,16
 25 341 25 341 79 397 c 128,-1,17
 133 453 133 453 217 471 c 1,18,-1
 206 546 l 1,19,-1
 331 546 l 1,20,-1
 323 476 l 1,21,22
 399 470 399 470 452 448 c 1,23,-1
 468 441 l 1,24,-1
 454 356 l 1,0,1
EndSplineSet
EndChar

StartChar: sterling
Encoding: 163 163 101
Width: 532
GlyphClass: 2
Flags: W
LayerCount: 2
Fore
SplineSet
106 294 m 0,0,1
 106 389 106 389 167 438.5 c 128,-1,2
 228 488 228 488 329 488 c 0,3,4
 390 488 390 488 423 478 c 0,5,6
 478 463 478 463 502 451 c 1,7,-1
 488 366 l 1,8,9
 452 377 452 377 414 377 c 0,10,11
 324 377 324 377 312 288 c 1,12,-1
 423 288 l 1,13,-1
 398 195 l 1,14,-1
 302 195 l 1,15,-1
 290 103 l 1,16,-1
 512 132 l 1,17,-1
 491 0 l 1,18,-1
 31 0 l 1,19,-1
 31 70 l 1,20,-1
 130 83 l 1,21,-1
 116 195 l 1,22,-1
 20 195 l 1,23,-1
 45 288 l 1,24,-1
 106 288 l 1,25,26
 106 291 106 291 106 294 c 0,0,1
EndSplineSet
EndChar

StartChar: currency
Encoding: 164 164 102
Width: 530
GlyphClass: 2
Flags: W
LayerCount: 2
Fore
SplineSet
456 341 m 1,0,1
 479 298 479 298 479 245 c 128,-1,2
 479 192 479 192 450 142 c 1,3,-1
 517 63 l 1,4,-1
 424 -10 l 1,5,-1
 363 62 l 1,6,7
 320 43 320 43 275 43 c 128,-1,8
 230 43 230 43 187 62 c 1,9,-1
 126 -10 l 1,10,-1
 33 63 l 1,11,-1
 100 143 l 1,12,13
 72 190 72 190 72 244 c 128,-1,14
 72 298 72 298 95 341 c 1,15,-1
 33 415 l 1,16,-1
 126 488 l 1,17,-1
 178 426 l 1,18,19
 224 450 224 450 275 450 c 128,-1,20
 326 450 326 450 371 426 c 1,21,-1
 424 488 l 1,22,-1
 517 415 l 1,23,-1
 456 341 l 1,0,1
201 247 m 128,-1,25
 201 216 201 216 222.5 194.5 c 128,-1,26
 244 173 244 173 275 173 c 128,-1,27
 306 173 306 173 327.5 194.5 c 128,-1,28
 349 216 349 216 349 247 c 128,-1,29
 349 278 349 278 327.5 299.5 c 128,-1,30
 306 321 306 321 275 321 c 128,-1,31
 244 321 244 321 222.5 299.5 c 128,-1,24
 201 278 201 278 201 247 c 128,-1,25
EndSplineSet
EndChar

StartChar: yen
Encoding: 165 165 103
Width: 581
GlyphClass: 2
Flags: W
LayerCount: 2
Fore
SplineSet
67 210 m 1,0,-1
 94 288 l 1,1,-1
 138 288 l 1,2,-1
 30 474 l 1,3,-1
 206 474 l 1,4,-1
 289 348 l 1,5,-1
 362 474 l 1,6,-1
 561 474 l 1,7,-1
 438 288 l 1,8,-1
 517 288 l 1,9,-1
 490 210 l 1,10,-1
 67 210 l 1,0,-1
67 93 m 1,11,-1
 94 170 l 1,12,-1
 517 170 l 1,13,-1
 490 93 l 1,14,-1
 369 93 l 1,15,-1
 360 0 l 1,16,-1
 208 0 l 1,17,-1
 198 93 l 1,18,-1
 67 93 l 1,11,-1
EndSplineSet
EndChar

StartChar: brokenbar
Encoding: 166 166 104
Width: 184
GlyphClass: 2
Flags: W
LayerCount: 2
Fore
SplineSet
144 345 m 1,0,-1
 40 345 l 1,1,-1
 40 690 l 1,2,-1
 144 690 l 1,3,-1
 144 345 l 1,0,-1
144 -98 m 1,4,-1
 40 -98 l 1,5,-1
 40 247 l 1,6,-1
 144 247 l 1,7,-1
 144 -98 l 1,4,-1
EndSplineSet
EndChar

StartChar: section
Encoding: 167 167 105
Width: 707
GlyphClass: 2
Flags: W
LayerCount: 2
Fore
SplineSet
458.5 30 m 128,-1,1
 388 -10 388 -10 311.5 -10 c 128,-1,2
 235 -10 235 -10 172.5 8.5 c 128,-1,3
 110 27 110 27 80 46 c 2,4,-1
 50 64 l 1,5,-1
 93 150 l 1,6,7
 165 115 165 115 223 115 c 128,-1,8
 281 115 281 115 281 152 c 0,9,10
 281 173 281 173 257.5 191.5 c 128,-1,11
 234 210 234 210 200 227 c 128,-1,12
 166 244 166 244 132 266.5 c 128,-1,13
 98 289 98 289 74.5 329.5 c 128,-1,14
 51 370 51 370 51 415 c 128,-1,15
 51 460 51 460 61 487 c 1,16,-1
 550 148 l 1,17,0
 529 70 529 70 458.5 30 c 128,-1,1
251 586.5 m 128,-1,19
 318 620 318 620 391 620 c 128,-1,20
 464 620 464 620 518.5 605 c 128,-1,21
 573 590 573 590 596 575 c 2,22,-1
 620 560 l 1,23,-1
 581 475 l 1,24,25
 530 497 530 497 478.5 497 c 128,-1,26
 427 497 427 497 427 458 c 0,27,28
 427 437 427 437 450.5 420 c 128,-1,29
 474 403 474 403 508 387.5 c 128,-1,30
 542 372 542 372 576 351.5 c 128,-1,31
 610 331 610 331 633.5 294 c 128,-1,32
 657 257 657 257 657 215 c 128,-1,33
 657 173 657 173 650 148 c 1,34,-1
 161 487 l 1,35,18
 184 553 184 553 251 586.5 c 128,-1,19
EndSplineSet
EndChar

StartChar: dieresis
Encoding: 168 168 106
Width: 366
GlyphClass: 2
Flags: W
LayerCount: 2
Fore
SplineSet
274 784 m 128,-1,1
 309 784 309 784 327.5 764.5 c 128,-1,2
 346 745 346 745 346 715.5 c 128,-1,3
 346 686 346 686 328 667 c 128,-1,4
 310 648 310 648 274 648 c 128,-1,5
 238 648 238 648 220.5 667 c 128,-1,6
 203 686 203 686 203 715.5 c 128,-1,7
 203 745 203 745 221 764.5 c 128,-1,0
 239 784 239 784 274 784 c 128,-1,1
91 784 m 128,-1,9
 126 784 126 784 144.5 764.5 c 128,-1,10
 163 745 163 745 163 715.5 c 128,-1,11
 163 686 163 686 145 667 c 128,-1,12
 127 648 127 648 91 648 c 128,-1,13
 55 648 55 648 37.5 667 c 128,-1,14
 20 686 20 686 20 715.5 c 128,-1,15
 20 745 20 745 38 764.5 c 128,-1,8
 56 784 56 784 91 784 c 128,-1,9
EndSplineSet
EndChar

StartChar: copyright
Encoding: 169 169 107
Width: 585
GlyphClass: 2
Flags: W
LayerCount: 2
Fore
SplineSet
456 529 m 128,-1,1
 399 591 399 591 293.5 591 c 128,-1,2
 188 591 188 591 130.5 529 c 128,-1,3
 73 467 73 467 73 383.5 c 128,-1,4
 73 300 73 300 128.5 241 c 128,-1,5
 184 182 184 182 293 182 c 128,-1,6
 402 182 402 182 457.5 240.5 c 128,-1,7
 513 299 513 299 513 383 c 128,-1,0
 513 467 513 467 456 529 c 128,-1,1
293 646 m 128,-1,9
 362 646 362 646 417 622.5 c 128,-1,10
 472 599 472 599 504 562 c 0,11,12
 570 486 570 486 570 394 c 0,13,14
 570 278 570 278 500.5 203 c 128,-1,15
 431 128 431 128 293.5 128 c 128,-1,16
 156 128 156 128 85.5 203 c 128,-1,17
 15 278 15 278 15 394 c 0,18,19
 15 485 15 485 82 562 c 0,20,21
 114 599 114 599 169 622.5 c 128,-1,8
 224 646 224 646 293 646 c 128,-1,9
345 462 m 0,22,23
 276 462 276 462 276 386 c 0,24,25
 276 346 276 346 295 326.5 c 128,-1,26
 314 307 314 307 344 307 c 128,-1,27
 374 307 374 307 393 319 c 1,28,-1
 413 281 l 1,29,30
 368 247 368 247 303 247 c 128,-1,31
 238 247 238 247 197.5 282 c 128,-1,32
 157 317 157 317 157 387 c 128,-1,33
 157 457 157 457 196.5 492.5 c 128,-1,34
 236 528 236 528 301 528 c 128,-1,35
 366 528 366 528 412 494 c 1,36,-1
 393 454 l 1,37,38
 371 462 371 462 345 462 c 0,22,23
EndSplineSet
EndChar

StartChar: ordfeminine
Encoding: 170 170 108
Width: 394
GlyphClass: 2
Flags: W
LayerCount: 2
Fore
SplineSet
56 277 m 1,0,-1
 56 319 l 1,1,-1
 349 319 l 1,2,-1
 349 277 l 1,3,-1
 56 277 l 1,0,-1
141 365 m 0,4,5
 94 365 94 365 64 392.5 c 128,-1,6
 34 420 34 420 34 469.5 c 128,-1,7
 34 519 34 519 67.5 542 c 128,-1,8
 101 565 101 565 150 565 c 128,-1,9
 199 565 199 565 232 550 c 1,10,11
 224 600 224 600 169 600 c 0,12,13
 146 600 146 600 106 590 c 1,14,-1
 91 644 l 1,15,16
 147 666 147 666 201 666 c 0,17,18
 364 666 364 666 364 528 c 0,19,20
 364 475 364 475 354 397 c 1,21,-1
 350 371 l 1,22,-1
 250 371 l 1,23,-1
 246 405 l 1,24,25
 209 365 209 365 141 365 c 0,4,5
171 450 m 128,-1,27
 180 440 180 440 202 440 c 128,-1,28
 224 440 224 440 241 455 c 1,29,-1
 237 495 l 1,30,31
 226 505 226 505 206 505 c 128,-1,32
 186 505 186 505 174 496 c 128,-1,33
 162 487 162 487 162 473.5 c 128,-1,26
 162 460 162 460 171 450 c 128,-1,27
EndSplineSet
EndChar

StartChar: guillemotleft
Encoding: 171 171 109
Width: 422
GlyphClass: 2
Flags: W
LayerCount: 2
Fore
SplineSet
222 408 m 1,0,-1
 143 232 l 1,1,-1
 222 56 l 1,2,-1
 111 56 l 1,3,-1
 1 232 l 1,4,-1
 111 408 l 1,5,-1
 222 408 l 1,0,-1
407 408 m 1,6,-1
 328 232 l 1,7,-1
 407 56 l 1,8,-1
 296 56 l 1,9,-1
 186 232 l 1,10,-1
 296 408 l 1,11,-1
 407 408 l 1,6,-1
EndSplineSet
EndChar

StartChar: logicalnot
Encoding: 172 172 110
Width: 415
GlyphClass: 2
Flags: W
LayerCount: 2
Fore
SplineSet
30 247 m 1,0,-1
 30 345 l 1,1,-1
 385 345 l 1,2,-1
 385 157 l 1,3,-1
 287 157 l 1,4,-1
 287 247 l 1,5,-1
 30 247 l 1,0,-1
EndSplineSet
EndChar

StartChar: registered
Encoding: 174 174 111
Width: 585
GlyphClass: 2
Flags: W
LayerCount: 2
Fore
SplineSet
456 529 m 128,-1,1
 399 591 399 591 293.5 591 c 128,-1,2
 188 591 188 591 130.5 529 c 128,-1,3
 73 467 73 467 73 383.5 c 128,-1,4
 73 300 73 300 128.5 241 c 128,-1,5
 184 182 184 182 293 182 c 128,-1,6
 402 182 402 182 457.5 240.5 c 128,-1,7
 513 299 513 299 513 383 c 128,-1,0
 513 467 513 467 456 529 c 128,-1,1
293 646 m 128,-1,9
 362 646 362 646 417 622.5 c 128,-1,10
 472 599 472 599 504 562 c 0,11,12
 570 486 570 486 570 394 c 0,13,14
 570 278 570 278 500.5 203 c 128,-1,15
 431 128 431 128 293.5 128 c 128,-1,16
 156 128 156 128 85.5 203 c 128,-1,17
 15 278 15 278 15 394 c 0,18,19
 15 485 15 485 82 562 c 0,20,21
 114 599 114 599 169 622.5 c 128,-1,8
 224 646 224 646 293 646 c 128,-1,9
299 458 m 2,22,-1
 280 458 l 1,23,-1
 273 380 l 1,24,-1
 296 380 l 2,25,26
 315 380 315 380 327 392.5 c 128,-1,27
 339 405 339 405 339 422 c 0,28,29
 339 458 339 458 299 458 c 2,22,-1
450 425 m 0,30,31
 450 399 450 399 432 378 c 128,-1,32
 414 357 414 357 403 351.5 c 128,-1,33
 392 346 392 346 385 343 c 1,34,-1
 433 244 l 1,35,-1
 355 244 l 1,36,-1
 268 331 l 1,37,-1
 260 244 l 1,38,-1
 173 244 l 1,39,-1
 147 513 l 1,40,-1
 346 513 l 2,41,42
 394 513 394 513 422 491.5 c 128,-1,43
 450 470 450 470 450 425 c 0,30,31
EndSplineSet
EndChar

StartChar: macron
Encoding: 175 175 112
Width: 357
GlyphClass: 2
Flags: W
LayerCount: 2
Fore
SplineSet
337 599 m 1,0,-1
 20 599 l 1,1,-1
 20 699 l 1,2,-1
 337 699 l 1,3,-1
 337 599 l 1,0,-1
EndSplineSet
EndChar

StartChar: degree
Encoding: 176 176 113
Width: 410
GlyphClass: 2
Flags: W
LayerCount: 2
Fore
SplineSet
67.5 767 m 128,-1,1
 115 819 115 819 204.5 819 c 128,-1,2
 294 819 294 819 342 767 c 128,-1,3
 390 715 390 715 390 644 c 128,-1,4
 390 573 390 573 343 523.5 c 128,-1,5
 296 474 296 474 204.5 474 c 128,-1,6
 113 474 113 474 66.5 523.5 c 128,-1,7
 20 573 20 573 20 644 c 128,-1,0
 20 715 20 715 67.5 767 c 128,-1,1
253 688.5 m 128,-1,9
 236 707 236 707 204.5 707 c 128,-1,10
 173 707 173 707 156 688.5 c 128,-1,11
 139 670 139 670 139 645 c 128,-1,12
 139 620 139 620 155.5 602.5 c 128,-1,13
 172 585 172 585 204.5 585 c 128,-1,14
 237 585 237 585 253.5 602.5 c 128,-1,15
 270 620 270 620 270 645 c 128,-1,8
 270 670 270 670 253 688.5 c 128,-1,9
EndSplineSet
EndChar

StartChar: plusminus
Encoding: 177 177 114
Width: 415
GlyphClass: 2
Flags: W
LayerCount: 2
Fore
SplineSet
30 318 m 1,0,-1
 30 416 l 1,1,-1
 155 416 l 1,2,-1
 155 534 l 1,3,-1
 259 534 l 1,4,-1
 259 416 l 1,5,-1
 385 416 l 1,6,-1
 385 318 l 1,7,-1
 259 318 l 1,8,-1
 259 199 l 1,9,-1
 155 199 l 1,10,-1
 155 318 l 1,11,-1
 30 318 l 1,0,-1
30 60 m 1,12,-1
 30 148 l 1,13,-1
 385 148 l 1,14,-1
 385 60 l 1,15,-1
 30 60 l 1,12,-1
EndSplineSet
EndChar

StartChar: twosuperior
Encoding: 178 178 115
Width: 351
GlyphClass: 2
Flags: W
LayerCount: 2
Fore
SplineSet
326 277 m 1,0,-1
 15 277 l 1,1,-1
 15 337 l 1,2,3
 22 345 22 345 45.5 369 c 128,-1,4
 69 393 69 393 83 409 c 128,-1,5
 97 425 97 425 114 447 c 0,6,7
 150 492 150 492 150 522 c 0,8,9
 150 569 150 569 104 569 c 0,10,11
 76 569 76 569 46 556 c 1,12,-1
 28 624 l 1,13,14
 95 663 95 663 162 663 c 128,-1,15
 229 663 229 663 274.5 636 c 128,-1,16
 320 609 320 609 320 549 c 0,17,18
 319 458 319 458 174 370 c 1,19,-1
 178 362 l 1,20,-1
 326 392 l 1,21,-1
 326 277 l 1,0,-1
EndSplineSet
EndChar

StartChar: threesuperior
Encoding: 179 179 116
Width: 339
GlyphClass: 2
Flags: W
LayerCount: 2
Fore
SplineSet
170 408 m 0,0,1
 170 467 170 467 78 467 c 2,2,-1
 67 467 l 1,3,-1
 120 563 l 1,4,-1
 29 579 l 1,5,-1
 49 649 l 1,6,-1
 314 649 l 1,7,-1
 243 526 l 1,8,9
 294 509 294 509 314 458 c 0,10,11
 323 436 323 436 323 410 c 0,12,13
 323 347 323 347 274.5 306 c 128,-1,14
 226 265 226 265 158 265 c 0,15,16
 123 265 123 265 89.5 276.5 c 128,-1,17
 56 288 56 288 40 300 c 2,18,-1
 24 311 l 1,19,-1
 54 371 l 1,20,21
 82 354 82 354 110 354 c 0,22,23
 170 354 170 354 170 408 c 0,0,1
EndSplineSet
EndChar

StartChar: acute
Encoding: 180 180 117
Width: 329
GlyphClass: 2
Flags: W
LayerCount: 2
Fore
SplineSet
149 781 m 2,0,1
 172 818 172 818 204.5 818 c 128,-1,2
 237 818 237 818 256 799.5 c 128,-1,3
 275 781 275 781 275 749.5 c 128,-1,4
 275 718 275 718 239 697 c 2,5,-1
 181 663 l 1,6,-1
 77 663 l 1,7,-1
 149 781 l 2,0,1
EndSplineSet
EndChar

StartChar: mu
Encoding: 181 181 118
Width: 612
GlyphClass: 2
Flags: W
LayerCount: 2
Fore
SplineSet
245 -171 m 1,0,-1
 20 -171 l 1,1,-1
 50 474 l 1,2,-1
 254 474 l 1,3,-1
 254 265 l 2,4,5
 254 179 254 179 284 152 c 0,6,7
 295 142 295 142 309 142 c 0,8,9
 341 142 341 142 353.5 177.5 c 128,-1,10
 366 213 366 213 366 234 c 128,-1,11
 366 255 366 255 366 260 c 2,12,-1
 357 474 l 1,13,-1
 582 474 l 1,14,-1
 561 0 l 1,15,-1
 392 0 l 1,16,-1
 382 85 l 1,17,18
 365 52 365 52 333 28 c 128,-1,19
 301 4 301 4 264 4 c 0,20,21
 259 4 259 4 245 6 c 1,22,-1
 245 -171 l 1,0,-1
EndSplineSet
EndChar

StartChar: paragraph
Encoding: 182 182 119
Width: 476
GlyphClass: 2
Flags: W
LayerCount: 2
Fore
SplineSet
268 606 m 1,0,-1
 268 0 l 1,1,-1
 201 0 l 1,2,-1
 171 303 l 1,3,4
 97 305 97 305 53.5 341.5 c 128,-1,5
 10 378 10 378 10 452.5 c 128,-1,6
 10 527 10 527 54 566.5 c 128,-1,7
 98 606 98 606 180 606 c 2,8,-1
 268 606 l 1,0,-1
329 0 m 1,9,-1
 329 606 l 1,10,-1
 456 606 l 1,11,-1
 396 0 l 1,12,-1
 329 0 l 1,9,-1
EndSplineSet
EndChar

StartChar: periodcentered
Encoding: 183 183 120
Width: 212
GlyphClass: 2
Flags: W
LayerCount: 2
Fore
SplineSet
106 369 m 128,-1,1
 144 369 144 369 163 348.5 c 128,-1,2
 182 328 182 328 182 297 c 128,-1,3
 182 266 182 266 163 245.5 c 128,-1,4
 144 225 144 225 106 225 c 128,-1,5
 68 225 68 225 49 245.5 c 128,-1,6
 30 266 30 266 30 297 c 128,-1,7
 30 328 30 328 49 348.5 c 128,-1,0
 68 369 68 369 106 369 c 128,-1,1
EndSplineSet
EndChar

StartChar: cedilla
Encoding: 184 184 121
Width: 268
GlyphClass: 2
Flags: W
LayerCount: 2
Fore
SplineSet
176 -146 m 2,0,1
 153 -183 153 -183 120.5 -183 c 128,-1,2
 88 -183 88 -183 69 -164.5 c 128,-1,3
 50 -146 50 -146 50 -114.5 c 128,-1,4
 50 -83 50 -83 86 -62 c 2,5,-1
 144 -28 l 1,6,-1
 248 -28 l 1,7,-1
 176 -146 l 2,0,1
EndSplineSet
EndChar

StartChar: onesuperior
Encoding: 185 185 122
Width: 287
GlyphClass: 2
Flags: W
LayerCount: 2
Fore
SplineSet
113 277 m 1,0,-1
 75 570 l 1,1,-1
 23 581 l 1,2,-1
 18 649 l 1,3,-1
 265 649 l 1,4,-1
 227 277 l 1,5,-1
 113 277 l 1,0,-1
EndSplineSet
EndChar

StartChar: ordmasculine
Encoding: 186 186 123
Width: 379
GlyphClass: 2
Flags: W
LayerCount: 2
Fore
SplineSet
70.5 626 m 128,-1,1
 111 664 111 664 189.5 664 c 128,-1,2
 268 664 268 664 308.5 626 c 128,-1,3
 349 588 349 588 349 513 c 128,-1,4
 349 438 349 438 306 401.5 c 128,-1,5
 263 365 263 365 190 365 c 128,-1,6
 117 365 117 365 73.5 401.5 c 128,-1,7
 30 438 30 438 30 513 c 128,-1,0
 30 588 30 588 70.5 626 c 128,-1,1
219.5 581.5 m 128,-1,9
 212 603 212 603 189.5 603 c 128,-1,10
 167 603 167 603 159.5 581.5 c 128,-1,11
 152 560 152 560 152 514.5 c 128,-1,12
 152 469 152 469 160.5 447.5 c 128,-1,13
 169 426 169 426 190 426 c 128,-1,14
 211 426 211 426 219 447.5 c 128,-1,15
 227 469 227 469 227 514.5 c 128,-1,8
 227 560 227 560 219.5 581.5 c 128,-1,9
46 277 m 1,16,-1
 46 329 l 1,17,-1
 339 329 l 1,18,-1
 339 277 l 1,19,-1
 46 277 l 1,16,-1
EndSplineSet
EndChar

StartChar: guillemotright
Encoding: 187 187 124
Width: 422
GlyphClass: 2
Flags: W
LayerCount: 2
Fore
SplineSet
279 232 m 1,0,-1
 200 408 l 1,1,-1
 311 408 l 1,2,-1
 421 232 l 1,3,-1
 311 56 l 1,4,-1
 200 56 l 1,5,-1
 279 232 l 1,0,-1
94 232 m 1,6,-1
 15 408 l 1,7,-1
 126 408 l 1,8,-1
 236 232 l 1,9,-1
 126 56 l 1,10,-1
 15 56 l 1,11,-1
 94 232 l 1,6,-1
EndSplineSet
EndChar

StartChar: onequarter
Encoding: 188 188 125
Width: 979
GlyphClass: 2
Flags: W
LayerCount: 2
Fore
SplineSet
156 167 m 1,0,-1
 117 469 l 1,1,-1
 64 480 l 1,2,-1
 59 550 l 1,3,-1
 313 550 l 1,4,-1
 273 167 l 1,5,-1
 156 167 l 1,0,-1
256 -87 m 1,6,-1
 507 663 l 1,7,-1
 654 663 l 1,8,-1
 400 -87 l 1,9,-1
 256 -87 l 1,6,-1
662 383 m 1,10,-1
 895 383 l 1,11,-1
 875 186 l 1,12,-1
 916 186 l 1,13,-1
 904 96 l 1,14,-1
 866 96 l 1,15,-1
 856 0 l 1,16,-1
 747 0 l 1,17,-1
 737 96 l 1,18,-1
 568 96 l 1,19,-1
 573 186 l 1,20,-1
 662 383 l 1,10,-1
718 292 m 1,21,-1
 668 186 l 1,22,-1
 728 186 l 1,23,-1
 718 292 l 1,21,-1
EndSplineSet
EndChar

StartChar: onehalf
Encoding: 189 189 126
Width: 968
GlyphClass: 2
Flags: W
LayerCount: 2
Fore
SplineSet
897 274 m 0,0,1
 897 183 897 183 750 94 c 1,2,-1
 754 85 l 1,3,-1
 903 116 l 1,4,-1
 903 0 l 1,5,-1
 590 0 l 1,6,-1
 590 61 l 1,7,8
 643 114 643 114 690 171 c 0,9,10
 726 215 726 215 726 247 c 0,11,12
 726 294 726 294 680 294 c 0,13,14
 651 294 651 294 621 281 c 1,15,-1
 604 350 l 1,16,-1
 623 360 l 2,17,18
 642 370 642 370 676.5 379.5 c 128,-1,19
 711 389 711 389 743 389 c 0,20,21
 829 389 829 389 872 343 c 0,22,23
 897 316 897 316 897 274 c 0,0,1
156 167 m 1,24,-1
 117 469 l 1,25,-1
 64 480 l 1,26,-1
 59 550 l 1,27,-1
 313 550 l 1,28,-1
 273 167 l 1,29,-1
 156 167 l 1,24,-1
256 -87 m 1,30,-1
 507 663 l 1,31,-1
 654 663 l 1,32,-1
 400 -87 l 1,33,-1
 256 -87 l 1,30,-1
EndSplineSet
EndChar

StartChar: threequarters
Encoding: 190 190 127
Width: 1020
GlyphClass: 2
Flags: W
LayerCount: 2
Fore
SplineSet
211 306 m 0,0,1
 211 366 211 366 118 366 c 2,2,-1
 107 366 l 1,3,-1
 160 463 l 1,4,-1
 69 480 l 1,5,-1
 89 550 l 1,6,-1
 357 550 l 1,7,-1
 285 426 l 1,8,9
 336 409 336 409 358 356 c 0,10,11
 367 334 367 334 367 308 c 0,12,13
 367 245 367 245 318 203 c 128,-1,14
 269 161 269 161 199 161 c 0,15,16
 163 161 163 161 129.5 172.5 c 128,-1,17
 96 184 96 184 80 196 c 2,18,-1
 64 207 l 1,19,-1
 94 268 l 1,20,21
 125 251 125 251 152.5 251 c 128,-1,22
 180 251 180 251 195.5 265 c 128,-1,23
 211 279 211 279 211 306 c 0,0,1
297 -87 m 1,24,-1
 548 663 l 1,25,-1
 695 663 l 1,26,-1
 441 -87 l 1,27,-1
 297 -87 l 1,24,-1
703 383 m 1,28,-1
 936 383 l 1,29,-1
 916 186 l 1,30,-1
 957 186 l 1,31,-1
 945 96 l 1,32,-1
 907 96 l 1,33,-1
 897 0 l 1,34,-1
 788 0 l 1,35,-1
 778 96 l 1,36,-1
 609 96 l 1,37,-1
 614 186 l 1,38,-1
 703 383 l 1,28,-1
759 292 m 1,39,-1
 709 186 l 1,40,-1
 769 186 l 1,41,-1
 759 292 l 1,39,-1
EndSplineSet
EndChar

StartChar: questiondown
Encoding: 191 191 128
Width: 476
GlyphClass: 2
Flags: W
LayerCount: 2
Fore
SplineSet
347 -6 m 0,0,1
 392 -6 392 -6 441 27 c 1,2,-1
 469 -83 l 1,3,4
 384 -146 384 -146 266 -146 c 0,5,6
 188 -146 188 -146 134 -110 c 0,7,8
 57 -59 57 -59 57 17 c 0,9,10
 57 52 57 52 74 92 c 0,11,12
 101 154 101 154 172 201 c 1,13,-1
 211 319 l 1,14,15
 233 305 233 305 265 305 c 128,-1,16
 297 305 297 305 329 319 c 1,17,-1
 370 200 l 1,18,19
 328 164 328 164 304 129.5 c 128,-1,20
 280 95 280 95 278 78 c 1,21,-1
 275 62 l 1,22,23
 276 24 276 24 298.5 9 c 128,-1,24
 321 -6 321 -6 347 -6 c 0,0,1
268 344 m 128,-1,26
 230 344 230 344 211 364.5 c 128,-1,27
 192 385 192 385 192 416 c 128,-1,28
 192 447 192 447 211 467.5 c 128,-1,29
 230 488 230 488 268 488 c 128,-1,30
 306 488 306 488 325 467.5 c 128,-1,31
 344 447 344 447 344 416 c 128,-1,32
 344 385 344 385 325 364.5 c 128,-1,25
 306 344 306 344 268 344 c 128,-1,26
EndSplineSet
EndChar

StartChar: Agrave
Encoding: 192 192 129
Width: 694
GlyphClass: 2
Flags: W
LayerCount: 2
Fore
SplineSet
485 0 m 1,0,-1
 445 101 l 1,1,-1
 190 101 l 1,2,-1
 152 0 l 1,3,-1
 10 0 l 1,4,-1
 179 606 l 1,5,-1
 535 606 l 1,6,-1
 704 0 l 1,7,-1
 485 0 l 1,0,-1
394 231 m 1,8,-1
 315 431 l 1,9,-1
 239 231 l 1,10,-1
 394 231 l 1,8,-1
245 687 m 2,11,12
 209 708 209 708 209 739.5 c 128,-1,13
 209 771 209 771 228 789.5 c 128,-1,14
 247 808 247 808 279.5 808 c 128,-1,15
 312 808 312 808 335 771 c 2,16,-1
 407 653 l 1,17,-1
 303 653 l 1,18,-1
 245 687 l 2,11,12
EndSplineSet
EndChar

StartChar: Aacute
Encoding: 193 193 130
Width: 694
GlyphClass: 2
Flags: W
LayerCount: 2
Fore
SplineSet
485 0 m 1,0,-1
 445 101 l 1,1,-1
 190 101 l 1,2,-1
 152 0 l 1,3,-1
 10 0 l 1,4,-1
 179 606 l 1,5,-1
 535 606 l 1,6,-1
 704 0 l 1,7,-1
 485 0 l 1,0,-1
394 231 m 1,8,-1
 315 431 l 1,9,-1
 239 231 l 1,10,-1
 394 231 l 1,8,-1
367 771 m 2,11,12
 390 808 390 808 422.5 808 c 128,-1,13
 455 808 455 808 474 789.5 c 128,-1,14
 493 771 493 771 493 739.5 c 128,-1,15
 493 708 493 708 457 687 c 2,16,-1
 399 653 l 1,17,-1
 295 653 l 1,18,-1
 367 771 l 2,11,12
EndSplineSet
EndChar

StartChar: Acircumflex
Encoding: 194 194 131
Width: 694
GlyphClass: 2
Flags: W
LayerCount: 2
Fore
SplineSet
485 0 m 1,0,-1
 445 101 l 1,1,-1
 190 101 l 1,2,-1
 152 0 l 1,3,-1
 10 0 l 1,4,-1
 179 606 l 1,5,-1
 535 606 l 1,6,-1
 704 0 l 1,7,-1
 485 0 l 1,0,-1
394 231 m 1,8,-1
 315 431 l 1,9,-1
 239 231 l 1,10,-1
 394 231 l 1,8,-1
344 808 m 2,11,-1
 370 808 l 2,12,13
 403 808 403 808 422.5 796.5 c 128,-1,14
 442 785 442 785 458 759 c 2,15,-1
 523 653 l 1,16,-1
 419 653 l 1,17,-1
 357 715 l 1,18,-1
 295 653 l 1,19,-1
 191 653 l 1,20,-1
 256 759 l 2,21,22
 272 785 272 785 291.5 796.5 c 128,-1,23
 311 808 311 808 344 808 c 2,11,-1
EndSplineSet
EndChar

StartChar: Atilde
Encoding: 195 195 132
Width: 694
GlyphClass: 2
Flags: W
LayerCount: 2
Fore
SplineSet
485 0 m 1,0,-1
 445 101 l 1,1,-1
 190 101 l 1,2,-1
 152 0 l 1,3,-1
 10 0 l 1,4,-1
 179 606 l 1,5,-1
 535 606 l 1,6,-1
 704 0 l 1,7,-1
 485 0 l 1,0,-1
394 231 m 1,8,-1
 315 431 l 1,9,-1
 239 231 l 1,10,-1
 394 231 l 1,8,-1
413 646 m 0,11,12
 390 646 390 646 371.5 664.5 c 128,-1,13
 353 683 353 683 344.5 683 c 128,-1,14
 336 683 336 683 332 680 c 2,15,-1
 274 646 l 1,16,-1
 191 681 l 1,17,-1
 242 764 l 2,18,19
 265 801 265 801 303 801 c 0,20,21
 322 801 322 801 336.5 788.5 c 128,-1,22
 351 776 351 776 361 767.5 c 128,-1,23
 371 759 371 759 384 767 c 2,24,-1
 442 801 l 1,25,-1
 525 766 l 1,26,-1
 474 683 l 2,27,28
 451 646 451 646 413 646 c 0,11,12
EndSplineSet
EndChar

StartChar: Adieresis
Encoding: 196 196 133
Width: 694
GlyphClass: 2
Flags: W
LayerCount: 2
Fore
SplineSet
485 0 m 1,0,-1
 445 101 l 1,1,-1
 190 101 l 1,2,-1
 152 0 l 1,3,-1
 10 0 l 1,4,-1
 179 606 l 1,5,-1
 535 606 l 1,6,-1
 704 0 l 1,7,-1
 485 0 l 1,0,-1
394 231 m 1,8,-1
 315 431 l 1,9,-1
 239 231 l 1,10,-1
 394 231 l 1,8,-1
448 798 m 128,-1,12
 483 798 483 798 501.5 778.5 c 128,-1,13
 520 759 520 759 520 729.5 c 128,-1,14
 520 700 520 700 502 681 c 128,-1,15
 484 662 484 662 448 662 c 128,-1,16
 412 662 412 662 394.5 681 c 128,-1,17
 377 700 377 700 377 729.5 c 128,-1,18
 377 759 377 759 395 778.5 c 128,-1,11
 413 798 413 798 448 798 c 128,-1,12
265 798 m 128,-1,20
 300 798 300 798 318.5 778.5 c 128,-1,21
 337 759 337 759 337 729.5 c 128,-1,22
 337 700 337 700 319 681 c 128,-1,23
 301 662 301 662 265 662 c 128,-1,24
 229 662 229 662 211.5 681 c 128,-1,25
 194 700 194 700 194 729.5 c 128,-1,26
 194 759 194 759 212 778.5 c 128,-1,19
 230 798 230 798 265 798 c 128,-1,20
EndSplineSet
EndChar

StartChar: Aring
Encoding: 197 197 134
Width: 694
GlyphClass: 2
Flags: W
LayerCount: 2
Fore
SplineSet
485 0 m 1,0,-1
 445 101 l 1,1,-1
 190 101 l 1,2,-1
 152 0 l 1,3,-1
 10 0 l 1,4,-1
 179 606 l 1,5,-1
 535 606 l 1,6,-1
 704 0 l 1,7,-1
 485 0 l 1,0,-1
394 231 m 1,8,-1
 315 431 l 1,9,-1
 239 231 l 1,10,-1
 394 231 l 1,8,-1
362 592 m 2,11,12
 410 592 410 592 436 610.5 c 128,-1,13
 462 629 462 629 462 675 c 128,-1,14
 462 721 462 721 437.5 740 c 128,-1,15
 413 759 413 759 362 759 c 2,16,-1
 352 759 l 2,17,18
 301 759 301 759 276.5 740 c 128,-1,19
 252 721 252 721 252 675 c 128,-1,20
 252 629 252 629 278 610.5 c 128,-1,21
 304 592 304 592 352 592 c 2,22,-1
 362 592 l 2,11,12
355 654 m 2,23,24
 334 654 334 654 327 661 c 0,25,26
 322 666 322 666 322 678 c 128,-1,27
 322 690 322 690 329.5 694.5 c 128,-1,28
 337 699 337 699 355 699 c 2,29,-1
 359 699 l 2,30,31
 377 699 377 699 384.5 694.5 c 128,-1,32
 392 690 392 690 392 678 c 128,-1,33
 392 666 392 666 386 660 c 128,-1,34
 380 654 380 654 359 654 c 2,35,-1
 355 654 l 2,23,24
EndSplineSet
EndChar

StartChar: AE
Encoding: 198 198 135
Width: 909
GlyphClass: 2
Flags: W
LayerCount: 2
Fore
SplineSet
671 233 m 2,0,1
 671 172 671 172 691 150.5 c 128,-1,2
 711 129 711 129 740 129 c 0,3,4
 788 129 788 129 836 145 c 2,5,-1
 851 150 l 1,6,-1
 894 64 l 1,7,8
 885 56 885 56 867 43.5 c 128,-1,9
 849 31 849 31 786.5 10.5 c 128,-1,10
 724 -10 724 -10 652 -10 c 0,11,12
 492 -10 492 -10 430 101 c 1,13,-1
 190 101 l 1,14,-1
 152 0 l 1,15,-1
 10 0 l 1,16,-1
 179 606 l 1,17,-1
 837 606 l 1,18,-1
 865 486 l 1,19,-1
 695 471 l 1,20,-1
 685 374 l 1,21,-1
 819 374 l 1,22,-1
 839 280 l 1,23,-1
 671 238 l 1,24,-1
 671 233 l 2,0,1
394 231 m 1,25,-1
 315 431 l 1,26,-1
 239 231 l 1,27,-1
 394 231 l 1,25,-1
EndSplineSet
EndChar

StartChar: Ccedilla
Encoding: 199 199 136
Width: 608
GlyphClass: 2
Flags: W
LayerCount: 2
Fore
SplineSet
338 620 m 0,0,1
 396 620 396 620 463.5 599 c 128,-1,2
 531 578 531 578 574 546 c 1,3,-1
 532 457 l 1,4,5
 488 474 488 474 435 474 c 0,6,7
 287 474 287 474 287 302 c 0,8,9
 287 219 287 219 327.5 172.5 c 128,-1,10
 368 126 368 126 425.5 126 c 128,-1,11
 483 126 483 126 533 150 c 1,12,-1
 578 64 l 1,13,14
 477 -10 477 -10 337 -10 c 128,-1,15
 197 -10 197 -10 108.5 72 c 128,-1,16
 20 154 20 154 20 307.5 c 128,-1,17
 20 461 20 461 107 540.5 c 128,-1,18
 194 620 194 620 338 620 c 0,0,1
335 -146 m 2,19,20
 312 -183 312 -183 279.5 -183 c 128,-1,21
 247 -183 247 -183 228 -164.5 c 128,-1,22
 209 -146 209 -146 209 -114.5 c 128,-1,23
 209 -83 209 -83 245 -62 c 2,24,-1
 303 -28 l 1,25,-1
 407 -28 l 1,26,-1
 335 -146 l 2,19,20
EndSplineSet
EndChar

StartChar: Egrave
Encoding: 200 200 137
Width: 557
GlyphClass: 2
Flags: W
LayerCount: 2
Fore
SplineSet
319 233 m 2,0,1
 319 172 319 172 339 150.5 c 128,-1,2
 359 129 359 129 388 129 c 0,3,4
 436 129 436 129 484 145 c 2,5,-1
 499 150 l 1,6,-1
 542 64 l 1,7,8
 533 56 533 56 515 43.5 c 128,-1,9
 497 31 497 31 434.5 10.5 c 128,-1,10
 372 -10 372 -10 305.5 -10 c 128,-1,11
 239 -10 239 -10 194 9 c 128,-1,12
 149 28 149 28 125 53.5 c 128,-1,13
 101 79 101 79 86 121.5 c 128,-1,14
 71 164 71 164 66.5 194 c 128,-1,15
 62 224 62 224 59 269 c 2,16,-1
 35 606 l 1,17,-1
 485 606 l 1,18,-1
 513 486 l 1,19,-1
 343 471 l 1,20,-1
 333 374 l 1,21,-1
 467 374 l 1,22,-1
 487 280 l 1,23,-1
 319 238 l 1,24,-1
 319 233 l 2,0,1
163 687 m 2,25,26
 127 708 127 708 127 739.5 c 128,-1,27
 127 771 127 771 146 789.5 c 128,-1,28
 165 808 165 808 197.5 808 c 128,-1,29
 230 808 230 808 253 771 c 2,30,-1
 325 653 l 1,31,-1
 221 653 l 1,32,-1
 163 687 l 2,25,26
EndSplineSet
EndChar

StartChar: Eacute
Encoding: 201 201 138
Width: 557
GlyphClass: 2
Flags: W
LayerCount: 2
Fore
SplineSet
194 9 m 128,-1,1
 149 28 149 28 125 53.5 c 128,-1,2
 101 79 101 79 86 121.5 c 128,-1,3
 71 164 71 164 66.5 194 c 128,-1,4
 62 224 62 224 59 269 c 2,5,-1
 35 606 l 1,6,-1
 485 606 l 1,7,-1
 513 486 l 1,8,-1
 343 471 l 1,9,-1
 333 374 l 1,10,-1
 467 374 l 1,11,-1
 487 280 l 1,12,-1
 319 238 l 1,13,-1
 319 233 l 2,14,15
 319 172 319 172 339 150.5 c 128,-1,16
 359 129 359 129 402 129 c 128,-1,17
 445 129 445 129 499 150 c 1,18,-1
 542 64 l 1,19,-1
 532 56 l 2,20,21
 509 38 509 38 455 16 c 0,22,23
 428 5 428 5 386.5 -2.5 c 128,-1,24
 345 -10 345 -10 292 -10 c 128,-1,0
 239 -10 239 -10 194 9 c 128,-1,1
263 771 m 2,25,26
 286 808 286 808 318.5 808 c 128,-1,27
 351 808 351 808 370 789.5 c 128,-1,28
 389 771 389 771 389 739.5 c 128,-1,29
 389 708 389 708 353 687 c 2,30,-1
 295 653 l 1,31,-1
 191 653 l 1,32,-1
 263 771 l 2,25,26
EndSplineSet
EndChar

StartChar: Ecircumflex
Encoding: 202 202 139
Width: 557
GlyphClass: 2
Flags: W
LayerCount: 2
Fore
SplineSet
194 9 m 128,-1,1
 149 28 149 28 125 53.5 c 128,-1,2
 101 79 101 79 86 121.5 c 128,-1,3
 71 164 71 164 66.5 194 c 128,-1,4
 62 224 62 224 59 269 c 2,5,-1
 35 606 l 1,6,-1
 485 606 l 1,7,-1
 513 486 l 1,8,-1
 343 471 l 1,9,-1
 333 374 l 1,10,-1
 467 374 l 1,11,-1
 487 280 l 1,12,-1
 319 238 l 1,13,-1
 319 233 l 2,14,15
 319 172 319 172 339 150.5 c 128,-1,16
 359 129 359 129 402 129 c 128,-1,17
 445 129 445 129 499 150 c 1,18,-1
 542 64 l 1,19,-1
 532 56 l 2,20,21
 509 38 509 38 455 16 c 0,22,23
 428 5 428 5 386.5 -2.5 c 128,-1,24
 345 -10 345 -10 292 -10 c 128,-1,0
 239 -10 239 -10 194 9 c 128,-1,1
263 808 m 2,25,-1
 289 808 l 2,26,27
 322 808 322 808 341.5 796.5 c 128,-1,28
 361 785 361 785 377 759 c 2,29,-1
 442 653 l 1,30,-1
 338 653 l 1,31,-1
 276 715 l 1,32,-1
 214 653 l 1,33,-1
 110 653 l 1,34,-1
 175 759 l 2,35,36
 191 785 191 785 210.5 796.5 c 128,-1,37
 230 808 230 808 263 808 c 2,25,-1
EndSplineSet
EndChar

StartChar: Edieresis
Encoding: 203 203 140
Width: 557
GlyphClass: 2
Flags: W
LayerCount: 2
Fore
SplineSet
194 9 m 128,-1,1
 149 28 149 28 125 53.5 c 128,-1,2
 101 79 101 79 86 121.5 c 128,-1,3
 71 164 71 164 66.5 194 c 128,-1,4
 62 224 62 224 59 269 c 2,5,-1
 35 606 l 1,6,-1
 485 606 l 1,7,-1
 513 486 l 1,8,-1
 343 471 l 1,9,-1
 333 374 l 1,10,-1
 467 374 l 1,11,-1
 487 280 l 1,12,-1
 319 238 l 1,13,-1
 319 233 l 2,14,15
 319 172 319 172 339 150.5 c 128,-1,16
 359 129 359 129 402 129 c 128,-1,17
 445 129 445 129 499 150 c 1,18,-1
 542 64 l 1,19,-1
 532 56 l 2,20,21
 509 38 509 38 455 16 c 0,22,23
 428 5 428 5 386.5 -2.5 c 128,-1,24
 345 -10 345 -10 292 -10 c 128,-1,0
 239 -10 239 -10 194 9 c 128,-1,1
351 798 m 128,-1,26
 386 798 386 798 404.5 778.5 c 128,-1,27
 423 759 423 759 423 729.5 c 128,-1,28
 423 700 423 700 405 681 c 128,-1,29
 387 662 387 662 351 662 c 128,-1,30
 315 662 315 662 297.5 681 c 128,-1,31
 280 700 280 700 280 729.5 c 128,-1,32
 280 759 280 759 298 778.5 c 128,-1,25
 316 798 316 798 351 798 c 128,-1,26
168 798 m 128,-1,34
 203 798 203 798 221.5 778.5 c 128,-1,35
 240 759 240 759 240 729.5 c 128,-1,36
 240 700 240 700 222 681 c 128,-1,37
 204 662 204 662 168 662 c 128,-1,38
 132 662 132 662 114.5 681 c 128,-1,39
 97 700 97 700 97 729.5 c 128,-1,40
 97 759 97 759 115 778.5 c 128,-1,33
 133 798 133 798 168 798 c 128,-1,34
EndSplineSet
EndChar

StartChar: Igrave
Encoding: 204 204 141
Width: 365
GlyphClass: 2
Flags: W
LayerCount: 2
Fore
SplineSet
85 0 m 1,0,-1
 25 606 l 1,1,-1
 340 606 l 1,2,-1
 280 0 l 1,3,-1
 85 0 l 1,0,-1
98 687 m 2,4,5
 62 708 62 708 62 739.5 c 128,-1,6
 62 771 62 771 81 789.5 c 128,-1,7
 100 808 100 808 132.5 808 c 128,-1,8
 165 808 165 808 188 771 c 2,9,-1
 260 653 l 1,10,-1
 156 653 l 1,11,-1
 98 687 l 2,4,5
EndSplineSet
EndChar

StartChar: Iacute
Encoding: 205 205 142
Width: 365
GlyphClass: 2
Flags: W
LayerCount: 2
Fore
SplineSet
85 0 m 1,0,-1
 25 606 l 1,1,-1
 340 606 l 1,2,-1
 280 0 l 1,3,-1
 85 0 l 1,0,-1
176 771 m 2,4,5
 199 808 199 808 231.5 808 c 128,-1,6
 264 808 264 808 283 789.5 c 128,-1,7
 302 771 302 771 302 739.5 c 128,-1,8
 302 708 302 708 266 687 c 2,9,-1
 208 653 l 1,10,-1
 104 653 l 1,11,-1
 176 771 l 2,4,5
EndSplineSet
EndChar

StartChar: Icircumflex
Encoding: 206 206 143
Width: 365
GlyphClass: 2
Flags: W
LayerCount: 2
Fore
SplineSet
85 0 m 1,0,-1
 25 606 l 1,1,-1
 340 606 l 1,2,-1
 280 0 l 1,3,-1
 85 0 l 1,0,-1
167 808 m 2,4,-1
 193 808 l 2,5,6
 226 808 226 808 245.5 796.5 c 128,-1,7
 265 785 265 785 281 759 c 2,8,-1
 346 653 l 1,9,-1
 242 653 l 1,10,-1
 180 715 l 1,11,-1
 118 653 l 1,12,-1
 14 653 l 1,13,-1
 79 759 l 2,14,15
 95 785 95 785 114.5 796.5 c 128,-1,16
 134 808 134 808 167 808 c 2,4,-1
EndSplineSet
EndChar

StartChar: Idieresis
Encoding: 207 207 144
Width: 365
GlyphClass: 2
Flags: W
LayerCount: 2
Fore
SplineSet
85 0 m 1,0,-1
 25 606 l 1,1,-1
 340 606 l 1,2,-1
 280 0 l 1,3,-1
 85 0 l 1,0,-1
274 798 m 128,-1,5
 309 798 309 798 327.5 778.5 c 128,-1,6
 346 759 346 759 346 729.5 c 128,-1,7
 346 700 346 700 328 681 c 128,-1,8
 310 662 310 662 274 662 c 128,-1,9
 238 662 238 662 220.5 681 c 128,-1,10
 203 700 203 700 203 729.5 c 128,-1,11
 203 759 203 759 221 778.5 c 128,-1,4
 239 798 239 798 274 798 c 128,-1,5
91 798 m 128,-1,13
 126 798 126 798 144.5 778.5 c 128,-1,14
 163 759 163 759 163 729.5 c 128,-1,15
 163 700 163 700 145 681 c 128,-1,16
 127 662 127 662 91 662 c 128,-1,17
 55 662 55 662 37.5 681 c 128,-1,18
 20 700 20 700 20 729.5 c 128,-1,19
 20 759 20 759 38 778.5 c 128,-1,12
 56 798 56 798 91 798 c 128,-1,13
EndSplineSet
EndChar

StartChar: Eth
Encoding: 208 208 145
Width: 691
GlyphClass: 2
Flags: W
LayerCount: 2
Fore
SplineSet
-21 253 m 1,0,-1
 -21 351 l 1,1,-1
 50 351 l 1,2,-1
 25 606 l 1,3,-1
 320 606 l 2,4,5
 543 606 543 606 627 484 c 0,6,7
 671 419 671 419 671 330 c 0,8,9
 671 0 671 0 281 0 c 2,10,-1
 85 0 l 1,11,-1
 60 253 l 1,12,-1
 -21 253 l 1,0,-1
369 351 m 1,13,-1
 369 253 l 1,14,-1
 294 253 l 1,15,-1
 279 101 l 1,16,-1
 285 101 l 2,17,18
 354 101 354 101 392 174 c 128,-1,19
 430 247 430 247 430 327.5 c 128,-1,20
 430 408 430 408 401 456 c 128,-1,21
 372 504 372 504 326 504 c 2,22,-1
 320 504 l 1,23,-1
 304 351 l 1,24,-1
 369 351 l 1,13,-1
EndSplineSet
EndChar

StartChar: Ntilde
Encoding: 209 209 146
Width: 775
GlyphClass: 2
Flags: W
LayerCount: 2
Fore
SplineSet
436 649 m 0,0,1
 413 649 413 649 394.5 667.5 c 128,-1,2
 376 686 376 686 367.5 686 c 128,-1,3
 359 686 359 686 355 683 c 2,4,-1
 297 649 l 1,5,-1
 214 684 l 1,6,-1
 265 767 l 2,7,8
 288 804 288 804 326 804 c 0,9,10
 345 804 345 804 359.5 791.5 c 128,-1,11
 374 779 374 779 384 770.5 c 128,-1,12
 394 762 394 762 407 770 c 2,13,-1
 465 804 l 1,14,-1
 548 769 l 1,15,-1
 497 686 l 2,16,17
 474 649 474 649 436 649 c 0,0,1
370 606 m 1,18,-1
 547 253 l 1,19,-1
 519 606 l 1,20,-1
 750 606 l 1,21,-1
 700 0 l 1,22,-1
 407 0 l 1,23,-1
 239 330 l 1,24,-1
 206 0 l 1,25,-1
 75 0 l 1,26,-1
 25 606 l 1,27,-1
 370 606 l 1,18,-1
EndSplineSet
EndChar

StartChar: Ograve
Encoding: 210 210 147
Width: 747
GlyphClass: 2
Flags: W
LayerCount: 2
Fore
SplineSet
111.5 538 m 128,-1,1
 203 620 203 620 373.5 620 c 128,-1,2
 544 620 544 620 635.5 538 c 128,-1,3
 727 456 727 456 727 299 c 128,-1,4
 727 142 727 142 630.5 66 c 128,-1,5
 534 -10 534 -10 373.5 -10 c 128,-1,6
 213 -10 213 -10 116.5 66 c 128,-1,7
 20 142 20 142 20 299 c 128,-1,0
 20 456 20 456 111.5 538 c 128,-1,1
373.5 505 m 128,-1,9
 286 505 286 505 286 303 c 128,-1,10
 286 101 286 101 373.5 101 c 128,-1,11
 461 101 461 101 461 303 c 128,-1,8
 461 505 461 505 373.5 505 c 128,-1,9
261 687 m 2,12,13
 225 708 225 708 225 739.5 c 128,-1,14
 225 771 225 771 244 789.5 c 128,-1,15
 263 808 263 808 295.5 808 c 128,-1,16
 328 808 328 808 351 771 c 2,17,-1
 423 653 l 1,18,-1
 319 653 l 1,19,-1
 261 687 l 2,12,13
EndSplineSet
EndChar

StartChar: Oacute
Encoding: 211 211 148
Width: 747
GlyphClass: 2
Flags: W
LayerCount: 2
Fore
SplineSet
111.5 538 m 128,-1,1
 203 620 203 620 373.5 620 c 128,-1,2
 544 620 544 620 635.5 538 c 128,-1,3
 727 456 727 456 727 299 c 128,-1,4
 727 142 727 142 630.5 66 c 128,-1,5
 534 -10 534 -10 373.5 -10 c 128,-1,6
 213 -10 213 -10 116.5 66 c 128,-1,7
 20 142 20 142 20 299 c 128,-1,0
 20 456 20 456 111.5 538 c 128,-1,1
373.5 505 m 128,-1,9
 286 505 286 505 286 303 c 128,-1,10
 286 101 286 101 373.5 101 c 128,-1,11
 461 101 461 101 461 303 c 128,-1,8
 461 505 461 505 373.5 505 c 128,-1,9
391 771 m 2,12,13
 414 808 414 808 446.5 808 c 128,-1,14
 479 808 479 808 498 789.5 c 128,-1,15
 517 771 517 771 517 739.5 c 128,-1,16
 517 708 517 708 481 687 c 2,17,-1
 423 653 l 1,18,-1
 319 653 l 1,19,-1
 391 771 l 2,12,13
EndSplineSet
EndChar

StartChar: Ocircumflex
Encoding: 212 212 149
Width: 747
GlyphClass: 2
Flags: W
LayerCount: 2
Fore
SplineSet
111.5 538 m 128,-1,1
 203 620 203 620 373.5 620 c 128,-1,2
 544 620 544 620 635.5 538 c 128,-1,3
 727 456 727 456 727 299 c 128,-1,4
 727 142 727 142 630.5 66 c 128,-1,5
 534 -10 534 -10 373.5 -10 c 128,-1,6
 213 -10 213 -10 116.5 66 c 128,-1,7
 20 142 20 142 20 299 c 128,-1,0
 20 456 20 456 111.5 538 c 128,-1,1
373.5 505 m 128,-1,9
 286 505 286 505 286 303 c 128,-1,10
 286 101 286 101 373.5 101 c 128,-1,11
 461 101 461 101 461 303 c 128,-1,8
 461 505 461 505 373.5 505 c 128,-1,9
363 808 m 2,12,-1
 389 808 l 2,13,14
 422 808 422 808 441.5 796.5 c 128,-1,15
 461 785 461 785 477 759 c 2,16,-1
 542 653 l 1,17,-1
 438 653 l 1,18,-1
 376 715 l 1,19,-1
 314 653 l 1,20,-1
 210 653 l 1,21,-1
 275 759 l 2,22,23
 291 785 291 785 310.5 796.5 c 128,-1,24
 330 808 330 808 363 808 c 2,12,-1
363 808 m 2,25,26
 330 808 330 808 310.5 796.5 c 128,-1,27
 291 785 291 785 275 759 c 2,28,-1
 210 653 l 1,29,-1
 314 653 l 1,30,-1
 376 715 l 1,31,-1
 438 653 l 1,32,-1
 542 653 l 1,33,-1
 477 759 l 2,34,35
 461 785 461 785 441.5 796.5 c 128,-1,36
 422 808 422 808 389 808 c 2,37,-1
 363 808 l 2,25,26
EndSplineSet
EndChar

StartChar: Otilde
Encoding: 213 213 150
Width: 747
GlyphClass: 2
Flags: W
LayerCount: 2
Fore
SplineSet
111.5 538 m 128,-1,1
 203 620 203 620 373.5 620 c 128,-1,2
 544 620 544 620 635.5 538 c 128,-1,3
 727 456 727 456 727 299 c 128,-1,4
 727 142 727 142 630.5 66 c 128,-1,5
 534 -10 534 -10 373.5 -10 c 128,-1,6
 213 -10 213 -10 116.5 66 c 128,-1,7
 20 142 20 142 20 299 c 128,-1,0
 20 456 20 456 111.5 538 c 128,-1,1
373.5 505 m 128,-1,9
 286 505 286 505 286 303 c 128,-1,10
 286 101 286 101 373.5 101 c 128,-1,11
 461 101 461 101 461 303 c 128,-1,8
 461 505 461 505 373.5 505 c 128,-1,9
440 646 m 0,12,13
 417 646 417 646 398.5 664.5 c 128,-1,14
 380 683 380 683 371.5 683 c 128,-1,15
 363 683 363 683 359 680 c 2,16,-1
 301 646 l 1,17,-1
 218 681 l 1,18,-1
 269 764 l 2,19,20
 292 801 292 801 330 801 c 0,21,22
 349 801 349 801 363.5 788.5 c 128,-1,23
 378 776 378 776 388 767.5 c 128,-1,24
 398 759 398 759 411 767 c 2,25,-1
 469 801 l 1,26,-1
 552 766 l 1,27,-1
 501 683 l 2,28,29
 478 646 478 646 440 646 c 0,12,13
EndSplineSet
EndChar

StartChar: Odieresis
Encoding: 214 214 151
Width: 747
GlyphClass: 2
Flags: W
LayerCount: 2
Fore
SplineSet
111.5 538 m 128,-1,1
 203 620 203 620 373.5 620 c 128,-1,2
 544 620 544 620 635.5 538 c 128,-1,3
 727 456 727 456 727 299 c 128,-1,4
 727 142 727 142 630.5 66 c 128,-1,5
 534 -10 534 -10 373.5 -10 c 128,-1,6
 213 -10 213 -10 116.5 66 c 128,-1,7
 20 142 20 142 20 299 c 128,-1,0
 20 456 20 456 111.5 538 c 128,-1,1
373.5 505 m 128,-1,9
 286 505 286 505 286 303 c 128,-1,10
 286 101 286 101 373.5 101 c 128,-1,11
 461 101 461 101 461 303 c 128,-1,8
 461 505 461 505 373.5 505 c 128,-1,9
466 798 m 128,-1,13
 501 798 501 798 519.5 778.5 c 128,-1,14
 538 759 538 759 538 729.5 c 128,-1,15
 538 700 538 700 520 681 c 128,-1,16
 502 662 502 662 466 662 c 128,-1,17
 430 662 430 662 412.5 681 c 128,-1,18
 395 700 395 700 395 729.5 c 128,-1,19
 395 759 395 759 413 778.5 c 128,-1,12
 431 798 431 798 466 798 c 128,-1,13
283 798 m 128,-1,21
 318 798 318 798 336.5 778.5 c 128,-1,22
 355 759 355 759 355 729.5 c 128,-1,23
 355 700 355 700 337 681 c 128,-1,24
 319 662 319 662 283 662 c 128,-1,25
 247 662 247 662 229.5 681 c 128,-1,26
 212 700 212 700 212 729.5 c 128,-1,27
 212 759 212 759 230 778.5 c 128,-1,20
 248 798 248 798 283 798 c 128,-1,21
EndSplineSet
EndChar

StartChar: multiply
Encoding: 215 215 152
Width: 381
GlyphClass: 2
Flags: W
LayerCount: 2
Fore
SplineSet
30 387 m 1,0,-1
 99 456 l 1,1,-1
 190 365 l 1,2,-1
 281 457 l 1,3,-1
 351 387 l 1,4,-1
 259 296 l 1,5,-1
 351 205 l 1,6,-1
 281 135 l 1,7,-1
 190 226 l 1,8,-1
 99 136 l 1,9,-1
 30 205 l 1,10,-1
 120 296 l 1,11,-1
 30 387 l 1,0,-1
EndSplineSet
EndChar

StartChar: Oslash
Encoding: 216 216 153
Width: 747
GlyphClass: 2
Flags: W
LayerCount: 2
Fore
SplineSet
199 -66 m 1,0,-1
 451 670 l 1,1,-1
 523 670 l 1,2,-1
 271 -66 l 1,3,-1
 199 -66 l 1,0,-1
111.5 538 m 128,-1,5
 203 620 203 620 373.5 620 c 128,-1,6
 544 620 544 620 635.5 538 c 128,-1,7
 727 456 727 456 727 299 c 128,-1,8
 727 142 727 142 630.5 66 c 128,-1,9
 534 -10 534 -10 373.5 -10 c 128,-1,10
 213 -10 213 -10 116.5 66 c 128,-1,11
 20 142 20 142 20 299 c 128,-1,4
 20 456 20 456 111.5 538 c 128,-1,5
373.5 505 m 128,-1,13
 286 505 286 505 286 303 c 128,-1,14
 286 101 286 101 373.5 101 c 128,-1,15
 461 101 461 101 461 303 c 128,-1,12
 461 505 461 505 373.5 505 c 128,-1,13
EndSplineSet
EndChar

StartChar: Ugrave
Encoding: 217 217 154
Width: 707
GlyphClass: 2
Flags: W
LayerCount: 2
Fore
SplineSet
354 -10 m 128,-1,1
 201 -10 201 -10 110.5 66 c 128,-1,2
 20 142 20 142 20 305 c 2,3,-1
 20 606 l 1,4,-1
 286 606 l 1,5,-1
 286 256 l 2,6,7
 286 139 286 139 316 114 c 1,8,9
 330 101 330 101 354 101 c 128,-1,10
 378 101 378 101 392.5 113.5 c 128,-1,11
 407 126 407 126 413 152 c 0,12,13
 422 192 422 192 422 256 c 2,14,-1
 422 606 l 1,15,-1
 688 606 l 1,16,-1
 688 305 l 2,17,18
 688 142 688 142 597.5 66 c 128,-1,0
 507 -10 507 -10 354 -10 c 128,-1,1
248 687 m 2,19,20
 212 708 212 708 212 739.5 c 128,-1,21
 212 771 212 771 231 789.5 c 128,-1,22
 250 808 250 808 282.5 808 c 128,-1,23
 315 808 315 808 338 771 c 2,24,-1
 410 653 l 1,25,-1
 306 653 l 1,26,-1
 248 687 l 2,19,20
EndSplineSet
EndChar

StartChar: Uacute
Encoding: 218 218 155
Width: 707
GlyphClass: 2
Flags: W
LayerCount: 2
Fore
SplineSet
354 -10 m 128,-1,1
 201 -10 201 -10 110.5 66 c 128,-1,2
 20 142 20 142 20 305 c 2,3,-1
 20 606 l 1,4,-1
 286 606 l 1,5,-1
 286 256 l 2,6,7
 286 192 286 192 295 152 c 0,8,9
 301 126 301 126 315.5 113.5 c 128,-1,10
 330 101 330 101 354 101 c 128,-1,11
 378 101 378 101 392 114 c 1,12,13
 422 139 422 139 422 256 c 2,14,-1
 422 606 l 1,15,-1
 688 606 l 1,16,-1
 688 305 l 2,17,18
 688 142 688 142 597.5 66 c 128,-1,0
 507 -10 507 -10 354 -10 c 128,-1,1
368 771 m 2,19,20
 391 808 391 808 423.5 808 c 128,-1,21
 456 808 456 808 475 789.5 c 128,-1,22
 494 771 494 771 494 739.5 c 128,-1,23
 494 708 494 708 458 687 c 2,24,-1
 400 653 l 1,25,-1
 296 653 l 1,26,-1
 368 771 l 2,19,20
EndSplineSet
EndChar

StartChar: Ucircumflex
Encoding: 219 219 156
Width: 707
GlyphClass: 2
Flags: W
LayerCount: 2
Fore
SplineSet
354 -10 m 128,-1,1
 201 -10 201 -10 110.5 66 c 128,-1,2
 20 142 20 142 20 305 c 2,3,-1
 20 606 l 1,4,-1
 286 606 l 1,5,-1
 286 256 l 2,6,7
 286 192 286 192 295 152 c 0,8,9
 301 126 301 126 315.5 113.5 c 128,-1,10
 330 101 330 101 354 101 c 128,-1,11
 378 101 378 101 392 114 c 1,12,13
 422 139 422 139 422 256 c 2,14,-1
 422 606 l 1,15,-1
 688 606 l 1,16,-1
 688 305 l 2,17,18
 688 142 688 142 597.5 66 c 128,-1,0
 507 -10 507 -10 354 -10 c 128,-1,1
338 808 m 2,19,-1
 364 808 l 2,20,21
 397 808 397 808 416.5 796.5 c 128,-1,22
 436 785 436 785 452 759 c 2,23,-1
 517 653 l 1,24,-1
 413 653 l 1,25,-1
 351 715 l 1,26,-1
 289 653 l 1,27,-1
 185 653 l 1,28,-1
 250 759 l 2,29,30
 266 785 266 785 285.5 796.5 c 128,-1,31
 305 808 305 808 338 808 c 2,19,-1
EndSplineSet
EndChar

StartChar: Udieresis
Encoding: 220 220 157
Width: 707
GlyphClass: 2
Flags: W
LayerCount: 2
Fore
SplineSet
354 -10 m 128,-1,1
 201 -10 201 -10 110.5 66 c 128,-1,2
 20 142 20 142 20 305 c 2,3,-1
 20 606 l 1,4,-1
 286 606 l 1,5,-1
 286 256 l 2,6,7
 286 192 286 192 295 152 c 0,8,9
 301 126 301 126 315.5 113.5 c 128,-1,10
 330 101 330 101 354 101 c 128,-1,11
 378 101 378 101 392 114 c 1,12,13
 422 139 422 139 422 256 c 2,14,-1
 422 606 l 1,15,-1
 688 606 l 1,16,-1
 688 305 l 2,17,18
 688 142 688 142 597.5 66 c 128,-1,0
 507 -10 507 -10 354 -10 c 128,-1,1
445 798 m 128,-1,20
 480 798 480 798 498.5 778.5 c 128,-1,21
 517 759 517 759 517 729.5 c 128,-1,22
 517 700 517 700 499 681 c 128,-1,23
 481 662 481 662 445 662 c 128,-1,24
 409 662 409 662 391.5 681 c 128,-1,25
 374 700 374 700 374 729.5 c 128,-1,26
 374 759 374 759 392 778.5 c 128,-1,19
 410 798 410 798 445 798 c 128,-1,20
262 798 m 128,-1,28
 297 798 297 798 315.5 778.5 c 128,-1,29
 334 759 334 759 334 729.5 c 128,-1,30
 334 700 334 700 316 681 c 128,-1,31
 298 662 298 662 262 662 c 128,-1,32
 226 662 226 662 208.5 681 c 128,-1,33
 191 700 191 700 191 729.5 c 128,-1,34
 191 759 191 759 209 778.5 c 128,-1,27
 227 798 227 798 262 798 c 128,-1,28
EndSplineSet
EndChar

StartChar: Yacute
Encoding: 221 221 158
Width: 640
GlyphClass: 2
Flags: W
LayerCount: 2
Fore
SplineSet
208 0 m 1,0,-1
 182 259 l 1,1,-1
 -30 606 l 1,2,-1
 216 606 l 1,3,-1
 306 399 l 1,4,-1
 395 606 l 1,5,-1
 641 606 l 1,6,-1
 429 259 l 1,7,-1
 403 0 l 1,8,-1
 208 0 l 1,0,-1
330 771 m 2,9,10
 353 808 353 808 385.5 808 c 128,-1,11
 418 808 418 808 437 789.5 c 128,-1,12
 456 771 456 771 456 739.5 c 128,-1,13
 456 708 456 708 420 687 c 2,14,-1
 362 653 l 1,15,-1
 258 653 l 1,16,-1
 330 771 l 2,9,10
EndSplineSet
EndChar

StartChar: Thorn
Encoding: 222 222 159
Width: 614
GlyphClass: 2
Flags: W
LayerCount: 2
Fore
SplineSet
327 552 m 2,0,1
 456 552 456 552 522.5 503 c 128,-1,2
 589 454 589 454 589 334 c 128,-1,3
 589 214 589 214 520 161.5 c 128,-1,4
 451 109 451 109 338 109 c 2,5,-1
 235 109 l 1,6,-1
 231 0 l 1,7,-1
 57 0 l 1,8,-1
 30 649 l 1,9,-1
 258 649 l 1,10,-1
 254 552 l 1,11,-1
 327 552 l 2,0,1
284 439 m 2,12,-1
 249 439 l 1,13,-1
 240 223 l 1,14,-1
 284 223 l 2,15,16
 387 223 387 223 387 329 c 0,17,18
 387 393 387 393 358.5 416 c 128,-1,19
 330 439 330 439 284 439 c 2,12,-1
EndSplineSet
EndChar

StartChar: germandbls
Encoding: 223 223 160
Width: 775
GlyphClass: 2
Flags: W
LayerCount: 2
Fore
SplineSet
336 158 m 1,0,1
 384 131 384 131 429.5 131 c 128,-1,2
 475 131 475 131 498 155.5 c 128,-1,3
 521 180 521 180 521 215 c 128,-1,4
 521 250 521 250 502.5 273 c 128,-1,5
 484 296 484 296 462 307 c 0,6,7
 404 337 404 337 404 374 c 0,8,9
 404 398 404 398 424 422 c 128,-1,10
 444 446 444 446 444 476 c 128,-1,11
 444 506 444 506 426 522.5 c 128,-1,12
 408 539 408 539 377 539 c 0,13,14
 328 539 328 539 311.5 499.5 c 128,-1,15
 295 460 295 460 285 364 c 2,16,-1
 247 0 l 1,17,-1
 58 0 l 1,18,-1
 28 351 l 2,19,20
 25 386 25 386 25 416 c 0,21,22
 25 500 25 500 54 549 c 0,23,24
 115 649 115 649 380 649 c 0,25,26
 593 649 593 649 652 582 c 0,27,28
 677 553 677 553 677 517.5 c 128,-1,29
 677 482 677 482 657 461 c 128,-1,30
 637 440 637 440 613 431 c 128,-1,31
 589 422 589 422 569 412.5 c 128,-1,32
 549 403 549 403 549 394 c 128,-1,33
 549 385 549 385 564.5 378 c 128,-1,34
 580 371 580 371 602.5 365.5 c 128,-1,35
 625 360 625 360 652 348.5 c 128,-1,36
 679 337 679 337 701.5 322.5 c 128,-1,37
 724 308 724 308 739.5 280 c 128,-1,38
 755 252 755 252 755 216 c 0,39,40
 755 107 755 107 683 48.5 c 128,-1,41
 611 -10 611 -10 507 -10 c 0,42,43
 380 -10 380 -10 288 62 c 1,44,-1
 336 158 l 1,0,1
EndSplineSet
EndChar

StartChar: agrave
Encoding: 224 224 161
Width: 606
GlyphClass: 2
Flags: W
LayerCount: 2
Fore
SplineSet
207 -10 m 0,0,1
 130 -10 130 -10 80.5 35 c 128,-1,2
 31 80 31 80 31 162.5 c 128,-1,3
 31 245 31 245 87 282.5 c 128,-1,4
 143 320 143 320 222 320 c 128,-1,5
 301 320 301 320 359 295 c 1,6,7
 346 378 346 378 254 378 c 0,8,9
 212 378 212 378 150 361 c 1,10,-1
 125 451 l 1,11,12
 215 488 215 488 308 488 c 0,13,14
 576 488 576 488 576 260 c 0,15,16
 576 182 576 182 558 44 c 1,17,-1
 553 0 l 1,18,-1
 388 0 l 1,19,-1
 382 55 l 1,20,21
 314 -10 314 -10 207 -10 c 0,0,1
297 114 m 0,22,23
 342 114 342 114 374 139 c 1,24,-1
 368 205 l 1,25,26
 343 222 343 222 312.5 222 c 128,-1,27
 282 222 282 222 262.5 207 c 128,-1,28
 243 192 243 192 243 170 c 128,-1,29
 243 148 243 148 258 131 c 128,-1,30
 273 114 273 114 297 114 c 0,22,23
221 553 m 2,31,32
 185 574 185 574 185 605.5 c 128,-1,33
 185 637 185 637 204 655.5 c 128,-1,34
 223 674 223 674 255.5 674 c 128,-1,35
 288 674 288 674 311 637 c 2,36,-1
 383 519 l 1,37,-1
 279 519 l 1,38,-1
 221 553 l 2,31,32
EndSplineSet
EndChar

StartChar: aacute
Encoding: 225 225 162
Width: 606
GlyphClass: 2
Flags: W
LayerCount: 2
Fore
SplineSet
207 -10 m 0,0,1
 130 -10 130 -10 80.5 35 c 128,-1,2
 31 80 31 80 31 162.5 c 128,-1,3
 31 245 31 245 87 282.5 c 128,-1,4
 143 320 143 320 222 320 c 128,-1,5
 301 320 301 320 359 295 c 1,6,7
 346 378 346 378 254 378 c 0,8,9
 212 378 212 378 150 361 c 1,10,-1
 125 451 l 1,11,12
 215 488 215 488 308 488 c 0,13,14
 576 488 576 488 576 260 c 0,15,16
 576 182 576 182 558 44 c 1,17,-1
 553 0 l 1,18,-1
 388 0 l 1,19,-1
 382 55 l 1,20,21
 314 -10 314 -10 207 -10 c 0,0,1
297 114 m 0,22,23
 342 114 342 114 374 139 c 1,24,-1
 368 205 l 1,25,26
 343 222 343 222 312.5 222 c 128,-1,27
 282 222 282 222 262.5 207 c 128,-1,28
 243 192 243 192 243 170 c 128,-1,29
 243 148 243 148 258 131 c 128,-1,30
 273 114 273 114 297 114 c 0,22,23
315 637 m 2,31,32
 338 674 338 674 370.5 674 c 128,-1,33
 403 674 403 674 422 655.5 c 128,-1,34
 441 637 441 637 441 605.5 c 128,-1,35
 441 574 441 574 405 553 c 2,36,-1
 347 519 l 1,37,-1
 243 519 l 1,38,-1
 315 637 l 2,31,32
EndSplineSet
EndChar

StartChar: acircumflex
Encoding: 226 226 163
Width: 606
GlyphClass: 2
Flags: W
LayerCount: 2
Fore
SplineSet
207 -10 m 0,0,1
 130 -10 130 -10 80.5 35 c 128,-1,2
 31 80 31 80 31 162.5 c 128,-1,3
 31 245 31 245 87 282.5 c 128,-1,4
 143 320 143 320 222 320 c 128,-1,5
 301 320 301 320 359 295 c 1,6,7
 346 378 346 378 254 378 c 0,8,9
 212 378 212 378 150 361 c 1,10,-1
 125 451 l 1,11,12
 215 488 215 488 308 488 c 0,13,14
 576 488 576 488 576 260 c 0,15,16
 576 182 576 182 558 44 c 1,17,-1
 553 0 l 1,18,-1
 388 0 l 1,19,-1
 382 55 l 1,20,21
 314 -10 314 -10 207 -10 c 0,0,1
297 114 m 0,22,23
 342 114 342 114 374 139 c 1,24,-1
 368 205 l 1,25,26
 343 222 343 222 312.5 222 c 128,-1,27
 282 222 282 222 262.5 207 c 128,-1,28
 243 192 243 192 243 170 c 128,-1,29
 243 148 243 148 258 131 c 128,-1,30
 273 114 273 114 297 114 c 0,22,23
292 674 m 2,31,-1
 318 674 l 2,32,33
 351 674 351 674 370.5 662.5 c 128,-1,34
 390 651 390 651 406 625 c 2,35,-1
 471 519 l 1,36,-1
 367 519 l 1,37,-1
 305 581 l 1,38,-1
 243 519 l 1,39,-1
 139 519 l 1,40,-1
 204 625 l 2,41,42
 220 651 220 651 239.5 662.5 c 128,-1,43
 259 674 259 674 292 674 c 2,31,-1
EndSplineSet
EndChar

StartChar: atilde
Encoding: 227 227 164
Width: 606
GlyphClass: 2
Flags: W
LayerCount: 2
Fore
SplineSet
207 -10 m 0,0,1
 130 -10 130 -10 80.5 35 c 128,-1,2
 31 80 31 80 31 162.5 c 128,-1,3
 31 245 31 245 87 282.5 c 128,-1,4
 143 320 143 320 222 320 c 128,-1,5
 301 320 301 320 359 295 c 1,6,7
 346 378 346 378 254 378 c 0,8,9
 212 378 212 378 150 361 c 1,10,-1
 125 451 l 1,11,12
 215 488 215 488 308 488 c 0,13,14
 576 488 576 488 576 260 c 0,15,16
 576 182 576 182 558 44 c 1,17,-1
 553 0 l 1,18,-1
 388 0 l 1,19,-1
 382 55 l 1,20,21
 314 -10 314 -10 207 -10 c 0,0,1
297 114 m 0,22,23
 342 114 342 114 374 139 c 1,24,-1
 368 205 l 1,25,26
 343 222 343 222 312.5 222 c 128,-1,27
 282 222 282 222 262.5 207 c 128,-1,28
 243 192 243 192 243 170 c 128,-1,29
 243 148 243 148 258 131 c 128,-1,30
 273 114 273 114 297 114 c 0,22,23
378 516 m 0,31,32
 355 516 355 516 336.5 534.5 c 128,-1,33
 318 553 318 553 309.5 553 c 128,-1,34
 301 553 301 553 297 550 c 2,35,-1
 239 516 l 1,36,-1
 156 551 l 1,37,-1
 207 634 l 2,38,39
 230 671 230 671 268 671 c 0,40,41
 287 671 287 671 301.5 658.5 c 128,-1,42
 316 646 316 646 326 637.5 c 128,-1,43
 336 629 336 629 349 637 c 2,44,-1
 407 671 l 1,45,-1
 490 636 l 1,46,-1
 439 553 l 2,47,48
 416 516 416 516 378 516 c 0,31,32
EndSplineSet
EndChar

StartChar: adieresis
Encoding: 228 228 165
Width: 606
GlyphClass: 2
Flags: W
LayerCount: 2
Fore
SplineSet
207 -10 m 0,0,1
 130 -10 130 -10 80.5 35 c 128,-1,2
 31 80 31 80 31 162.5 c 128,-1,3
 31 245 31 245 87 282.5 c 128,-1,4
 143 320 143 320 222 320 c 128,-1,5
 301 320 301 320 359 295 c 1,6,7
 346 378 346 378 254 378 c 0,8,9
 212 378 212 378 150 361 c 1,10,-1
 125 451 l 1,11,12
 215 488 215 488 308 488 c 0,13,14
 576 488 576 488 576 260 c 0,15,16
 576 182 576 182 558 44 c 1,17,-1
 553 0 l 1,18,-1
 388 0 l 1,19,-1
 382 55 l 1,20,21
 314 -10 314 -10 207 -10 c 0,0,1
297 114 m 0,22,23
 342 114 342 114 374 139 c 1,24,-1
 368 205 l 1,25,26
 343 222 343 222 312.5 222 c 128,-1,27
 282 222 282 222 262.5 207 c 128,-1,28
 243 192 243 192 243 170 c 128,-1,29
 243 148 243 148 258 131 c 128,-1,30
 273 114 273 114 297 114 c 0,22,23
419 664 m 128,-1,32
 454 664 454 664 472.5 644.5 c 128,-1,33
 491 625 491 625 491 595.5 c 128,-1,34
 491 566 491 566 473 547 c 128,-1,35
 455 528 455 528 419 528 c 128,-1,36
 383 528 383 528 365.5 547 c 128,-1,37
 348 566 348 566 348 595.5 c 128,-1,38
 348 625 348 625 366 644.5 c 128,-1,31
 384 664 384 664 419 664 c 128,-1,32
236 664 m 128,-1,40
 271 664 271 664 289.5 644.5 c 128,-1,41
 308 625 308 625 308 595.5 c 128,-1,42
 308 566 308 566 290 547 c 128,-1,43
 272 528 272 528 236 528 c 128,-1,44
 200 528 200 528 182.5 547 c 128,-1,45
 165 566 165 566 165 595.5 c 128,-1,46
 165 625 165 625 183 644.5 c 128,-1,39
 201 664 201 664 236 664 c 128,-1,40
EndSplineSet
EndChar

StartChar: aring
Encoding: 229 229 166
Width: 606
GlyphClass: 2
Flags: W
LayerCount: 2
Fore
SplineSet
207 -10 m 0,0,1
 130 -10 130 -10 80.5 35 c 128,-1,2
 31 80 31 80 31 162.5 c 128,-1,3
 31 245 31 245 87 282.5 c 128,-1,4
 143 320 143 320 222 320 c 128,-1,5
 301 320 301 320 359 295 c 1,6,7
 346 378 346 378 254 378 c 0,8,9
 212 378 212 378 150 361 c 1,10,-1
 125 451 l 1,11,12
 215 488 215 488 308 488 c 0,13,14
 576 488 576 488 576 260 c 0,15,16
 576 182 576 182 558 44 c 1,17,-1
 553 0 l 1,18,-1
 388 0 l 1,19,-1
 382 55 l 1,20,21
 314 -10 314 -10 207 -10 c 0,0,1
297 114 m 0,22,23
 342 114 342 114 374 139 c 1,24,-1
 368 205 l 1,25,26
 343 222 343 222 312.5 222 c 128,-1,27
 282 222 282 222 262.5 207 c 128,-1,28
 243 192 243 192 243 170 c 128,-1,29
 243 148 243 148 258 131 c 128,-1,30
 273 114 273 114 297 114 c 0,22,23
344 509 m 2,31,-1
 334 509 l 2,32,33
 286 509 286 509 260 527.5 c 128,-1,34
 234 546 234 546 234 592 c 128,-1,35
 234 638 234 638 258.5 657 c 128,-1,36
 283 676 283 676 334 676 c 2,37,-1
 344 676 l 2,38,39
 395 676 395 676 419.5 657 c 128,-1,40
 444 638 444 638 444 592 c 128,-1,41
 444 546 444 546 418 527.5 c 128,-1,42
 392 509 392 509 344 509 c 2,31,-1
337 571 m 2,43,-1
 341 571 l 2,44,45
 362 571 362 571 368 577 c 128,-1,46
 374 583 374 583 374 595 c 128,-1,47
 374 607 374 607 366.5 611.5 c 128,-1,48
 359 616 359 616 341 616 c 2,49,-1
 337 616 l 2,50,51
 319 616 319 616 311.5 611.5 c 128,-1,52
 304 607 304 607 304 595 c 128,-1,53
 304 583 304 583 309 578 c 0,54,55
 316 571 316 571 337 571 c 2,43,-1
EndSplineSet
EndChar

StartChar: ae
Encoding: 230 230 167
Width: 883
GlyphClass: 2
Flags: W
LayerCount: 2
Fore
SplineSet
624 489 m 0,0,1
 738 489 738 489 798 443.5 c 128,-1,2
 858 398 858 398 858 318 c 0,3,4
 858 256 858 256 808.5 217.5 c 128,-1,5
 759 179 759 179 664 179 c 0,6,7
 625 179 625 179 594 185 c 2,8,-1
 583 187 l 1,9,10
 589 106 589 106 702 106 c 0,11,12
 733 106 733 106 759.5 114 c 128,-1,13
 786 122 786 122 798 130 c 2,14,-1
 809 137 l 1,15,-1
 853 80 l 1,16,17
 842 66 842 66 820 49 c 128,-1,18
 798 32 798 32 774 20 c 0,19,20
 714 -9 714 -9 631 -9 c 0,21,22
 506 -9 506 -9 433 64 c 1,23,24
 342 -10 342 -10 226 -10 c 0,25,26
 138 -10 138 -10 79 33.5 c 128,-1,27
 20 77 20 77 20 157 c 128,-1,28
 20 237 20 237 73 278.5 c 128,-1,29
 126 320 126 320 210 320 c 0,30,31
 257 320 257 320 296 309 c 128,-1,32
 335 298 335 298 350 289 c 2,33,-1
 365 280 l 1,34,35
 362 342 362 342 327 364.5 c 128,-1,36
 292 387 292 387 228 387 c 0,37,38
 196 387 196 387 157 380 c 1,39,-1
 144 377 l 1,40,-1
 132 457 l 1,41,-1
 153 464 l 2,42,43
 174 472 174 472 217.5 480 c 128,-1,44
 261 488 261 488 307 488 c 0,45,46
 413 488 413 488 477 453 c 1,47,48
 542 489 542 489 624 489 c 0,0,1
247 131 m 128,-1,50
 262 114 262 114 287 114 c 128,-1,51
 312 114 312 114 333.5 122.5 c 128,-1,52
 355 131 355 131 364 140 c 2,53,-1
 373 148 l 1,54,-1
 369 196 l 1,55,56
 341 222 341 222 306 222 c 128,-1,57
 271 222 271 222 251.5 207 c 128,-1,58
 232 192 232 192 232 170 c 128,-1,49
 232 148 232 148 247 131 c 128,-1,50
696.5 360 m 128,-1,60
 681 373 681 373 654 373 c 128,-1,61
 627 373 627 373 603.5 349 c 128,-1,62
 580 325 580 325 580 292 c 1,63,64
 602 282 602 282 637.5 282 c 128,-1,65
 673 282 673 282 692.5 294.5 c 128,-1,66
 712 307 712 307 712 327 c 128,-1,59
 712 347 712 347 696.5 360 c 128,-1,60
EndSplineSet
EndChar

StartChar: ccedilla
Encoding: 231 231 168
Width: 489
GlyphClass: 2
Flags: W
LayerCount: 2
Fore
SplineSet
489 70 m 1,0,1
 414 -10 414 -10 288.5 -10 c 128,-1,2
 163 -10 163 -10 94 57.5 c 128,-1,3
 25 125 25 125 25 248 c 128,-1,4
 25 371 25 371 99 429.5 c 128,-1,5
 173 488 173 488 284 488 c 0,6,7
 331 488 331 488 374.5 479 c 128,-1,8
 418 470 418 470 438 460 c 2,9,-1
 458 451 l 1,10,-1
 436 348 l 1,11,12
 395 360 395 360 351.5 360 c 128,-1,13
 308 360 308 360 272.5 332.5 c 128,-1,14
 237 305 237 305 237 248 c 0,15,16
 237 120 237 120 336 120 c 0,17,18
 362 120 362 120 386 126.5 c 128,-1,19
 410 133 410 133 421 140 c 2,20,-1
 432 146 l 1,21,-1
 489 70 l 1,0,1
287 -146 m 2,22,23
 264 -183 264 -183 231.5 -183 c 128,-1,24
 199 -183 199 -183 180 -164.5 c 128,-1,25
 161 -146 161 -146 161 -114.5 c 128,-1,26
 161 -83 161 -83 197 -62 c 2,27,-1
 255 -28 l 1,28,-1
 359 -28 l 1,29,-1
 287 -146 l 2,22,23
EndSplineSet
EndChar

StartChar: egrave
Encoding: 232 232 169
Width: 534
GlyphClass: 2
Flags: W
LayerCount: 2
Fore
SplineSet
291 -10 m 0,0,1
 178 -10 178 -10 101.5 55.5 c 128,-1,2
 25 121 25 121 25 248 c 0,3,4
 25 328 25 328 64 384 c 0,5,6
 135 488 135 488 284 488 c 0,7,8
 398 488 398 488 458 442.5 c 128,-1,9
 518 397 518 397 518 317 c 0,10,11
 518 255 518 255 468.5 216.5 c 128,-1,12
 419 178 419 178 324 178 c 0,13,14
 285 178 285 178 254 184 c 2,15,-1
 243 186 l 1,16,17
 248 150 248 150 274.5 132.5 c 128,-1,18
 301 115 301 115 338 115 c 0,19,20
 399 115 399 115 442 152 c 1,21,-1
 504 77 l 1,22,23
 488 58 488 58 466 41.5 c 128,-1,24
 444 25 444 25 396 7.5 c 128,-1,25
 348 -10 348 -10 291 -10 c 0,0,1
356.5 359 m 128,-1,27
 341 372 341 372 314 372 c 128,-1,28
 287 372 287 372 263.5 348 c 128,-1,29
 240 324 240 324 240 291 c 1,30,31
 262 281 262 281 297.5 281 c 128,-1,32
 333 281 333 281 352.5 293.5 c 128,-1,33
 372 306 372 306 372 326 c 128,-1,26
 372 346 372 346 356.5 359 c 128,-1,27
206 553 m 2,34,35
 170 574 170 574 170 605.5 c 128,-1,36
 170 637 170 637 189 655.5 c 128,-1,37
 208 674 208 674 240.5 674 c 128,-1,38
 273 674 273 674 296 637 c 2,39,-1
 368 519 l 1,40,-1
 264 519 l 1,41,-1
 206 553 l 2,34,35
EndSplineSet
EndChar

StartChar: eacute
Encoding: 233 233 170
Width: 543
GlyphClass: 2
Flags: W
LayerCount: 2
Fore
SplineSet
338 115 m 0,0,1
 399 115 399 115 442 152 c 1,2,-1
 504 77 l 1,3,4
 488 58 488 58 466 41.5 c 128,-1,5
 444 25 444 25 396 7.5 c 128,-1,6
 348 -10 348 -10 291 -10 c 0,7,8
 178 -10 178 -10 101.5 55.5 c 128,-1,9
 25 121 25 121 25 248 c 0,10,11
 25 328 25 328 64 384 c 0,12,13
 135 488 135 488 284 488 c 0,14,15
 398 488 398 488 458 442.5 c 128,-1,16
 518 397 518 397 518 317 c 0,17,18
 518 255 518 255 468.5 216.5 c 128,-1,19
 419 178 419 178 324 178 c 0,20,21
 281 178 281 178 243 186 c 1,22,23
 248 150 248 150 274.5 132.5 c 128,-1,24
 301 115 301 115 338 115 c 0,0,1
352.5 293.5 m 128,-1,26
 372 306 372 306 372 326 c 128,-1,27
 372 346 372 346 356.5 359 c 128,-1,28
 341 372 341 372 314 372 c 128,-1,29
 287 372 287 372 263.5 348 c 128,-1,30
 240 324 240 324 240 291 c 1,31,32
 266 281 266 281 299.5 281 c 128,-1,25
 333 281 333 281 352.5 293.5 c 128,-1,26
303 637 m 2,33,34
 326 674 326 674 358.5 674 c 128,-1,35
 391 674 391 674 410 655.5 c 128,-1,36
 429 637 429 637 429 605.5 c 128,-1,37
 429 574 429 574 393 553 c 2,38,-1
 335 519 l 1,39,-1
 231 519 l 1,40,-1
 303 637 l 2,33,34
EndSplineSet
EndChar

StartChar: ecircumflex
Encoding: 234 234 171
Width: 543
GlyphClass: 2
Flags: W
LayerCount: 2
Fore
SplineSet
338 115 m 0,0,1
 399 115 399 115 442 152 c 1,2,-1
 504 77 l 1,3,4
 488 58 488 58 466 41.5 c 128,-1,5
 444 25 444 25 396 7.5 c 128,-1,6
 348 -10 348 -10 291 -10 c 0,7,8
 178 -10 178 -10 101.5 55.5 c 128,-1,9
 25 121 25 121 25 248 c 0,10,11
 25 328 25 328 64 384 c 0,12,13
 135 488 135 488 284 488 c 0,14,15
 398 488 398 488 458 442.5 c 128,-1,16
 518 397 518 397 518 317 c 0,17,18
 518 255 518 255 468.5 216.5 c 128,-1,19
 419 178 419 178 324 178 c 0,20,21
 281 178 281 178 243 186 c 1,22,23
 248 150 248 150 274.5 132.5 c 128,-1,24
 301 115 301 115 338 115 c 0,0,1
352.5 293.5 m 128,-1,26
 372 306 372 306 372 326 c 128,-1,27
 372 346 372 346 356.5 359 c 128,-1,28
 341 372 341 372 314 372 c 128,-1,29
 287 372 287 372 263.5 348 c 128,-1,30
 240 324 240 324 240 291 c 1,31,32
 266 281 266 281 299.5 281 c 128,-1,25
 333 281 333 281 352.5 293.5 c 128,-1,26
267 674 m 2,33,-1
 293 674 l 2,34,35
 326 674 326 674 345.5 662.5 c 128,-1,36
 365 651 365 651 381 625 c 2,37,-1
 446 519 l 1,38,-1
 342 519 l 1,39,-1
 280 581 l 1,40,-1
 218 519 l 1,41,-1
 114 519 l 1,42,-1
 179 625 l 2,43,44
 195 651 195 651 214.5 662.5 c 128,-1,45
 234 674 234 674 267 674 c 2,33,-1
EndSplineSet
EndChar

StartChar: edieresis
Encoding: 235 235 172
Width: 543
GlyphClass: 2
Flags: W
LayerCount: 2
Fore
SplineSet
338 115 m 0,0,1
 399 115 399 115 442 152 c 1,2,-1
 504 77 l 1,3,4
 488 58 488 58 466 41.5 c 128,-1,5
 444 25 444 25 396 7.5 c 128,-1,6
 348 -10 348 -10 291 -10 c 0,7,8
 178 -10 178 -10 101.5 55.5 c 128,-1,9
 25 121 25 121 25 248 c 0,10,11
 25 328 25 328 64 384 c 0,12,13
 135 488 135 488 284 488 c 0,14,15
 398 488 398 488 458 442.5 c 128,-1,16
 518 397 518 397 518 317 c 0,17,18
 518 255 518 255 468.5 216.5 c 128,-1,19
 419 178 419 178 324 178 c 0,20,21
 281 178 281 178 243 186 c 1,22,23
 248 150 248 150 274.5 132.5 c 128,-1,24
 301 115 301 115 338 115 c 0,0,1
352.5 293.5 m 128,-1,26
 372 306 372 306 372 326 c 128,-1,27
 372 346 372 346 356.5 359 c 128,-1,28
 341 372 341 372 314 372 c 128,-1,29
 287 372 287 372 263.5 348 c 128,-1,30
 240 324 240 324 240 291 c 1,31,32
 266 281 266 281 299.5 281 c 128,-1,25
 333 281 333 281 352.5 293.5 c 128,-1,26
373 664 m 128,-1,34
 408 664 408 664 426.5 644.5 c 128,-1,35
 445 625 445 625 445 595.5 c 128,-1,36
 445 566 445 566 427 547 c 128,-1,37
 409 528 409 528 373 528 c 128,-1,38
 337 528 337 528 319.5 547 c 128,-1,39
 302 566 302 566 302 595.5 c 128,-1,40
 302 625 302 625 320 644.5 c 128,-1,33
 338 664 338 664 373 664 c 128,-1,34
190 664 m 128,-1,42
 225 664 225 664 243.5 644.5 c 128,-1,43
 262 625 262 625 262 595.5 c 128,-1,44
 262 566 262 566 244 547 c 128,-1,45
 226 528 226 528 190 528 c 128,-1,46
 154 528 154 528 136.5 547 c 128,-1,47
 119 566 119 566 119 595.5 c 128,-1,48
 119 625 119 625 137 644.5 c 128,-1,41
 155 664 155 664 190 664 c 128,-1,42
EndSplineSet
EndChar

StartChar: igrave
Encoding: 236 236 173
Width: 315
GlyphClass: 2
Flags: W
LayerCount: 2
Fore
SplineSet
268 460 m 1,0,-1
 285 466 l 1,1,-1
 251 0 l 1,2,-1
 62 0 l 1,3,-1
 30 466 l 1,4,5
 87 443 87 443 151.5 443 c 128,-1,6
 216 443 216 443 268 460 c 1,0,-1
77 553 m 2,7,8
 41 574 41 574 41 605.5 c 128,-1,9
 41 637 41 637 60 655.5 c 128,-1,10
 79 674 79 674 111.5 674 c 128,-1,11
 144 674 144 674 167 637 c 2,12,-1
 239 519 l 1,13,-1
 135 519 l 1,14,-1
 77 553 l 2,7,8
EndSplineSet
EndChar

StartChar: iacute
Encoding: 237 237 174
Width: 315
GlyphClass: 2
Flags: W
LayerCount: 2
Fore
SplineSet
268 460 m 1,0,-1
 285 466 l 1,1,-1
 251 0 l 1,2,-1
 62 0 l 1,3,-1
 30 466 l 1,4,5
 87 443 87 443 151.5 443 c 128,-1,6
 216 443 216 443 268 460 c 1,0,-1
149 637 m 2,7,8
 172 674 172 674 204.5 674 c 128,-1,9
 237 674 237 674 256 655.5 c 128,-1,10
 275 637 275 637 275 605.5 c 128,-1,11
 275 574 275 574 239 553 c 2,12,-1
 181 519 l 1,13,-1
 77 519 l 1,14,-1
 149 637 l 2,7,8
EndSplineSet
EndChar

StartChar: icircumflex
Encoding: 238 238 175
Width: 315
GlyphClass: 2
Flags: W
LayerCount: 2
Fore
SplineSet
144 674 m 2,0,-1
 150 674 l 2,1,2
 183 674 183 674 202.5 662.5 c 128,-1,3
 222 651 222 651 238 625 c 2,4,-1
 303 519 l 1,5,-1
 199 519 l 1,6,-1
 147 581 l 1,7,-1
 95 519 l 1,8,-1
 -9 519 l 1,9,-1
 56 625 l 2,10,11
 72 651 72 651 91.5 662.5 c 128,-1,12
 111 674 111 674 144 674 c 2,0,-1
268 460 m 1,13,-1
 285 466 l 1,14,-1
 251 0 l 1,15,-1
 62 0 l 1,16,-1
 30 466 l 1,17,18
 87 443 87 443 151.5 443 c 128,-1,19
 216 443 216 443 268 460 c 1,13,-1
EndSplineSet
EndChar

StartChar: idieresis
Encoding: 239 239 176
Width: 315
GlyphClass: 2
Flags: W
LayerCount: 2
Fore
SplineSet
228 664 m 128,-1,1
 263 664 263 664 281.5 644.5 c 128,-1,2
 300 625 300 625 300 595.5 c 128,-1,3
 300 566 300 566 282 547 c 128,-1,4
 264 528 264 528 228 528 c 128,-1,5
 192 528 192 528 174.5 547 c 128,-1,6
 157 566 157 566 157 595.5 c 128,-1,7
 157 625 157 625 175 644.5 c 128,-1,0
 193 664 193 664 228 664 c 128,-1,1
65 664 m 128,-1,9
 100 664 100 664 118.5 644.5 c 128,-1,10
 137 625 137 625 137 595.5 c 128,-1,11
 137 566 137 566 119 547 c 128,-1,12
 101 528 101 528 65 528 c 128,-1,13
 29 528 29 528 11.5 547 c 128,-1,14
 -6 566 -6 566 -6 595.5 c 128,-1,15
 -6 625 -6 625 12 644.5 c 128,-1,8
 30 664 30 664 65 664 c 128,-1,9
268 460 m 1,16,-1
 285 466 l 1,17,-1
 251 0 l 1,18,-1
 62 0 l 1,19,-1
 30 466 l 1,20,21
 87 443 87 443 151.5 443 c 128,-1,22
 216 443 216 443 268 460 c 1,16,-1
EndSplineSet
EndChar

StartChar: eth
Encoding: 240 240 177
Width: 592
GlyphClass: 2
Flags: W
LayerCount: 2
Fore
SplineSet
525 474.5 m 128,-1,1
 567 379 567 379 567 293 c 128,-1,2
 567 207 567 207 538.5 141 c 128,-1,3
 510 75 510 75 447.5 32.5 c 128,-1,4
 385 -10 385 -10 296 -10 c 0,5,6
 172 -10 172 -10 98.5 48 c 128,-1,7
 25 106 25 106 25 225.5 c 128,-1,8
 25 345 25 345 97.5 407.5 c 128,-1,9
 170 470 170 470 268 470 c 0,10,11
 321 470 321 470 365 448 c 1,12,13
 358 514 358 514 317 566 c 1,14,-1
 250 512 l 1,15,-1
 193 585 l 1,16,-1
 245 627 l 1,17,18
 205 651 205 651 172 658 c 1,19,-1
 161 661 l 1,20,-1
 176 742 l 1,21,22
 256 732 256 732 328 693 c 1,23,-1
 413 761 l 1,24,-1
 471 689 l 1,25,-1
 407 637 l 1,26,0
 483 570 483 570 525 474.5 c 128,-1,1
369 356 m 1,27,28
 341 371 341 371 306.5 371 c 128,-1,29
 272 371 272 371 250.5 335 c 128,-1,30
 229 299 229 299 229 228 c 0,31,32
 229 75 229 75 296 75 c 0,33,34
 327 75 327 75 350 132 c 128,-1,35
 373 189 373 189 373 280 c 0,36,37
 373 320 373 320 369 356 c 1,27,28
EndSplineSet
EndChar

StartChar: ntilde
Encoding: 241 241 178
Width: 609
GlyphClass: 2
Flags: W
LayerCount: 2
Fore
SplineSet
408 488 m 0,0,1
 478 488 478 488 528.5 429 c 128,-1,2
 579 370 579 370 579 275.5 c 128,-1,3
 579 181 579 181 556 0 c 1,4,-1
 381 0 l 1,5,-1
 361 224 l 2,6,7
 351 331 351 331 303 331 c 0,8,9
 246 331 246 331 242 223 c 2,10,-1
 235 0 l 1,11,-1
 51 0 l 1,12,-1
 30 474 l 1,13,-1
 256 474 l 1,14,-1
 252 389 l 1,15,16
 257 399 257 399 275 420 c 128,-1,17
 293 441 293 441 310 454 c 0,18,19
 354 488 354 488 408 488 c 0,0,1
356 516 m 0,20,21
 333 516 333 516 314.5 534.5 c 128,-1,22
 296 553 296 553 287.5 553 c 128,-1,23
 279 553 279 553 275 550 c 2,24,-1
 217 516 l 1,25,-1
 134 551 l 1,26,-1
 185 634 l 2,27,28
 208 671 208 671 246 671 c 0,29,30
 265 671 265 671 279.5 658.5 c 128,-1,31
 294 646 294 646 304 637.5 c 128,-1,32
 314 629 314 629 327 637 c 2,33,-1
 385 671 l 1,34,-1
 468 636 l 1,35,-1
 417 553 l 2,36,37
 394 516 394 516 356 516 c 0,20,21
EndSplineSet
EndChar

StartChar: ograve
Encoding: 242 242 179
Width: 582
GlyphClass: 2
Flags: W
LayerCount: 2
Fore
SplineSet
25 239 m 128,-1,1
 25 369 25 369 97.5 428.5 c 128,-1,2
 170 488 170 488 291 488 c 128,-1,3
 412 488 412 488 484.5 428.5 c 128,-1,4
 557 369 557 369 557 239 c 128,-1,5
 557 109 557 109 484.5 49.5 c 128,-1,6
 412 -10 412 -10 291 -10 c 128,-1,7
 170 -10 170 -10 97.5 49.5 c 128,-1,0
 25 109 25 109 25 239 c 128,-1,1
237 239 m 128,-1,9
 237 160 237 160 249 125.5 c 128,-1,10
 261 91 261 91 291 91 c 128,-1,11
 321 91 321 91 333 125.5 c 128,-1,12
 345 160 345 160 345 239 c 128,-1,13
 345 318 345 318 333 352.5 c 128,-1,14
 321 387 321 387 291 387 c 128,-1,15
 261 387 261 387 249 352.5 c 128,-1,8
 237 318 237 318 237 239 c 128,-1,9
192 553 m 2,16,17
 156 574 156 574 156 605.5 c 128,-1,18
 156 637 156 637 175 655.5 c 128,-1,19
 194 674 194 674 226.5 674 c 128,-1,20
 259 674 259 674 282 637 c 2,21,-1
 354 519 l 1,22,-1
 250 519 l 1,23,-1
 192 553 l 2,16,17
EndSplineSet
EndChar

StartChar: oacute
Encoding: 243 243 180
Width: 582
GlyphClass: 2
Flags: W
LayerCount: 2
Fore
SplineSet
25 239 m 128,-1,1
 25 369 25 369 97.5 428.5 c 128,-1,2
 170 488 170 488 291 488 c 128,-1,3
 412 488 412 488 484.5 428.5 c 128,-1,4
 557 369 557 369 557 239 c 128,-1,5
 557 109 557 109 484.5 49.5 c 128,-1,6
 412 -10 412 -10 291 -10 c 128,-1,7
 170 -10 170 -10 97.5 49.5 c 128,-1,0
 25 109 25 109 25 239 c 128,-1,1
237 239 m 128,-1,9
 237 160 237 160 249 125.5 c 128,-1,10
 261 91 261 91 291 91 c 128,-1,11
 321 91 321 91 333 125.5 c 128,-1,12
 345 160 345 160 345 239 c 128,-1,13
 345 318 345 318 333 352.5 c 128,-1,14
 321 387 321 387 291 387 c 128,-1,15
 261 387 261 387 249 352.5 c 128,-1,8
 237 318 237 318 237 239 c 128,-1,9
312 637 m 2,16,17
 335 674 335 674 367.5 674 c 128,-1,18
 400 674 400 674 419 655.5 c 128,-1,19
 438 637 438 637 438 605.5 c 128,-1,20
 438 574 438 574 402 553 c 2,21,-1
 344 519 l 1,22,-1
 240 519 l 1,23,-1
 312 637 l 2,16,17
EndSplineSet
EndChar

StartChar: ocircumflex
Encoding: 244 244 181
Width: 582
GlyphClass: 2
Flags: W
LayerCount: 2
Fore
SplineSet
25 239 m 128,-1,1
 25 369 25 369 97.5 428.5 c 128,-1,2
 170 488 170 488 291 488 c 128,-1,3
 412 488 412 488 484.5 428.5 c 128,-1,4
 557 369 557 369 557 239 c 128,-1,5
 557 109 557 109 484.5 49.5 c 128,-1,6
 412 -10 412 -10 291 -10 c 128,-1,7
 170 -10 170 -10 97.5 49.5 c 128,-1,0
 25 109 25 109 25 239 c 128,-1,1
237 239 m 128,-1,9
 237 160 237 160 249 125.5 c 128,-1,10
 261 91 261 91 291 91 c 128,-1,11
 321 91 321 91 333 125.5 c 128,-1,12
 345 160 345 160 345 239 c 128,-1,13
 345 318 345 318 333 352.5 c 128,-1,14
 321 387 321 387 291 387 c 128,-1,15
 261 387 261 387 249 352.5 c 128,-1,8
 237 318 237 318 237 239 c 128,-1,9
276 674 m 2,16,-1
 302 674 l 2,17,18
 335 674 335 674 354.5 662.5 c 128,-1,19
 374 651 374 651 390 625 c 2,20,-1
 455 519 l 1,21,-1
 351 519 l 1,22,-1
 289 581 l 1,23,-1
 227 519 l 1,24,-1
 123 519 l 1,25,-1
 188 625 l 2,26,27
 204 651 204 651 223.5 662.5 c 128,-1,28
 243 674 243 674 276 674 c 2,16,-1
EndSplineSet
EndChar

StartChar: otilde
Encoding: 245 245 182
Width: 582
GlyphClass: 2
Flags: W
LayerCount: 2
Fore
SplineSet
25 239 m 128,-1,1
 25 369 25 369 97.5 428.5 c 128,-1,2
 170 488 170 488 291 488 c 128,-1,3
 412 488 412 488 484.5 428.5 c 128,-1,4
 557 369 557 369 557 239 c 128,-1,5
 557 109 557 109 484.5 49.5 c 128,-1,6
 412 -10 412 -10 291 -10 c 128,-1,7
 170 -10 170 -10 97.5 49.5 c 128,-1,0
 25 109 25 109 25 239 c 128,-1,1
237 239 m 128,-1,9
 237 160 237 160 249 125.5 c 128,-1,10
 261 91 261 91 291 91 c 128,-1,11
 321 91 321 91 333 125.5 c 128,-1,12
 345 160 345 160 345 239 c 128,-1,13
 345 318 345 318 333 352.5 c 128,-1,14
 321 387 321 387 291 387 c 128,-1,15
 261 387 261 387 249 352.5 c 128,-1,8
 237 318 237 318 237 239 c 128,-1,9
332 516 m 0,16,17
 309 516 309 516 290.5 534.5 c 128,-1,18
 272 553 272 553 263.5 553 c 128,-1,19
 255 553 255 553 251 550 c 2,20,-1
 193 516 l 1,21,-1
 110 551 l 1,22,-1
 161 634 l 2,23,24
 184 671 184 671 222 671 c 0,25,26
 241 671 241 671 255.5 658.5 c 128,-1,27
 270 646 270 646 280 637.5 c 128,-1,28
 290 629 290 629 303 637 c 2,29,-1
 361 671 l 1,30,-1
 444 636 l 1,31,-1
 393 553 l 2,32,33
 370 516 370 516 332 516 c 0,16,17
EndSplineSet
EndChar

StartChar: odieresis
Encoding: 246 246 183
Width: 582
GlyphClass: 2
Flags: W
LayerCount: 2
Fore
SplineSet
25 239 m 128,-1,1
 25 369 25 369 97.5 428.5 c 128,-1,2
 170 488 170 488 291 488 c 128,-1,3
 412 488 412 488 484.5 428.5 c 128,-1,4
 557 369 557 369 557 239 c 128,-1,5
 557 109 557 109 484.5 49.5 c 128,-1,6
 412 -10 412 -10 291 -10 c 128,-1,7
 170 -10 170 -10 97.5 49.5 c 128,-1,0
 25 109 25 109 25 239 c 128,-1,1
237 239 m 128,-1,9
 237 160 237 160 249 125.5 c 128,-1,10
 261 91 261 91 291 91 c 128,-1,11
 321 91 321 91 333 125.5 c 128,-1,12
 345 160 345 160 345 239 c 128,-1,13
 345 318 345 318 333 352.5 c 128,-1,14
 321 387 321 387 291 387 c 128,-1,15
 261 387 261 387 249 352.5 c 128,-1,8
 237 318 237 318 237 239 c 128,-1,9
383 664 m 128,-1,17
 418 664 418 664 436.5 644.5 c 128,-1,18
 455 625 455 625 455 595.5 c 128,-1,19
 455 566 455 566 437 547 c 128,-1,20
 419 528 419 528 383 528 c 128,-1,21
 347 528 347 528 329.5 547 c 128,-1,22
 312 566 312 566 312 595.5 c 128,-1,23
 312 625 312 625 330 644.5 c 128,-1,16
 348 664 348 664 383 664 c 128,-1,17
200 664 m 128,-1,25
 235 664 235 664 253.5 644.5 c 128,-1,26
 272 625 272 625 272 595.5 c 128,-1,27
 272 566 272 566 254 547 c 128,-1,28
 236 528 236 528 200 528 c 128,-1,29
 164 528 164 528 146.5 547 c 128,-1,30
 129 566 129 566 129 595.5 c 128,-1,31
 129 625 129 625 147 644.5 c 128,-1,24
 165 664 165 664 200 664 c 128,-1,25
EndSplineSet
EndChar

StartChar: divide
Encoding: 247 247 184
Width: 415
GlyphClass: 2
Flags: W
LayerCount: 2
Fore
SplineSet
30 247 m 1,0,-1
 30 345 l 1,1,-1
 385 345 l 1,2,-1
 385 247 l 1,3,-1
 30 247 l 1,0,-1
208 202 m 128,-1,5
 246 202 246 202 265 181.5 c 128,-1,6
 284 161 284 161 284 130 c 128,-1,7
 284 99 284 99 265 78.5 c 128,-1,8
 246 58 246 58 208 58 c 128,-1,9
 170 58 170 58 151 78.5 c 128,-1,10
 132 99 132 99 132 130 c 128,-1,11
 132 161 132 161 151 181.5 c 128,-1,4
 170 202 170 202 208 202 c 128,-1,5
208 538 m 128,-1,13
 246 538 246 538 265 517.5 c 128,-1,14
 284 497 284 497 284 466 c 128,-1,15
 284 435 284 435 265 414.5 c 128,-1,16
 246 394 246 394 208 394 c 128,-1,17
 170 394 170 394 151 414.5 c 128,-1,18
 132 435 132 435 132 466 c 128,-1,19
 132 497 132 497 151 517.5 c 128,-1,12
 170 538 170 538 208 538 c 128,-1,13
EndSplineSet
EndChar

StartChar: oslash
Encoding: 248 248 185
Width: 582
GlyphClass: 2
Flags: W
LayerCount: 2
Fore
SplineSet
150 -73 m 1,0,-1
 361 535 l 1,1,-1
 433 535 l 1,2,-1
 222 -73 l 1,3,-1
 150 -73 l 1,0,-1
25 239 m 128,-1,5
 25 369 25 369 97.5 428.5 c 128,-1,6
 170 488 170 488 291 488 c 128,-1,7
 412 488 412 488 484.5 428.5 c 128,-1,8
 557 369 557 369 557 239 c 128,-1,9
 557 109 557 109 484.5 49.5 c 128,-1,10
 412 -10 412 -10 291 -10 c 128,-1,11
 170 -10 170 -10 97.5 49.5 c 128,-1,4
 25 109 25 109 25 239 c 128,-1,5
237 239 m 128,-1,13
 237 160 237 160 249 125.5 c 128,-1,14
 261 91 261 91 291 91 c 128,-1,15
 321 91 321 91 333 125.5 c 128,-1,16
 345 160 345 160 345 239 c 128,-1,17
 345 318 345 318 333 352.5 c 128,-1,18
 321 387 321 387 291 387 c 128,-1,19
 261 387 261 387 249 352.5 c 128,-1,12
 237 318 237 318 237 239 c 128,-1,13
EndSplineSet
EndChar

StartChar: ugrave
Encoding: 249 249 186
Width: 615
GlyphClass: 2
Flags: W
LayerCount: 2
Fore
SplineSet
219 -10 m 0,0,1
 30 -10 30 -10 30 247 c 0,2,3
 30 316 30 316 53 474 c 1,4,-1
 247 474 l 1,5,-1
 247 258 l 2,6,7
 247 142 247 142 312 142 c 0,8,9
 369 142 369 142 369 246 c 0,10,11
 369 254 369 254 369 263 c 2,12,-1
 360 474 l 1,13,-1
 585 474 l 1,14,-1
 564 0 l 1,15,-1
 395 0 l 1,16,-1
 384 92 l 1,17,18
 382 88 382 88 379 81 c 128,-1,19
 376 74 376 74 362.5 56.5 c 128,-1,20
 349 39 349 39 332 25.5 c 128,-1,21
 315 12 315 12 285 1 c 128,-1,22
 255 -10 255 -10 219 -10 c 0,0,1
198 553 m 2,23,24
 162 574 162 574 162 605.5 c 128,-1,25
 162 637 162 637 181 655.5 c 128,-1,26
 200 674 200 674 232.5 674 c 128,-1,27
 265 674 265 674 288 637 c 2,28,-1
 360 519 l 1,29,-1
 256 519 l 1,30,-1
 198 553 l 2,23,24
EndSplineSet
EndChar

StartChar: uacute
Encoding: 250 250 187
Width: 615
GlyphClass: 2
Flags: W
LayerCount: 2
Fore
SplineSet
219 -10 m 0,0,1
 30 -10 30 -10 30 247 c 0,2,3
 30 316 30 316 53 474 c 1,4,-1
 247 474 l 1,5,-1
 247 258 l 2,6,7
 247 142 247 142 312 142 c 0,8,9
 369 142 369 142 369 246 c 0,10,11
 369 254 369 254 369 263 c 2,12,-1
 360 474 l 1,13,-1
 585 474 l 1,14,-1
 564 0 l 1,15,-1
 395 0 l 1,16,-1
 384 92 l 1,17,18
 382 88 382 88 379 81 c 128,-1,19
 376 74 376 74 362.5 56.5 c 128,-1,20
 349 39 349 39 332 25.5 c 128,-1,21
 315 12 315 12 285 1 c 128,-1,22
 255 -10 255 -10 219 -10 c 0,0,1
323 637 m 2,23,24
 346 674 346 674 378.5 674 c 128,-1,25
 411 674 411 674 430 655.5 c 128,-1,26
 449 637 449 637 449 605.5 c 128,-1,27
 449 574 449 574 413 553 c 2,28,-1
 355 519 l 1,29,-1
 251 519 l 1,30,-1
 323 637 l 2,23,24
EndSplineSet
EndChar

StartChar: ucircumflex
Encoding: 251 251 188
Width: 615
GlyphClass: 2
Flags: W
LayerCount: 2
Fore
SplineSet
219 -10 m 0,0,1
 30 -10 30 -10 30 247 c 0,2,3
 30 316 30 316 53 474 c 1,4,-1
 247 474 l 1,5,-1
 247 258 l 2,6,7
 247 142 247 142 312 142 c 0,8,9
 369 142 369 142 369 246 c 0,10,11
 369 254 369 254 369 263 c 2,12,-1
 360 474 l 1,13,-1
 585 474 l 1,14,-1
 564 0 l 1,15,-1
 395 0 l 1,16,-1
 384 92 l 1,17,18
 382 88 382 88 379 81 c 128,-1,19
 376 74 376 74 362.5 56.5 c 128,-1,20
 349 39 349 39 332 25.5 c 128,-1,21
 315 12 315 12 285 1 c 128,-1,22
 255 -10 255 -10 219 -10 c 0,0,1
294 674 m 2,23,-1
 320 674 l 2,24,25
 353 674 353 674 372.5 662.5 c 128,-1,26
 392 651 392 651 408 625 c 2,27,-1
 473 519 l 1,28,-1
 369 519 l 1,29,-1
 307 581 l 1,30,-1
 245 519 l 1,31,-1
 141 519 l 1,32,-1
 206 625 l 2,33,34
 222 651 222 651 241.5 662.5 c 128,-1,35
 261 674 261 674 294 674 c 2,23,-1
EndSplineSet
EndChar

StartChar: udieresis
Encoding: 252 252 189
Width: 615
GlyphClass: 2
Flags: W
LayerCount: 2
Fore
SplineSet
219 -10 m 0,0,1
 30 -10 30 -10 30 247 c 0,2,3
 30 316 30 316 53 474 c 1,4,-1
 247 474 l 1,5,-1
 247 258 l 2,6,7
 247 142 247 142 312 142 c 0,8,9
 369 142 369 142 369 246 c 0,10,11
 369 254 369 254 369 263 c 2,12,-1
 360 474 l 1,13,-1
 585 474 l 1,14,-1
 564 0 l 1,15,-1
 395 0 l 1,16,-1
 384 92 l 1,17,18
 382 88 382 88 379 81 c 128,-1,19
 376 74 376 74 362.5 56.5 c 128,-1,20
 349 39 349 39 332 25.5 c 128,-1,21
 315 12 315 12 285 1 c 128,-1,22
 255 -10 255 -10 219 -10 c 0,0,1
399 664 m 128,-1,24
 434 664 434 664 452.5 644.5 c 128,-1,25
 471 625 471 625 471 595.5 c 128,-1,26
 471 566 471 566 453 547 c 128,-1,27
 435 528 435 528 399 528 c 128,-1,28
 363 528 363 528 345.5 547 c 128,-1,29
 328 566 328 566 328 595.5 c 128,-1,30
 328 625 328 625 346 644.5 c 128,-1,23
 364 664 364 664 399 664 c 128,-1,24
216 664 m 128,-1,32
 251 664 251 664 269.5 644.5 c 128,-1,33
 288 625 288 625 288 595.5 c 128,-1,34
 288 566 288 566 270 547 c 128,-1,35
 252 528 252 528 216 528 c 128,-1,36
 180 528 180 528 162.5 547 c 128,-1,37
 145 566 145 566 145 595.5 c 128,-1,38
 145 625 145 625 163 644.5 c 128,-1,31
 181 664 181 664 216 664 c 128,-1,32
EndSplineSet
EndChar

StartChar: yacute
Encoding: 253 253 190
Width: 610
GlyphClass: 2
Flags: W
LayerCount: 2
Fore
SplineSet
377 111 m 2,0,-1
 377 119 l 1,1,2
 374 102 374 102 361.5 81.5 c 128,-1,3
 349 61 349 61 334 47 c 128,-1,4
 319 33 319 33 291.5 22 c 128,-1,5
 264 11 264 11 219 11 c 128,-1,6
 174 11 174 11 134 31.5 c 128,-1,7
 94 52 94 52 72 88 c 0,8,9
 30 155 30 155 30 235.5 c 128,-1,10
 30 316 30 316 53 474 c 1,11,-1
 247 474 l 1,12,-1
 247 258 l 2,13,14
 247 148 247 148 312 148 c 0,15,16
 341 148 341 148 355 174 c 128,-1,17
 369 200 369 200 369 240 c 0,18,19
 369 245 369 245 369 251 c 2,20,-1
 360 474 l 1,21,-1
 585 474 l 1,22,-1
 571 167 l 2,23,24
 568 102 568 102 561.5 56 c 128,-1,25
 555 10 555 10 537.5 -38.5 c 128,-1,26
 520 -87 520 -87 492 -117 c 0,27,28
 427 -185 427 -185 299 -185 c 0,29,30
 209 -185 209 -185 130 -129 c 1,31,-1
 121 -123 l 1,32,-1
 163 -37 l 1,33,34
 211 -59 211 -59 253 -59 c 0,35,36
 311 -59 311 -59 344 -14.5 c 128,-1,37
 377 30 377 30 377 111 c 2,0,-1
323 637 m 2,38,39
 346 674 346 674 378.5 674 c 128,-1,40
 411 674 411 674 430 655.5 c 128,-1,41
 449 637 449 637 449 605.5 c 128,-1,42
 449 574 449 574 413 553 c 2,43,-1
 355 519 l 1,44,-1
 251 519 l 1,45,-1
 323 637 l 2,38,39
EndSplineSet
EndChar

StartChar: thorn
Encoding: 254 254 191
Width: 598
GlyphClass: 2
Flags: W
LayerCount: 2
Fore
SplineSet
303.5 472 m 128,-1,1
 335 488 335 488 370.5 488 c 128,-1,2
 406 488 406 488 438.5 477 c 128,-1,3
 471 466 471 466 502.5 441.5 c 128,-1,4
 534 417 534 417 553.5 367 c 128,-1,5
 573 317 573 317 573 248 c 0,6,7
 573 122 573 122 516 56 c 128,-1,8
 459 -10 459 -10 367.5 -10 c 128,-1,9
 276 -10 276 -10 224 55 c 1,10,-1
 211 -171 l 1,11,-1
 40 -171 l 1,12,-1
 30 649 l 1,13,-1
 258 649 l 1,14,-1
 250 430 l 1,15,16
 254 436 254 436 263 446 c 128,-1,0
 272 456 272 456 303.5 472 c 128,-1,1
307 354 m 0,17,18
 241 354 241 354 241 234 c 0,19,20
 241 193 241 193 256.5 160.5 c 128,-1,21
 272 128 272 128 301 128 c 128,-1,22
 330 128 330 128 345 150 c 128,-1,23
 360 172 360 172 363 192 c 128,-1,24
 366 212 366 212 366 234 c 0,25,26
 366 354 366 354 307 354 c 0,17,18
EndSplineSet
EndChar

StartChar: ydieresis
Encoding: 255 255 192
Width: 610
GlyphClass: 2
Flags: W
LayerCount: 2
Fore
SplineSet
377 111 m 2,0,-1
 377 119 l 1,1,2
 374 102 374 102 361.5 81.5 c 128,-1,3
 349 61 349 61 334 47 c 128,-1,4
 319 33 319 33 291.5 22 c 128,-1,5
 264 11 264 11 219 11 c 128,-1,6
 174 11 174 11 134 31.5 c 128,-1,7
 94 52 94 52 72 88 c 0,8,9
 30 155 30 155 30 235.5 c 128,-1,10
 30 316 30 316 53 474 c 1,11,-1
 247 474 l 1,12,-1
 247 258 l 2,13,14
 247 148 247 148 312 148 c 0,15,16
 341 148 341 148 355 174 c 128,-1,17
 369 200 369 200 369 240 c 0,18,19
 369 245 369 245 369 251 c 2,20,-1
 360 474 l 1,21,-1
 585 474 l 1,22,-1
 571 167 l 2,23,24
 568 102 568 102 561.5 56 c 128,-1,25
 555 10 555 10 537.5 -38.5 c 128,-1,26
 520 -87 520 -87 492 -117 c 0,27,28
 427 -185 427 -185 299 -185 c 0,29,30
 209 -185 209 -185 130 -129 c 1,31,-1
 121 -123 l 1,32,-1
 163 -37 l 1,33,34
 211 -59 211 -59 253 -59 c 0,35,36
 311 -59 311 -59 344 -14.5 c 128,-1,37
 377 30 377 30 377 111 c 2,0,-1
399 664 m 128,-1,39
 434 664 434 664 452.5 644.5 c 128,-1,40
 471 625 471 625 471 595.5 c 128,-1,41
 471 566 471 566 453 547 c 128,-1,42
 435 528 435 528 399 528 c 128,-1,43
 363 528 363 528 345.5 547 c 128,-1,44
 328 566 328 566 328 595.5 c 128,-1,45
 328 625 328 625 346 644.5 c 128,-1,38
 364 664 364 664 399 664 c 128,-1,39
216 664 m 128,-1,47
 251 664 251 664 269.5 644.5 c 128,-1,48
 288 625 288 625 288 595.5 c 128,-1,49
 288 566 288 566 270 547 c 128,-1,50
 252 528 252 528 216 528 c 128,-1,51
 180 528 180 528 162.5 547 c 128,-1,52
 145 566 145 566 145 595.5 c 128,-1,53
 145 625 145 625 163 644.5 c 128,-1,46
 181 664 181 664 216 664 c 128,-1,47
EndSplineSet
EndChar

StartChar: hbar
Encoding: 295 295 193
Width: 599
GlyphClass: 2
Flags: W
LayerCount: 2
Fore
SplineSet
421 488 m 0,0,1
 478 488 478 488 514 454.5 c 128,-1,2
 550 421 550 421 562.5 374 c 128,-1,3
 575 327 575 327 575 254 c 128,-1,4
 575 181 575 181 552 0 c 1,5,-1
 377 0 l 1,6,-1
 355 232 l 2,7,8
 349 292 349 292 339 312 c 128,-1,9
 329 332 329 332 305 332 c 0,10,11
 246 332 246 332 241 231 c 2,12,-1
 231 0 l 1,13,-1
 47 0 l 1,14,-1
 20 649 l 1,15,-1
 258 649 l 1,16,-1
 248 389 l 1,17,18
 280 453 280 453 354 478 c 0,19,20
 385 488 385 488 421 488 c 0,0,1
298 474 m 1,21,-1
 -19 474 l 1,22,-1
 -19 574 l 1,23,-1
 298 574 l 1,24,-1
 298 474 l 1,21,-1
EndSplineSet
EndChar

StartChar: Itilde
Encoding: 296 296 194
Width: 365
GlyphClass: 2
Flags: W
LayerCount: 2
Fore
SplineSet
85 0 m 1,0,-1
 25 606 l 1,1,-1
 340 606 l 1,2,-1
 280 0 l 1,3,-1
 85 0 l 1,0,-1
238 647 m 0,4,5
 220 647 220 647 206 658.5 c 128,-1,6
 192 670 192 670 182 678 c 128,-1,7
 172 686 172 686 161 679 c 2,8,-1
 105 647 l 1,9,-1
 27 680 l 1,10,-1
 75 759 l 2,11,12
 97 794 97 794 133 794 c 0,13,14
 155 794 155 794 172 776 c 128,-1,15
 189 758 189 758 197.5 758 c 128,-1,16
 206 758 206 758 210 761 c 2,17,-1
 265 794 l 1,18,-1
 344 760 l 1,19,-1
 296 682 l 1,20,21
 273 647 273 647 238 647 c 0,4,5
EndSplineSet
EndChar

StartChar: itilde
Encoding: 297 297 195
Width: 315
GlyphClass: 2
Flags: W
LayerCount: 2
Fore
SplineSet
268 460 m 1,0,-1
 285 466 l 1,1,-1
 251 0 l 1,2,-1
 62 0 l 1,3,-1
 30 466 l 1,4,5
 87 443 87 443 151.5 443 c 128,-1,6
 216 443 216 443 268 460 c 1,0,-1
212 516 m 0,7,8
 189 516 189 516 170.5 534.5 c 128,-1,9
 152 553 152 553 143.5 553 c 128,-1,10
 135 553 135 553 131 550 c 2,11,-1
 73 516 l 1,12,-1
 -10 551 l 1,13,-1
 41 634 l 2,14,15
 64 671 64 671 102 671 c 0,16,17
 121 671 121 671 135.5 658.5 c 128,-1,18
 150 646 150 646 160 637.5 c 128,-1,19
 170 629 170 629 183 637 c 2,20,-1
 241 671 l 1,21,-1
 324 636 l 1,22,-1
 273 553 l 2,23,24
 250 516 250 516 212 516 c 0,7,8
EndSplineSet
EndChar

StartChar: dotlessi
Encoding: 305 305 196
Width: 295
GlyphClass: 2
Flags: W
LayerCount: 2
Fore
SplineSet
258 460 m 1,0,-1
 275 466 l 1,1,-1
 241 0 l 1,2,-1
 52 0 l 1,3,-1
 20 466 l 1,4,5
 77 443 77 443 141.5 443 c 128,-1,6
 206 443 206 443 258 460 c 1,0,-1
EndSplineSet
EndChar

StartChar: ij
Encoding: 307 307 197
Width: 642
GlyphClass: 2
Flags: W
LayerCount: 2
Fore
SplineSet
268 460 m 1,0,-1
 285 466 l 1,1,-1
 251 0 l 1,2,-1
 62 0 l 1,3,-1
 30 466 l 1,4,5
 87 443 87 443 151.5 443 c 128,-1,6
 216 443 216 443 268 460 c 1,0,-1
73 517 m 128,-1,8
 39 547 39 547 39 595.5 c 128,-1,9
 39 644 39 644 72.5 673.5 c 128,-1,10
 106 703 106 703 156.5 703 c 128,-1,11
 207 703 207 703 241 673 c 128,-1,12
 275 643 275 643 275 595 c 128,-1,13
 275 547 275 547 241 517 c 128,-1,14
 207 487 207 487 157 487 c 128,-1,7
 107 487 107 487 73 517 c 128,-1,8
380.5 -62 m 128,-1,16
 386 -45 386 -45 386 -30.5 c 128,-1,17
 386 -16 386 -16 357 466 c 1,18,19
 414 443 414 443 484 443 c 0,20,21
 543 443 543 443 596 460 c 1,22,-1
 612 466 l 1,23,-1
 578 -4 l 2,24,25
 572 -87 572 -87 524.5 -136 c 128,-1,26
 477 -185 477 -185 386 -185 c 1,27,-1
 312 -128 l 1,28,-1
 325 -122 l 2,29,30
 343 -113 343 -113 359 -96 c 128,-1,15
 375 -79 375 -79 380.5 -62 c 128,-1,16
400 517 m 128,-1,32
 366 547 366 547 366 595.5 c 128,-1,33
 366 644 366 644 399.5 673.5 c 128,-1,34
 433 703 433 703 483.5 703 c 128,-1,35
 534 703 534 703 568 673 c 128,-1,36
 602 643 602 643 602 595 c 128,-1,37
 602 547 602 547 568 517 c 128,-1,38
 534 487 534 487 484 487 c 128,-1,31
 434 487 434 487 400 517 c 128,-1,32
EndSplineSet
EndChar

StartChar: Jcircumflex
Encoding: 308 308 198
Width: 508
GlyphClass: 2
Flags: W
LayerCount: 2
Fore
SplineSet
210 200 m 0,0,1
 210 211 210 211 181 471 c 1,2,-1
 43 488 l 1,3,-1
 72 606 l 1,4,-1
 483 606 l 1,5,-1
 444 205 l 2,6,7
 423 -10 423 -10 222 -10 c 0,8,9
 162 -10 162 -10 104.5 12 c 128,-1,10
 47 34 47 34 28.5 47.5 c 128,-1,11
 10 61 10 61 0 70 c 1,12,13
 0 70 0 70 43 156 c 1,14,-1
 58 149 l 2,15,16
 99 129 99 129 137 129 c 0,17,18
 210 129 210 129 210 200 c 0,0,1
269 808 m 2,19,-1
 295 808 l 2,20,21
 328 808 328 808 347.5 796.5 c 128,-1,22
 367 785 367 785 383 759 c 2,23,-1
 448 653 l 1,24,-1
 344 653 l 1,25,-1
 282 715 l 1,26,-1
 220 653 l 1,27,-1
 116 653 l 1,28,-1
 181 759 l 2,29,30
 197 785 197 785 216.5 796.5 c 128,-1,31
 236 808 236 808 269 808 c 2,19,-1
EndSplineSet
EndChar

StartChar: jcircumflex
Encoding: 309 309 199
Width: 330
GlyphClass: 2
Flags: W
LayerCount: 2
Fore
SplineSet
68.5 -62 m 128,-1,1
 74 -45 74 -45 74 -30.5 c 128,-1,2
 74 -16 74 -16 45 466 c 1,3,4
 102 443 102 443 172 443 c 0,5,6
 231 443 231 443 284 460 c 1,7,-1
 300 466 l 1,8,-1
 266 -4 l 2,9,10
 260 -87 260 -87 212.5 -136 c 128,-1,11
 165 -185 165 -185 74 -185 c 1,12,-1
 0 -128 l 1,13,-1
 13 -122 l 2,14,15
 31 -113 31 -113 47 -96 c 128,-1,0
 63 -79 63 -79 68.5 -62 c 128,-1,1
159 674 m 2,16,-1
 185 674 l 2,17,18
 218 674 218 674 237.5 662.5 c 128,-1,19
 257 651 257 651 273 625 c 2,20,-1
 338 519 l 1,21,-1
 234 519 l 1,22,-1
 172 581 l 1,23,-1
 110 519 l 1,24,-1
 6 519 l 1,25,-1
 71 625 l 2,26,27
 87 651 87 651 106.5 662.5 c 128,-1,28
 126 674 126 674 159 674 c 2,16,-1
EndSplineSet
EndChar

StartChar: kcedilla
Encoding: 311 311 200
Width: 569
GlyphClass: 2
Flags: W
LayerCount: 2
Fore
SplineSet
416 0 m 1,0,1
 297 115 297 115 248 163 c 1,2,-1
 241 0 l 1,3,-1
 57 0 l 1,4,-1
 30 649 l 1,5,-1
 268 649 l 1,6,-1
 256 341 l 1,7,-1
 357 474 l 1,8,-1
 559 474 l 1,9,-1
 418 276 l 1,10,-1
 579 0 l 1,11,-1
 416 0 l 1,0,1
506 -146 m 2,12,13
 483 -183 483 -183 450.5 -183 c 128,-1,14
 418 -183 418 -183 399 -164.5 c 128,-1,15
 380 -146 380 -146 380 -114.5 c 128,-1,16
 380 -83 380 -83 416 -62 c 2,17,-1
 474 -28 l 1,18,-1
 578 -28 l 1,19,-1
 506 -146 l 2,12,13
EndSplineSet
EndChar

StartChar: kgreenlandic
Encoding: 312 312 201
Width: 562
GlyphClass: 2
Flags: W
LayerCount: 2
Fore
SplineSet
30 474 m 1,0,-1
 254 474 l 1,1,-1
 249 341 l 1,2,-1
 350 474 l 1,3,-1
 552 474 l 1,4,-1
 411 276 l 1,5,-1
 572 0 l 1,6,-1
 409 0 l 1,7,8
 290 115 290 115 241 163 c 1,9,-1
 234 0 l 1,10,-1
 50 0 l 1,11,-1
 30 474 l 1,0,-1
EndSplineSet
EndChar

StartChar: ldot
Encoding: 320 320 202
Width: 407
GlyphClass: 2
Flags: W
LayerCount: 2
Fore
SplineSet
268 649 m 1,0,-1
 241 0 l 1,1,-1
 57 0 l 1,2,-1
 30 649 l 1,3,-1
 268 649 l 1,0,-1
361 457 m 128,-1,5
 399 457 399 457 418 436.5 c 128,-1,6
 437 416 437 416 437 385 c 128,-1,7
 437 354 437 354 418 333.5 c 128,-1,8
 399 313 399 313 361 313 c 128,-1,9
 323 313 323 313 304 333.5 c 128,-1,10
 285 354 285 354 285 385 c 128,-1,11
 285 416 285 416 304 436.5 c 128,-1,4
 323 457 323 457 361 457 c 128,-1,5
EndSplineSet
EndChar

StartChar: Lslash
Encoding: 321 321 203
Width: 523
GlyphClass: 2
Flags: W
LayerCount: 2
Fore
SplineSet
20 182 m 1,0,-1
 20 280 l 1,1,-1
 82 304 l 1,2,-1
 52 606 l 1,3,-1
 367 606 l 1,4,-1
 347 408 l 1,5,-1
 446 447 l 1,6,-1
 446 349 l 1,7,-1
 337 306 l 1,8,-1
 322 155 l 1,9,-1
 503 165 l 1,10,-1
 446 0 l 1,11,-1
 112 0 l 1,12,-1
 91 210 l 1,13,-1
 20 182 l 1,0,-1
EndSplineSet
EndChar

StartChar: lslash
Encoding: 322 322 204
Width: 298
GlyphClass: 2
Flags: W
LayerCount: 2
Fore
SplineSet
-22 199 m 1,0,-1
 -22 297 l 1,1,-1
 313 428 l 1,2,-1
 313 330 l 1,3,-1
 -22 199 l 1,0,-1
268 649 m 1,4,-1
 241 0 l 1,5,-1
 57 0 l 1,6,-1
 30 649 l 1,7,-1
 268 649 l 1,4,-1
EndSplineSet
EndChar

StartChar: Nacute
Encoding: 323 323 205
Width: 775
GlyphClass: 2
Flags: W
LayerCount: 2
Fore
SplineSet
370 606 m 1,0,-1
 547 253 l 1,1,-1
 519 606 l 1,2,-1
 750 606 l 1,3,-1
 700 0 l 1,4,-1
 407 0 l 1,5,-1
 239 330 l 1,6,-1
 206 0 l 1,7,-1
 75 0 l 1,8,-1
 25 606 l 1,9,-1
 370 606 l 1,0,-1
443 781 m 2,10,11
 466 818 466 818 498.5 818 c 128,-1,12
 531 818 531 818 550 799.5 c 128,-1,13
 569 781 569 781 569 749.5 c 128,-1,14
 569 718 569 718 533 697 c 2,15,-1
 475 663 l 1,16,-1
 371 663 l 1,17,-1
 443 781 l 2,10,11
EndSplineSet
EndChar

StartChar: nacute
Encoding: 324 324 206
Width: 609
GlyphClass: 2
Flags: W
LayerCount: 2
Fore
SplineSet
408 488 m 0,0,1
 478 488 478 488 528.5 429 c 128,-1,2
 579 370 579 370 579 275.5 c 128,-1,3
 579 181 579 181 556 0 c 1,4,-1
 381 0 l 1,5,-1
 361 224 l 2,6,7
 351 331 351 331 303 331 c 0,8,9
 246 331 246 331 242 223 c 2,10,-1
 235 0 l 1,11,-1
 51 0 l 1,12,-1
 30 474 l 1,13,-1
 256 474 l 1,14,-1
 252 389 l 1,15,16
 257 399 257 399 275 420 c 128,-1,17
 293 441 293 441 310 454 c 0,18,19
 354 488 354 488 408 488 c 0,0,1
326 637 m 2,20,21
 349 674 349 674 381.5 674 c 128,-1,22
 414 674 414 674 433 655.5 c 128,-1,23
 452 637 452 637 452 605.5 c 128,-1,24
 452 574 452 574 416 553 c 2,25,-1
 358 519 l 1,26,-1
 254 519 l 1,27,-1
 326 637 l 2,20,21
EndSplineSet
EndChar

StartChar: OE
Encoding: 338 338 207
Width: 982
GlyphClass: 2
Flags: W
LayerCount: 2
Fore
SplineSet
374 620 m 0,0,1
 442 620 442 620 500 606 c 1,2,-1
 910 606 l 1,3,-1
 938 486 l 1,4,-1
 768 471 l 1,5,-1
 758 374 l 1,6,-1
 892 374 l 1,7,-1
 912 280 l 1,8,-1
 744 238 l 1,9,-1
 744 233 l 2,10,11
 744 172 744 172 764 150.5 c 128,-1,12
 784 129 784 129 814 129 c 0,13,14
 861 129 861 129 909 145 c 2,15,-1
 924 150 l 1,16,-1
 967 64 l 1,17,18
 958 56 958 56 940 43.5 c 128,-1,19
 922 31 922 31 859.5 10.5 c 128,-1,20
 797 -10 797 -10 713.5 -10 c 128,-1,21
 630 -10 630 -10 571 28 c 1,22,23
 489 -10 489 -10 374 -10 c 0,24,25
 213 -10 213 -10 116.5 66 c 128,-1,26
 20 142 20 142 20 299 c 128,-1,27
 20 456 20 456 111.5 538 c 128,-1,28
 203 620 203 620 374 620 c 0,0,1
373.5 505 m 128,-1,30
 286 505 286 505 286 303 c 128,-1,31
 286 101 286 101 373.5 101 c 128,-1,32
 461 101 461 101 461 303 c 128,-1,29
 461 505 461 505 373.5 505 c 128,-1,30
EndSplineSet
EndChar

StartChar: oe
Encoding: 339 339 208
Width: 857
GlyphClass: 2
Flags: W
LayerCount: 2
Fore
SplineSet
614 -10 m 0,0,1
 524 -10 524 -10 455 32 c 1,2,3
 390 -10 390 -10 277.5 -10 c 128,-1,4
 165 -10 165 -10 92.5 50.5 c 128,-1,5
 20 111 20 111 20 236 c 128,-1,6
 20 361 20 361 88 424.5 c 128,-1,7
 156 488 156 488 286 488 c 0,8,9
 387 488 387 488 453 448 c 1,10,11
 518 488 518 488 619.5 488 c 128,-1,12
 721 488 721 488 781 442.5 c 128,-1,13
 841 397 841 397 841 317 c 0,14,15
 841 255 841 255 791.5 216.5 c 128,-1,16
 742 178 742 178 647 178 c 0,17,18
 608 178 608 178 576 184 c 2,19,-1
 566 186 l 1,20,21
 571 150 571 150 597.5 132.5 c 128,-1,22
 624 115 624 115 661 115 c 0,23,24
 722 115 722 115 765 152 c 1,25,-1
 827 77 l 1,26,27
 811 58 811 58 789 41.5 c 128,-1,28
 767 25 767 25 719 7.5 c 128,-1,29
 671 -10 671 -10 614 -10 c 0,0,1
333.5 355.5 m 128,-1,31
 321 387 321 387 284.5 387 c 128,-1,32
 248 387 248 387 236 351 c 128,-1,33
 224 315 224 315 224 239 c 128,-1,34
 224 163 224 163 237 127 c 128,-1,35
 250 91 250 91 286 91 c 128,-1,36
 322 91 322 91 335 127 c 128,-1,37
 348 163 348 163 348 238 c 2,38,-1
 348 258 l 1,39,30
 346 324 346 324 333.5 355.5 c 128,-1,31
679.5 359 m 128,-1,41
 664 372 664 372 637 372 c 128,-1,42
 610 372 610 372 586.5 348 c 128,-1,43
 563 324 563 324 563 291 c 1,44,45
 585 281 585 281 620.5 281 c 128,-1,46
 656 281 656 281 675.5 293.5 c 128,-1,47
 695 306 695 306 695 326 c 128,-1,40
 695 346 695 346 679.5 359 c 128,-1,41
EndSplineSet
EndChar

StartChar: Racute
Encoding: 340 340 209
Width: 717
GlyphClass: 2
Flags: W
LayerCount: 2
Fore
SplineSet
367 481 m 2,0,-1
 327 481 l 1,1,-1
 310 303 l 1,2,-1
 358 303 l 2,3,4
 404 303 404 303 431 331 c 128,-1,5
 458 359 458 359 458 399.5 c 128,-1,6
 458 440 458 440 432.5 460.5 c 128,-1,7
 407 481 407 481 367 481 c 2,0,-1
707 406 m 0,8,9
 707 370 707 370 691 337 c 128,-1,10
 675 304 675 304 655.5 285 c 128,-1,11
 636 266 636 266 607.5 247 c 128,-1,12
 579 228 579 228 560 222 c 1,13,-1
 668 0 l 1,14,-1
 493 0 l 1,15,-1
 299 195 l 1,16,-1
 280 0 l 1,17,-1
 85 0 l 1,18,-1
 25 606 l 1,19,-1
 471 606 l 2,20,21
 578 606 578 606 642.5 555.5 c 128,-1,22
 707 505 707 505 707 406 c 0,8,9
376 781 m 2,23,24
 399 818 399 818 431.5 818 c 128,-1,25
 464 818 464 818 483 799.5 c 128,-1,26
 502 781 502 781 502 749.5 c 128,-1,27
 502 718 502 718 466 697 c 2,28,-1
 408 663 l 1,29,-1
 304 663 l 1,30,-1
 376 781 l 2,23,24
EndSplineSet
EndChar

StartChar: Rcommaaccent
Encoding: 342 342 210
Width: 717
GlyphClass: 2
Flags: W
LayerCount: 2
Fore
SplineSet
300 -236 m 1,0,-1
 300 -109 l 2,1,2
 300 -84 300 -84 318 -64.5 c 128,-1,3
 336 -45 336 -45 370 -45 c 128,-1,4
 404 -45 404 -45 422 -64.5 c 128,-1,5
 440 -84 440 -84 440 -108.5 c 128,-1,6
 440 -133 440 -133 411 -175 c 2,7,-1
 370 -236 l 1,8,-1
 300 -236 l 1,0,-1
358 303 m 2,9,10
 404 303 404 303 431 331 c 128,-1,11
 458 359 458 359 458 399.5 c 128,-1,12
 458 440 458 440 432.5 460.5 c 128,-1,13
 407 481 407 481 367 481 c 2,14,-1
 327 481 l 1,15,-1
 310 303 l 1,16,-1
 358 303 l 2,9,10
471 606 m 2,17,18
 578 606 578 606 642.5 555.5 c 128,-1,19
 707 505 707 505 707 406 c 0,20,21
 707 370 707 370 692 337.5 c 128,-1,22
 677 305 677 305 656 285 c 0,23,24
 612 245 612 245 575 228 c 1,25,-1
 560 222 l 1,26,-1
 668 0 l 1,27,-1
 493 0 l 1,28,-1
 299 195 l 1,29,-1
 280 0 l 1,30,-1
 85 0 l 1,31,-1
 25 606 l 1,32,-1
 471 606 l 2,17,18
EndSplineSet
EndChar

StartChar: rcommaaccent
Encoding: 343 343 211
Width: 441
GlyphClass: 2
Flags: W
LayerCount: 2
Fore
SplineSet
83 -236 m 1,0,-1
 83 -109 l 2,1,2
 83 -84 83 -84 101 -64.5 c 128,-1,3
 119 -45 119 -45 153 -45 c 128,-1,4
 187 -45 187 -45 205 -64.5 c 128,-1,5
 223 -84 223 -84 223 -108.5 c 128,-1,6
 223 -133 223 -133 194 -175 c 2,7,-1
 153 -236 l 1,8,-1
 83 -236 l 1,0,-1
242 409 m 1,9,10
 295 488 295 488 373 488 c 0,11,12
 410 488 410 488 441 470 c 1,13,-1
 417 306 l 1,14,15
 377 334 377 334 327 334 c 0,16,17
 279 334 279 334 262 294 c 0,18,19
 252 269 252 269 249 246 c 1,20,-1
 230 0 l 1,21,-1
 50 0 l 1,22,-1
 20 474 l 1,23,-1
 217 474 l 1,24,-1
 242 409 l 1,9,10
EndSplineSet
EndChar

StartChar: Rcaron
Encoding: 344 344 212
Width: 717
GlyphClass: 2
Flags: W
LayerCount: 2
Fore
SplineSet
358 303 m 2,0,1
 404 303 404 303 431 331 c 128,-1,2
 458 359 458 359 458 399.5 c 128,-1,3
 458 440 458 440 432.5 460.5 c 128,-1,4
 407 481 407 481 367 481 c 2,5,-1
 327 481 l 1,6,-1
 310 303 l 1,7,-1
 358 303 l 2,0,1
471 606 m 2,8,9
 578 606 578 606 642.5 555.5 c 128,-1,10
 707 505 707 505 707 406 c 0,11,12
 707 370 707 370 692 337.5 c 128,-1,13
 677 305 677 305 656 285 c 0,14,15
 612 245 612 245 575 228 c 1,16,-1
 560 222 l 1,17,-1
 668 0 l 1,18,-1
 493 0 l 1,19,-1
 299 195 l 1,20,-1
 280 0 l 1,21,-1
 85 0 l 1,22,-1
 25 606 l 1,23,-1
 471 606 l 2,8,9
378 653 m 2,24,-1
 352 653 l 2,25,26
 319 653 319 653 299.5 664.5 c 128,-1,27
 280 676 280 676 264 702 c 2,28,-1
 199 808 l 1,29,-1
 303 808 l 1,30,-1
 365 746 l 1,31,-1
 427 808 l 1,32,-1
 531 808 l 1,33,-1
 466 702 l 2,34,35
 450 676 450 676 430.5 664.5 c 128,-1,36
 411 653 411 653 378 653 c 2,24,-1
EndSplineSet
EndChar

StartChar: rcaron
Encoding: 345 345 213
Width: 441
GlyphClass: 2
Flags: W
LayerCount: 2
Fore
SplineSet
242 409 m 1,0,1
 295 488 295 488 373 488 c 0,2,3
 410 488 410 488 441 470 c 1,4,-1
 417 306 l 1,5,6
 377 334 377 334 327 334 c 0,7,8
 279 334 279 334 262 294 c 0,9,10
 252 269 252 269 249 246 c 1,11,-1
 230 0 l 1,12,-1
 50 0 l 1,13,-1
 20 474 l 1,14,-1
 217 474 l 1,15,-1
 242 409 l 1,0,1
241 519 m 2,16,-1
 215 519 l 2,17,18
 182 519 182 519 162.5 530.5 c 128,-1,19
 143 542 143 542 127 568 c 2,20,-1
 62 674 l 1,21,-1
 166 674 l 1,22,-1
 228 612 l 1,23,-1
 290 674 l 1,24,-1
 394 674 l 1,25,-1
 329 568 l 2,26,27
 313 542 313 542 293.5 530.5 c 128,-1,28
 274 519 274 519 241 519 c 2,16,-1
EndSplineSet
EndChar

StartChar: circumflex
Encoding: 710 710 214
Width: 407
GlyphClass: 2
Flags: W
LayerCount: 2
Fore
SplineSet
213 808 m 2,0,-1
 239 808 l 2,1,2
 272 808 272 808 291.5 796.5 c 128,-1,3
 311 785 311 785 327 759 c 2,4,-1
 392 653 l 1,5,-1
 288 653 l 1,6,-1
 226 715 l 1,7,-1
 164 653 l 1,8,-1
 60 653 l 1,9,-1
 125 759 l 2,10,11
 141 785 141 785 160.5 796.5 c 128,-1,12
 180 808 180 808 213 808 c 2,0,-1
EndSplineSet
EndChar

StartChar: caron
Encoding: 711 711 215
Width: 432
GlyphClass: 2
Flags: W
LayerCount: 2
Fore
SplineSet
229 519 m 2,0,-1
 203 519 l 2,1,2
 170 519 170 519 150.5 530.5 c 128,-1,3
 131 542 131 542 115 568 c 2,4,-1
 50 674 l 1,5,-1
 154 674 l 1,6,-1
 216 612 l 1,7,-1
 278 674 l 1,8,-1
 382 674 l 1,9,-1
 317 568 l 2,10,11
 301 542 301 542 281.5 530.5 c 128,-1,12
 262 519 262 519 229 519 c 2,0,-1
EndSplineSet
EndChar

StartChar: ring
Encoding: 730 730 216
Width: 310
GlyphClass: 2
Flags: W
LayerCount: 2
Fore
SplineSet
160 519 m 2,0,-1
 150 519 l 2,1,2
 102 519 102 519 76 537.5 c 128,-1,3
 50 556 50 556 50 602 c 128,-1,4
 50 648 50 648 74.5 667 c 128,-1,5
 99 686 99 686 150 686 c 2,6,-1
 160 686 l 2,7,8
 211 686 211 686 235.5 667 c 128,-1,9
 260 648 260 648 260 602 c 128,-1,10
 260 556 260 556 234 537.5 c 128,-1,11
 208 519 208 519 160 519 c 2,0,-1
153 581 m 2,12,-1
 157 581 l 2,13,14
 178 581 178 581 184 587 c 128,-1,15
 190 593 190 593 190 605 c 128,-1,16
 190 617 190 617 182.5 621.5 c 128,-1,17
 175 626 175 626 157 626 c 2,18,-1
 153 626 l 2,19,20
 135 626 135 626 127.5 621.5 c 128,-1,21
 120 617 120 617 120 605 c 128,-1,22
 120 593 120 593 125 588 c 0,23,24
 132 581 132 581 153 581 c 2,12,-1
EndSplineSet
EndChar

StartChar: tilde
Encoding: 732 732 217
Width: 434
GlyphClass: 2
Flags: W
LayerCount: 2
Fore
SplineSet
272 646 m 0,0,1
 249 646 249 646 230.5 664.5 c 128,-1,2
 212 683 212 683 203.5 683 c 128,-1,3
 195 683 195 683 191 680 c 2,4,-1
 133 646 l 1,5,-1
 50 681 l 1,6,-1
 101 764 l 2,7,8
 124 801 124 801 162 801 c 0,9,10
 181 801 181 801 195.5 788.5 c 128,-1,11
 210 776 210 776 220 767.5 c 128,-1,12
 230 759 230 759 243 767 c 2,13,-1
 301 801 l 1,14,-1
 384 766 l 1,15,-1
 333 683 l 2,16,17
 310 646 310 646 272 646 c 0,0,1
EndSplineSet
EndChar

StartChar: endash
Encoding: 8211 8211 218
Width: 415
GlyphClass: 2
Flags: W
LayerCount: 2
Fore
SplineSet
0 247 m 1,0,-1
 0 345 l 1,1,-1
 415 345 l 1,2,-1
 415 247 l 1,3,-1
 0 247 l 1,0,-1
EndSplineSet
EndChar

StartChar: emdash
Encoding: 8212 8212 219
Width: 826
GlyphClass: 2
Flags: W
LayerCount: 2
Fore
SplineSet
0 247 m 1,0,-1
 0 345 l 1,1,-1
 826 345 l 1,2,-1
 826 247 l 1,3,-1
 0 247 l 1,0,-1
EndSplineSet
EndChar

StartChar: quoteleft
Encoding: 8216 8216 220
Width: 191
GlyphClass: 2
Flags: W
LayerCount: 2
Fore
SplineSet
171 649 m 1,0,-1
 171 512 l 2,1,2
 171 486 171 486 151.5 464.5 c 128,-1,3
 132 443 132 443 95.5 443 c 128,-1,4
 59 443 59 443 39.5 464 c 128,-1,5
 20 485 20 485 20 511.5 c 128,-1,6
 20 538 20 538 51 583 c 2,7,-1
 96 649 l 1,8,-1
 171 649 l 1,0,-1
EndSplineSet
EndChar

StartChar: quoteright
Encoding: 8217 8217 221
Width: 191
GlyphClass: 2
Flags: W
LayerCount: 2
Fore
SplineSet
20 457 m 1,0,-1
 20 594 l 2,1,2
 20 620 20 620 39.5 641.5 c 128,-1,3
 59 663 59 663 95.5 663 c 128,-1,4
 132 663 132 663 151.5 642 c 128,-1,5
 171 621 171 621 171 594.5 c 128,-1,6
 171 568 171 568 140 523 c 2,7,-1
 95 457 l 1,8,-1
 20 457 l 1,0,-1
EndSplineSet
EndChar

StartChar: quotesinglbase
Encoding: 8218 8218 222
Width: 180
GlyphClass: 2
Flags: W
LayerCount: 2
Fore
SplineSet
20 -85 m 1,0,-1
 20 42 l 2,1,2
 20 67 20 67 38 86.5 c 128,-1,3
 56 106 56 106 90 106 c 128,-1,4
 124 106 124 106 142 86.5 c 128,-1,5
 160 67 160 67 160 42.5 c 128,-1,6
 160 18 160 18 131 -24 c 2,7,-1
 90 -85 l 1,8,-1
 20 -85 l 1,0,-1
EndSplineSet
EndChar

StartChar: quotedblleft
Encoding: 8220 8220 223
Width: 361
GlyphClass: 2
Flags: W
LayerCount: 2
Fore
SplineSet
171 649 m 1,0,-1
 171 512 l 2,1,2
 171 486 171 486 151.5 464.5 c 128,-1,3
 132 443 132 443 95.5 443 c 128,-1,4
 59 443 59 443 39.5 464 c 128,-1,5
 20 485 20 485 20 511.5 c 128,-1,6
 20 538 20 538 51 583 c 2,7,-1
 96 649 l 1,8,-1
 171 649 l 1,0,-1
341 649 m 1,9,-1
 341 512 l 2,10,11
 341 486 341 486 321.5 464.5 c 128,-1,12
 302 443 302 443 265.5 443 c 128,-1,13
 229 443 229 443 209.5 464 c 128,-1,14
 190 485 190 485 190 511.5 c 128,-1,15
 190 538 190 538 221 583 c 2,16,-1
 266 649 l 1,17,-1
 341 649 l 1,9,-1
EndSplineSet
EndChar

StartChar: quotedblright
Encoding: 8221 8221 224
Width: 361
GlyphClass: 2
Flags: W
LayerCount: 2
Fore
SplineSet
20 457 m 1,0,-1
 20 594 l 2,1,2
 20 620 20 620 39.5 641.5 c 128,-1,3
 59 663 59 663 95.5 663 c 128,-1,4
 132 663 132 663 151.5 642 c 128,-1,5
 171 621 171 621 171 594.5 c 128,-1,6
 171 568 171 568 140 523 c 2,7,-1
 95 457 l 1,8,-1
 20 457 l 1,0,-1
190 457 m 1,9,-1
 190 594 l 2,10,11
 190 620 190 620 209.5 641.5 c 128,-1,12
 229 663 229 663 265.5 663 c 128,-1,13
 302 663 302 663 321.5 642 c 128,-1,14
 341 621 341 621 341 594.5 c 128,-1,15
 341 568 341 568 310 523 c 2,16,-1
 265 457 l 1,17,-1
 190 457 l 1,9,-1
EndSplineSet
EndChar

StartChar: quotedblbase
Encoding: 8222 8222 225
Width: 364
GlyphClass: 2
Flags: W
LayerCount: 2
Fore
SplineSet
20 -75 m 1,0,-1
 20 62 l 2,1,2
 20 88 20 88 39.5 109.5 c 128,-1,3
 59 131 59 131 95.5 131 c 128,-1,4
 132 131 132 131 151.5 110 c 128,-1,5
 171 89 171 89 171 62.5 c 128,-1,6
 171 36 171 36 140 -9 c 2,7,-1
 95 -75 l 1,8,-1
 20 -75 l 1,0,-1
193 -75 m 1,9,-1
 193 62 l 2,10,11
 193 88 193 88 212.5 109.5 c 128,-1,12
 232 131 232 131 268.5 131 c 128,-1,13
 305 131 305 131 324.5 110 c 128,-1,14
 344 89 344 89 344 62.5 c 128,-1,15
 344 36 344 36 313 -9 c 2,16,-1
 268 -75 l 1,17,-1
 193 -75 l 1,9,-1
EndSplineSet
EndChar

StartChar: bullet
Encoding: 8226 8226 226
Width: 320
GlyphClass: 2
Flags: W
LayerCount: 2
Fore
SplineSet
160 420 m 128,-1,1
 225 420 225 420 257.5 385.5 c 128,-1,2
 290 351 290 351 290 297 c 128,-1,3
 290 243 290 243 257.5 208.5 c 128,-1,4
 225 174 225 174 160 174 c 128,-1,5
 95 174 95 174 62.5 208.5 c 128,-1,6
 30 243 30 243 30 297 c 128,-1,7
 30 351 30 351 62.5 385.5 c 128,-1,0
 95 420 95 420 160 420 c 128,-1,1
EndSplineSet
EndChar

StartChar: guilsinglleft
Encoding: 8249 8249 227
Width: 237
GlyphClass: 2
Flags: W
LayerCount: 2
Fore
SplineSet
222 408 m 1,0,-1
 143 232 l 1,1,-1
 222 56 l 1,2,-1
 111 56 l 1,3,-1
 1 232 l 1,4,-1
 111 408 l 1,5,-1
 222 408 l 1,0,-1
EndSplineSet
EndChar

StartChar: guilsinglright
Encoding: 8250 8250 228
Width: 237
GlyphClass: 2
Flags: W
LayerCount: 2
Fore
SplineSet
1 56 m 1,0,-1
 80 232 l 1,1,-1
 1 408 l 1,2,-1
 112 408 l 1,3,-1
 222 232 l 1,4,-1
 112 56 l 1,5,-1
 1 56 l 1,0,-1
EndSplineSet
EndChar

StartChar: minus
Encoding: 8722 8722 229
Width: 415
GlyphClass: 2
Flags: W
LayerCount: 2
Fore
SplineSet
30 247 m 1,0,-1
 30 345 l 1,1,-1
 385 345 l 1,2,-1
 385 247 l 1,3,-1
 30 247 l 1,0,-1
EndSplineSet
EndChar
